<svg id="svg" version="1.1" xmlns="http://www.w3.org/2000/svg" xmlns:xlink="http://www.w3.org/1999/xlink" width="400" height="89.10212474297465" viewBox="0, 0, 400,89.10212474297465"><g id="svgg"><path id="path0" d="M0.167 44.083 L 0.167 88.167 44.351 88.167 C 84.573 88.167,88.527 88.143,88.434 87.903 C 88.379 87.758,88.333 67.921,88.333 43.820 L 88.333 0.000 44.250 0.000 L 0.167 0.000 0.167 44.083 M100.333 18.333 L 100.333 36.667 109.625 36.663 C 121.198 36.659,122.487 36.522,125.583 34.963 C 132.976 31.240,132.842 20.358,125.364 17.168 L 124.277 16.704 124.847 16.414 C 130.714 13.424,130.768 4.313,124.935 1.431 C 122.399 0.178,120.493 0.003,109.375 0.001 L 100.333 0.000 100.333 18.333 M119.179 6.769 C 122.543 8.325,122.196 13.373,118.640 14.605 C 117.857 14.877,117.191 14.914,113.083 14.915 L 108.417 14.917 108.372 10.616 L 108.328 6.315 113.372 6.366 C 118.098 6.413,118.465 6.439,119.179 6.769 M51.182 7.713 C 65.496 10.603,76.581 20.936,80.176 34.741 C 82.668 44.307,81.150 55.182,76.226 63.043 C 73.668 67.127,71.340 69.866,68.217 72.466 C 49.276 88.233,20.825 81.869,10.543 59.566 C 0.371 37.499,14.146 11.584,38.167 7.601 C 39.037 7.457,39.938 7.306,40.167 7.266 C 41.689 7.003,49.168 7.306,51.182 7.713 M144.750 9.751 C 139.559 10.601,136.662 13.187,135.922 17.628 L 135.803 18.340 139.436 18.295 L 143.069 18.250 143.199 17.622 C 143.671 15.348,145.279 14.265,148.167 14.274 C 151.257 14.284,152.667 15.396,152.667 17.822 C 152.667 19.964,151.395 20.558,145.339 21.249 C 138.626 22.014,136.023 23.721,135.198 27.897 C 134.590 30.977,135.813 34.224,138.167 35.775 C 141.874 38.219,148.626 37.752,152.191 34.804 L 152.966 34.164 153.244 35.415 L 153.523 36.667 157.196 36.667 C 160.629 36.667,160.861 36.648,160.748 36.375 C 160.107 34.834,160.107 34.823,160.007 24.917 C 159.897 14.030,159.940 14.395,158.539 12.685 C 156.418 10.097,150.426 8.822,144.750 9.751 M178.917 9.684 C 177.006 10.071,174.231 11.910,173.378 13.354 C 172.916 14.135,172.833 13.929,172.833 12.000 L 172.833 10.167 169.417 10.167 L 166.000 10.167 166.000 23.417 L 166.000 36.667 169.571 36.667 L 173.142 36.667 173.203 28.375 L 173.263 20.083 173.695 18.799 C 174.842 15.385,178.712 14.010,181.723 15.946 C 183.427 17.042,183.664 18.625,183.665 28.958 L 183.667 36.667 187.260 36.667 L 190.853 36.667 190.789 26.792 C 190.712 14.849,190.601 14.161,188.366 11.867 C 186.527 9.979,182.290 9.000,178.917 9.684 M205.517 9.747 C 194.312 12.288,193.049 32.461,203.833 36.635 C 207.652 38.113,212.297 37.246,214.958 34.560 L 216.167 33.340 216.167 39.670 L 216.167 46.000 219.750 46.000 L 223.333 46.000 223.333 28.083 L 223.333 10.167 219.922 10.167 L 216.512 10.167 216.464 11.832 L 216.417 13.497 215.732 12.612 C 213.803 10.115,209.373 8.873,205.517 9.747 M267.917 9.719 C 254.940 12.427,253.300 31.950,265.667 36.499 C 273.028 39.206,281.100 35.672,283.080 28.875 L 283.189 28.500 280.053 28.503 L 276.917 28.506 276.382 29.323 C 274.093 32.825,267.811 32.800,265.555 29.279 C 265.127 28.610,264.500 26.449,264.500 25.640 L 264.500 25.167 274.105 25.167 L 283.709 25.167 283.621 22.875 C 283.269 13.766,276.340 7.962,267.917 9.719 M295.500 9.692 C 289.798 10.484,286.471 14.507,287.553 19.299 C 288.264 22.447,290.392 23.794,296.965 25.254 C 302.519 26.489,304.000 27.327,304.000 29.238 C 304.000 33.169,295.986 33.755,294.096 29.962 C 293.860 29.488,293.667 28.891,293.667 28.634 L 293.667 28.167 290.250 28.167 L 286.833 28.167 286.833 28.658 C 286.833 33.226,290.898 36.629,297.042 37.202 C 305.650 38.006,311.336 34.409,311.326 28.167 C 311.319 23.757,308.963 22.111,299.628 19.995 C 295.897 19.149,294.669 18.329,294.667 16.682 C 294.664 13.184,302.606 13.451,303.511 16.979 L 303.730 17.833 307.115 17.833 L 310.500 17.833 310.500 17.364 C 310.500 11.962,303.804 8.537,295.500 9.692 M40.917 9.935 C 34.322 10.884,30.188 12.353,25.511 15.408 C 12.115 24.162,6.419 41.334,12.034 56.037 L 12.529 57.333 20.118 57.333 C 27.318 57.333,27.696 57.318,27.489 57.042 C 27.369 56.881,26.783 56.247,26.187 55.631 L 25.104 54.512 25.144 52.964 L 25.183 51.417 24.383 51.091 C 22.854 50.469,21.408 48.773,20.012 45.964 C 18.837 43.600,18.754 43.483,17.561 42.503 C 14.837 40.267,11.902 35.526,13.228 35.503 C 13.589 35.496,16.811 33.412,19.473 31.463 C 20.577 30.655,20.545 30.562,20.662 34.910 C 20.786 39.513,20.912 39.812,22.587 39.467 C 24.354 39.102,28.881 39.238,31.324 39.729 C 34.019 40.270,34.276 40.230,35.198 39.129 C 37.788 36.036,42.134 37.733,42.977 42.167 C 43.056 42.579,43.543 43.658,44.060 44.563 C 44.577 45.469,45.000 46.232,45.000 46.259 C 45.000 46.286,44.306 46.008,43.458 45.641 C 40.845 44.511,39.622 44.767,37.313 46.925 C 34.993 49.095,32.538 50.527,30.042 51.165 L 29.333 51.346 29.333 52.326 L 29.333 53.306 30.708 54.355 C 31.465 54.932,32.646 55.837,33.333 56.367 L 34.583 57.332 36.108 57.332 L 37.634 57.333 36.892 56.548 C 35.780 55.371,34.850 53.218,34.837 51.792 L 34.833 51.333 44.083 51.333 L 53.333 51.333 53.331 51.875 C 53.326 53.260,52.476 55.250,51.337 56.542 L 50.638 57.333 52.966 57.333 L 55.294 57.333 57.689 55.576 C 61.005 53.143,61.400 52.138,59.292 51.501 C 58.627 51.300,57.112 50.650,55.925 50.056 C 53.003 48.593,51.688 48.172,49.698 48.063 L 48.083 47.974 46.833 48.815 C 45.213 49.906,45.241 49.931,45.933 48.042 C 46.313 47.005,46.579 45.915,46.668 45.032 C 47.132 40.403,50.845 38.364,53.856 41.084 C 54.717 41.862,55.181 41.842,57.664 40.917 C 60.774 39.760,61.991 39.480,64.333 39.382 C 67.080 39.266,67.460 38.899,67.008 36.803 C 66.697 35.363,66.333 32.352,66.333 31.219 C 66.333 30.098,66.463 29.959,67.094 30.401 C 67.904 30.969,72.609 32.966,74.229 33.430 C 74.837 33.604,75.333 33.799,75.333 33.864 C 75.333 35.228,73.223 39.475,71.581 41.417 C 70.641 42.528,70.397 43.045,69.995 44.782 C 69.166 48.355,66.508 51.814,64.575 51.832 C 64.465 51.833,64.426 52.223,64.468 52.891 L 64.536 53.948 63.461 55.599 L 62.386 57.250 69.151 57.294 C 76.956 57.344,76.060 57.581,76.821 55.268 C 83.483 34.998,71.289 14.378,50.237 10.314 C 48.482 9.975,42.368 9.727,40.917 9.935 M229.036 20.208 L 229.090 30.250 229.565 31.663 C 231.838 38.438,241.565 39.555,246.294 33.583 L 246.822 32.917 246.828 34.792 L 246.833 36.667 250.333 36.667 L 253.833 36.667 253.833 23.417 L 253.833 10.167 250.167 10.167 L 246.500 10.167 246.500 18.090 C 246.500 26.704,246.406 27.842,245.572 29.278 C 243.902 32.154,238.975 32.552,237.222 29.953 C 236.309 28.600,236.285 28.335,236.214 18.875 L 236.148 10.167 232.564 10.167 L 228.981 10.167 229.036 20.208 M212.547 15.421 C 217.834 17.924,217.640 29.500,212.278 31.525 C 206.726 33.620,202.437 28.061,203.927 20.701 C 204.877 16.006,208.759 13.628,212.547 15.421 M273.189 15.382 C 274.633 16.021,275.975 17.946,276.265 19.792 L 276.376 20.500 270.419 20.500 L 264.463 20.500 264.578 19.889 C 265.329 15.883,269.447 13.728,273.189 15.382 M120.167 20.852 C 122.551 21.983,123.521 24.373,122.733 27.180 C 121.951 29.965,120.239 30.538,112.917 30.463 L 108.417 30.417 108.373 25.365 L 108.328 20.313 113.789 20.365 L 119.250 20.417 120.167 20.852 M152.641 26.213 C 152.532 30.707,150.839 32.500,146.704 32.500 C 143.585 32.500,142.151 31.206,142.368 28.588 C 142.544 26.465,144.121 25.512,148.454 24.910 C 150.272 24.658,151.710 24.307,152.167 24.004 C 152.658 23.679,152.697 23.863,152.641 26.213 M26.875 51.623 L 26.000 51.684 26.000 52.924 L 26.000 54.165 27.458 55.744 L 28.917 57.324 30.958 57.329 C 32.081 57.331,33.000 57.303,33.000 57.267 C 33.000 57.190,29.506 54.454,28.903 54.059 C 28.541 53.822,28.500 53.677,28.500 52.647 C 28.500 51.559,28.481 51.502,28.125 51.531 C 27.919 51.548,27.356 51.589,26.875 51.623 M112.374 51.708 C 112.283 51.823,111.529 53.717,110.699 55.917 C 109.869 58.117,108.617 61.417,107.917 63.250 C 106.534 66.872,106.419 67.177,104.787 71.500 C 104.181 73.104,103.113 75.917,102.414 77.750 C 100.246 83.431,98.500 88.054,98.500 88.112 C 98.500 88.142,100.319 88.166,102.542 88.165 L 106.583 88.163 107.440 85.707 C 107.912 84.356,108.549 82.518,108.857 81.624 L 109.417 79.998 116.329 80.041 L 123.241 80.083 124.599 84.083 L 125.957 88.083 130.129 88.128 L 134.301 88.172 133.723 86.628 C 133.405 85.778,133.049 84.821,132.932 84.500 C 132.815 84.179,132.437 83.167,132.093 82.250 C 131.749 81.333,130.528 78.073,129.380 75.004 C 128.232 71.936,127.229 69.274,127.151 69.088 C 127.074 68.902,125.612 65.000,123.904 60.417 C 122.195 55.833,120.728 51.952,120.643 51.792 C 120.444 51.416,112.670 51.338,112.374 51.708 M137.000 69.833 L 137.000 88.167 140.583 88.167 L 144.167 88.167 144.167 69.833 L 144.167 51.500 140.583 51.500 L 137.000 51.500 137.000 69.833 M150.278 51.611 C 150.217 51.672,150.167 53.022,150.167 54.611 L 150.167 57.500 153.833 57.500 L 157.500 57.500 157.500 54.500 L 157.500 51.500 153.944 51.500 C 151.989 51.500,150.339 51.550,150.278 51.611 M315.833 54.500 L 315.833 57.500 319.417 57.500 L 323.000 57.500 323.000 54.500 L 323.000 51.500 319.417 51.500 L 315.833 51.500 315.833 54.500 M61.162 53.122 L 60.917 54.244 58.845 55.789 L 56.773 57.333 59.052 57.333 L 61.332 57.333 62.447 55.625 C 63.060 54.685,63.561 53.804,63.561 53.667 C 63.560 53.529,63.546 53.098,63.530 52.708 L 63.500 52.000 62.454 52.000 L 61.407 52.000 61.162 53.122 M270.000 57.667 L 270.000 61.667 267.833 61.667 L 265.667 61.667 265.667 64.083 L 265.667 66.500 267.826 66.500 L 269.986 66.500 270.035 75.208 C 270.093 85.708,270.204 86.190,272.860 87.471 C 274.613 88.318,280.258 88.808,282.208 88.284 L 282.667 88.160 282.667 85.372 L 282.667 82.583 280.761 82.635 C 277.184 82.732,277.333 83.118,277.333 73.755 L 277.333 66.500 280.000 66.500 L 282.667 66.500 282.667 64.083 L 282.667 61.667 280.000 61.667 L 277.333 61.667 277.333 57.667 L 277.333 53.667 273.667 53.667 L 270.000 53.667 270.000 57.667 M13.833 60.084 C 13.833 60.754,17.330 65.620,19.314 67.709 C 35.186 84.431,62.671 81.171,74.123 61.208 L 74.816 60.000 44.325 60.000 C 27.555 60.000,13.833 60.038,13.833 60.084 M117.533 63.594 C 118.065 65.146,119.035 67.954,119.687 69.833 C 120.340 71.712,120.911 73.419,120.956 73.625 L 121.039 74.000 116.353 74.000 C 113.234 74.000,111.667 73.942,111.667 73.827 C 111.667 73.673,114.894 64.483,115.674 62.417 C 115.847 61.958,116.037 61.374,116.097 61.118 C 116.293 60.285,116.549 60.726,117.533 63.594 M176.406 61.171 C 174.499 61.549,172.911 62.499,171.294 64.228 L 170.339 65.250 170.336 63.458 L 170.333 61.667 166.917 61.667 L 163.500 61.667 163.500 74.917 L 163.500 88.167 167.083 88.167 L 170.667 88.167 170.668 80.292 C 170.670 70.304,170.806 69.433,172.620 67.836 C 174.448 66.227,177.970 66.319,179.173 68.008 C 180.053 69.245,180.067 69.402,180.128 79.125 L 180.185 88.167 183.750 88.167 L 187.314 88.167 187.376 79.542 C 187.443 70.190,187.438 70.238,188.406 68.586 C 190.022 65.830,194.693 65.978,196.190 68.833 L 196.583 69.583 196.630 78.875 L 196.677 88.167 200.346 88.167 L 204.014 88.167 203.963 78.042 C 203.906 66.835,203.915 66.928,202.721 64.885 C 199.923 60.096,191.925 59.555,187.616 63.864 C 186.890 64.590,186.279 65.162,186.258 65.134 C 186.238 65.106,185.992 64.746,185.711 64.333 C 183.871 61.622,180.281 60.402,176.406 61.171 M218.512 61.178 C 205.334 63.523,203.652 83.700,216.272 88.069 C 223.590 90.603,231.790 86.957,233.425 80.441 L 233.536 80.000 230.372 80.000 L 227.207 80.000 226.998 80.504 C 225.811 83.370,220.175 84.326,217.195 82.168 C 216.054 81.341,215.000 79.053,215.000 77.402 L 215.000 76.667 224.609 76.667 L 234.217 76.667 234.117 74.625 C 233.661 65.302,227.102 59.650,218.512 61.178 M251.357 61.179 C 249.458 61.553,247.531 62.841,245.769 64.917 L 245.344 65.417 245.339 63.542 L 245.333 61.667 241.917 61.667 L 238.500 61.667 238.500 74.917 L 238.500 88.167 242.083 88.167 L 245.667 88.167 245.670 80.875 C 245.674 70.844,245.845 69.639,247.502 67.982 C 249.185 66.299,252.964 66.186,254.548 67.770 C 255.980 69.202,256.156 70.616,256.162 80.708 L 256.167 88.167 259.759 88.167 L 263.351 88.167 263.294 78.542 C 263.225 66.751,263.021 65.512,260.771 63.262 C 258.952 61.443,254.747 60.513,251.357 61.179 M294.917 61.185 C 289.790 61.924,286.551 64.755,285.928 69.042 L 285.813 69.833 289.403 69.833 L 292.994 69.833 293.094 69.375 C 293.642 66.884,295.128 65.803,298.014 65.797 C 300.890 65.791,302.352 66.676,302.588 68.566 C 302.930 71.299,301.590 72.108,295.803 72.666 C 292.078 73.024,289.282 73.864,287.544 75.145 C 284.379 77.478,284.173 83.584,287.161 86.494 C 290.417 89.666,298.037 89.590,302.112 86.346 L 302.960 85.670 303.192 86.877 L 303.424 88.083 307.107 88.128 L 310.791 88.173 310.480 87.231 C 309.966 85.673,309.834 83.140,309.830 74.750 C 309.825 65.786,309.833 65.850,308.516 64.187 C 306.534 61.685,300.574 60.369,294.917 61.185 M342.021 61.263 C 339.779 61.866,337.369 63.720,336.389 65.596 C 335.716 66.883,335.667 66.779,335.667 64.083 L 335.667 61.667 332.250 61.667 L 328.833 61.667 328.833 74.917 L 328.833 88.167 332.500 88.167 L 336.167 88.167 336.167 81.175 C 336.167 73.543,336.208 73.100,337.097 71.226 C 338.302 68.687,340.068 67.748,343.625 67.754 L 345.833 67.758 345.833 64.482 C 345.833 61.225,345.831 61.205,345.458 61.105 C 344.800 60.929,342.947 61.014,342.021 61.263 M357.461 61.161 C 344.686 63.486,342.586 82.828,354.567 87.816 C 361.353 90.641,368.747 88.111,371.772 81.929 C 372.797 79.834,373.005 80.000,369.354 80.000 L 366.207 80.000 365.998 80.506 C 365.486 81.741,363.285 83.090,361.432 83.303 C 357.076 83.804,354.425 81.739,353.931 77.458 L 353.840 76.667 363.417 76.667 L 372.994 76.667 373.109 76.208 C 373.399 75.060,372.676 70.753,371.843 68.667 C 369.636 63.137,363.681 60.029,357.461 61.161 M384.154 61.163 C 378.978 61.830,375.978 64.789,375.953 69.250 C 375.931 73.280,378.103 75.070,384.841 76.577 C 391.525 78.071,393.245 79.158,392.500 81.416 C 391.198 85.363,383.165 84.658,382.311 80.522 L 382.100 79.500 378.717 79.500 L 375.333 79.500 375.333 80.031 C 375.333 85.183,380.458 88.839,387.667 88.829 C 395.331 88.819,399.814 85.470,399.830 79.743 C 399.843 75.202,397.655 73.642,388.285 71.513 C 384.522 70.657,383.351 69.934,383.217 68.383 C 382.898 64.677,391.539 64.893,392.095 68.605 L 392.205 69.333 395.686 69.333 C 397.600 69.333,399.167 69.292,399.167 69.241 C 399.167 63.579,392.644 60.069,384.154 61.163 M150.167 74.917 L 150.167 88.167 153.833 88.167 L 157.500 88.167 157.500 74.917 L 157.500 61.667 153.833 61.667 L 150.167 61.667 150.167 74.917 M315.833 74.917 L 315.833 88.167 319.417 88.167 L 323.000 88.167 323.000 74.917 L 323.000 61.667 319.417 61.667 L 315.833 61.667 315.833 74.917 M223.333 66.762 C 225.012 67.424,226.833 70.057,226.833 71.821 C 226.833 71.945,225.021 72.000,220.917 72.000 L 215.000 72.000 215.000 71.502 C 215.000 67.964,219.662 65.313,223.333 66.762 M362.459 66.831 C 363.875 67.441,365.148 69.114,365.566 70.917 C 365.630 71.192,365.721 71.548,365.769 71.708 C 365.851 71.982,365.491 72.000,359.841 72.000 L 353.827 72.000 353.928 71.542 C 354.867 67.296,358.664 65.199,362.459 66.831 M302.630 77.917 C 302.476 82.270,300.839 83.917,296.667 83.917 C 293.581 83.917,292.292 82.930,292.292 80.569 C 292.292 78.014,293.662 77.128,298.833 76.338 C 300.233 76.125,301.367 75.854,301.833 75.622 C 302.759 75.163,302.731 75.081,302.630 77.917 " stroke="none" fill="#fc7c04" fill-rule="evenodd"></path><path id="path1" d="M88.625 44.125 L 88.583 88.250 44.292 88.292 C 0.139 88.334,-0.000 88.335,-0.000 88.667 C -0.000 89.000,0.137 89.000,110.208 88.977 C 170.823 88.964,219.854 88.898,219.167 88.831 C 211.675 88.096,206.744 81.369,207.671 73.146 C 209.270 58.965,228.199 56.014,233.193 69.167 C 233.894 71.012,234.489 74.866,234.262 76.080 L 234.152 76.667 224.565 76.667 C 215.514 76.667,214.982 76.683,215.058 76.958 C 215.103 77.119,215.190 77.698,215.253 78.246 C 215.616 81.426,218.660 83.759,221.801 83.264 C 222.048 83.225,222.588 83.141,223.000 83.076 C 224.555 82.834,226.465 81.492,227.034 80.241 L 227.220 79.833 230.443 79.833 C 234.094 79.833,233.889 79.728,233.257 81.283 C 231.475 85.670,227.911 88.402,223.417 88.826 C 222.683 88.896,238.096 88.952,257.667 88.952 C 277.237 88.953,292.756 88.902,292.152 88.840 C 287.596 88.373,285.089 85.592,285.085 81.000 C 285.083 77.642,285.802 76.101,288.049 74.648 C 289.819 73.504,291.269 73.131,296.667 72.429 C 302.075 71.725,303.430 70.600,302.256 67.790 C 300.871 64.476,293.847 65.495,293.344 69.083 L 293.250 69.750 289.542 69.795 L 285.833 69.840 285.833 69.113 C 285.833 66.544,287.850 63.730,290.667 62.369 C 295.970 59.808,304.986 60.486,308.188 63.688 C 309.948 65.448,309.892 65.076,310.014 75.833 C 310.119 85.102,310.216 86.634,310.762 87.689 L 311.009 88.167 307.177 88.167 L 303.346 88.167 303.190 87.542 C 303.104 87.198,302.986 86.708,302.929 86.453 L 302.824 85.990 302.287 86.396 C 300.473 87.767,298.302 88.617,296.083 88.826 C 295.350 88.896,309.300 88.952,327.083 88.951 C 344.867 88.950,358.854 88.898,358.167 88.835 C 344.940 87.625,342.032 67.763,354.250 62.081 C 363.645 57.712,373.163 64.233,373.166 75.042 L 373.167 76.667 363.583 76.667 C 356.025 76.667,354.001 76.711,354.006 76.875 C 354.056 78.672,354.936 80.950,355.911 81.806 C 358.668 84.227,364.018 83.554,365.769 80.566 L 366.198 79.833 369.433 79.833 C 373.202 79.833,372.991 79.670,371.980 81.802 C 369.960 86.059,366.746 88.401,362.333 88.832 C 361.646 88.899,366.896 88.953,374.000 88.952 C 381.104 88.951,386.242 88.897,385.417 88.834 C 379.815 88.400,376.032 85.407,375.325 80.851 C 375.121 79.538,375.184 79.307,375.717 79.407 C 375.918 79.444,377.490 79.481,379.208 79.488 L 382.333 79.500 382.333 79.896 C 382.333 83.973,390.689 85.512,392.271 81.726 C 393.269 79.338,390.697 77.692,384.250 76.592 C 378.736 75.652,375.821 73.127,375.839 69.308 C 375.866 63.703,379.676 60.924,387.333 60.924 C 394.459 60.924,398.596 63.586,399.110 68.501 L 399.214 69.500 395.722 69.500 L 392.230 69.500 391.936 68.520 C 390.874 64.973,383.333 64.797,383.333 68.319 C 383.333 69.970,384.634 70.616,390.583 71.919 C 396.660 73.249,399.375 75.101,399.833 78.227 C 399.902 78.698,399.968 61.290,399.979 39.542 L 400.000 0.000 260.042 0.023 C 183.065 0.035,120.533 0.098,121.083 0.161 C 126.370 0.774,129.333 3.956,129.333 9.021 C 129.333 12.241,128.054 14.609,125.444 16.216 C 124.665 16.697,124.619 16.990,125.324 16.997 C 126.973 17.015,129.860 20.154,130.691 22.833 C 132.588 28.951,129.170 34.507,122.440 36.243 L 120.797 36.667 110.482 36.667 L 100.167 36.667 100.167 18.333 L 100.167 0.000 94.417 0.000 L 88.667 0.000 88.625 44.125 M108.500 10.602 L 108.500 14.870 113.292 14.801 C 120.055 14.704,121.336 14.012,121.332 10.464 C 121.327 7.097,119.686 6.349,112.292 6.338 L 108.500 6.333 108.500 10.602 M41.250 7.345 C 13.631 9.229,-2.002 41.276,13.395 64.448 C 31.953 92.377,74.970 83.286,80.761 50.211 C 84.879 26.693,65.519 5.690,41.250 7.345 M153.667 9.872 C 157.555 10.877,159.504 12.713,159.994 15.833 C 160.092 16.457,160.167 20.417,160.171 25.167 C 160.178 33.443,160.287 35.313,160.821 36.311 L 161.012 36.667 157.192 36.667 L 153.373 36.667 153.186 35.926 C 153.084 35.519,153.000 34.992,153.000 34.756 C 153.000 34.326,152.999 34.326,152.134 35.010 C 146.426 39.522,136.779 37.736,135.264 31.886 C 133.523 25.169,137.158 21.860,147.389 20.847 C 151.930 20.398,153.494 18.826,152.155 16.059 C 150.689 13.031,143.842 14.174,143.398 17.521 L 143.290 18.333 139.562 18.333 L 135.833 18.333 135.833 17.785 C 135.833 13.647,139.451 10.522,145.500 9.434 C 146.848 9.192,152.129 9.475,153.667 9.872 M185.362 9.914 C 190.342 11.630,190.991 13.700,190.997 27.875 L 191.000 36.667 187.262 36.667 L 183.524 36.667 183.459 27.958 C 183.389 18.538,183.370 18.325,182.457 16.891 C 181.038 14.662,176.332 14.727,174.687 16.998 C 173.491 18.650,173.345 19.971,173.338 29.208 L 173.333 36.667 169.582 36.667 L 165.831 36.667 165.874 23.375 L 165.917 10.083 169.417 10.083 L 172.917 10.083 173.009 11.917 C 173.059 12.925,173.116 13.662,173.134 13.555 C 173.261 12.805,175.949 10.585,177.370 10.057 C 179.744 9.175,183.045 9.116,185.362 9.914 M211.955 9.884 C 213.503 10.433,214.869 11.344,215.679 12.369 L 216.321 13.181 216.369 11.632 L 216.417 10.083 219.917 10.083 L 223.417 10.083 223.459 28.042 L 223.501 46.000 219.751 46.000 L 216.000 46.000 216.000 39.828 L 216.000 33.655 215.458 34.281 C 210.888 39.563,201.461 38.096,198.045 31.571 C 194.807 25.384,196.283 15.577,201.015 11.837 C 204.043 9.444,208.478 8.652,211.955 9.884 M274.667 9.837 C 280.228 11.480,283.833 16.880,283.833 23.568 L 283.833 25.167 274.227 25.167 L 264.620 25.167 264.717 26.108 C 265.048 29.311,266.792 31.258,269.702 31.672 C 272.563 32.080,275.142 31.085,276.405 29.087 L 276.886 28.326 280.068 28.371 L 283.250 28.417 283.192 28.833 C 282.781 31.805,278.982 35.732,275.447 36.839 C 266.479 39.647,258.142 34.306,257.291 25.206 C 256.535 17.125,260.736 11.087,268.223 9.497 C 269.494 9.227,273.276 9.427,274.667 9.837 M303.667 9.877 C 307.418 10.950,309.675 13.080,310.408 16.237 C 310.860 18.188,311.193 18.013,307.128 17.962 L 303.589 17.917 303.489 17.300 C 302.901 13.682,294.814 13.150,294.839 16.731 C 294.847 17.778,295.231 18.303,296.417 18.886 C 297.197 19.269,298.174 19.532,302.750 20.591 C 309.450 22.142,311.960 24.687,311.319 29.281 C 310.558 34.740,306.580 37.397,299.167 37.399 C 291.787 37.401,287.209 34.327,286.715 29.039 L 286.618 27.993 290.171 28.038 L 293.724 28.083 293.920 29.068 C 294.776 33.354,303.494 33.584,303.801 29.329 C 303.928 27.575,302.589 26.708,298.167 25.680 C 289.054 23.564,287.409 22.337,287.424 17.667 C 287.438 12.960,290.035 10.409,295.750 9.487 C 297.489 9.207,302.122 9.435,303.667 9.877 M48.667 9.988 C 58.388 11.255,66.625 16.200,72.479 24.284 C 79.016 33.310,80.590 45.741,76.542 56.375 L 76.114 57.500 69.140 57.500 C 65.305 57.500,62.167 57.466,62.167 57.425 C 62.167 57.384,62.380 57.028,62.640 56.633 C 64.464 53.873,64.360 54.105,64.316 52.884 L 64.275 51.754 64.846 51.582 C 67.186 50.880,68.973 48.457,69.851 44.793 C 70.288 42.974,70.525 42.483,71.625 41.119 C 73.087 39.307,73.663 38.313,74.476 36.201 C 75.235 34.226,75.232 33.802,74.457 33.637 C 73.529 33.441,69.952 31.980,67.998 30.999 L 66.288 30.141 66.404 31.529 C 66.468 32.292,66.665 33.868,66.843 35.031 C 67.470 39.127,67.306 39.499,64.883 39.501 C 62.424 39.503,61.091 39.802,57.118 41.242 C 55.054 41.990,54.788 41.986,53.844 41.199 C 50.772 38.638,47.286 40.420,46.857 44.770 C 46.760 45.756,46.512 46.797,46.116 47.888 L 45.520 49.525 45.968 49.235 C 46.215 49.076,46.791 48.695,47.248 48.389 C 48.855 47.314,51.490 47.768,55.793 49.862 C 57.284 50.587,58.990 51.301,59.585 51.448 C 60.782 51.743,60.789 51.755,60.453 53.050 C 60.252 53.823,60.161 53.912,57.761 55.675 L 55.278 57.500 52.806 57.500 C 51.446 57.500,50.333 57.468,50.333 57.429 C 50.333 57.391,50.624 57.072,50.979 56.721 C 52.146 55.569,53.333 53.000,53.333 51.628 C 53.333 51.350,52.825 51.333,44.167 51.333 L 35.000 51.333 35.002 51.875 C 35.007 53.327,35.899 55.320,37.107 56.581 C 38.041 57.556,38.096 57.500,36.192 57.500 L 34.551 57.500 31.851 55.400 L 29.152 53.300 29.201 52.281 L 29.250 51.263 30.457 50.896 C 32.962 50.136,35.281 48.716,37.509 46.579 C 39.477 44.692,41.044 44.397,43.374 45.475 L 44.831 46.150 44.324 45.283 C 43.323 43.571,42.869 42.568,42.680 41.652 C 41.884 37.800,37.572 36.340,35.334 39.165 C 34.407 40.336,34.243 40.368,31.576 39.893 C 28.617 39.366,25.292 39.230,23.250 39.552 C 20.736 39.949,20.646 39.793,20.483 34.750 C 20.418 32.733,20.358 31.059,20.349 31.030 C 20.341 31.001,20.101 31.151,19.816 31.364 C 18.627 32.251,18.308 32.474,16.489 33.685 C 15.441 34.383,14.191 35.152,13.712 35.394 C 12.862 35.824,12.846 35.846,13.043 36.292 C 14.029 38.526,15.872 40.964,17.714 42.473 C 18.692 43.274,19.020 43.672,19.472 44.604 C 21.501 48.787,22.588 50.148,24.637 51.070 L 25.349 51.391 25.320 52.945 L 25.291 54.499 26.405 55.643 C 27.018 56.272,27.632 56.948,27.770 57.145 L 28.021 57.503 20.219 57.460 L 12.417 57.417 11.864 55.933 C 2.934 31.953,23.188 6.668,48.667 9.988 M236.336 19.000 C 236.429 28.727,236.406 28.498,237.434 30.054 C 238.711 31.989,243.037 32.041,244.753 30.141 C 246.290 28.440,246.374 27.868,246.486 18.333 L 246.583 10.083 249.917 10.036 C 251.750 10.010,253.419 10.030,253.625 10.081 L 254.000 10.173 254.000 23.420 L 254.000 36.667 250.417 36.667 L 246.833 36.667 246.828 34.875 L 246.823 33.083 246.466 33.583 C 242.653 38.927,232.843 38.765,230.074 33.313 C 228.953 31.107,228.933 30.883,228.873 20.182 C 228.843 14.827,228.857 10.345,228.905 10.220 C 228.975 10.037,229.685 10.002,232.621 10.038 L 236.250 10.083 236.336 19.000 M208.704 15.167 C 204.895 15.973,202.778 21.399,204.179 26.760 C 205.941 33.500,213.982 33.626,215.852 26.944 C 217.752 20.152,214.041 14.037,208.704 15.167 M269.059 15.162 C 266.828 15.639,265.102 17.487,264.737 19.792 L 264.624 20.500 270.462 20.500 L 276.300 20.500 276.008 19.363 C 275.150 16.029,272.501 14.428,269.059 15.162 M108.500 25.406 L 108.500 30.333 113.010 30.333 C 117.910 30.333,119.496 30.175,120.698 29.567 C 123.787 28.004,123.561 22.764,120.331 21.065 L 119.417 20.583 113.958 20.531 L 108.500 20.479 108.500 25.406 M151.309 24.454 C 150.699 24.657,149.347 24.936,148.304 25.073 C 143.768 25.667,142.359 26.731,142.531 29.431 C 142.660 31.463,143.933 32.333,146.774 32.333 C 150.681 32.333,152.340 30.711,152.470 26.762 C 152.565 23.849,152.645 24.007,151.309 24.454 M28.528 52.554 L 28.476 53.583 29.361 54.250 C 30.277 54.940,33.364 57.324,33.486 57.436 C 33.524 57.471,32.512 57.495,31.236 57.489 L 28.917 57.478 27.375 55.804 L 25.833 54.130 25.833 52.822 L 25.833 51.514 27.125 51.465 C 28.705 51.406,28.590 51.317,28.528 52.554 M121.813 54.378 C 122.398 55.957,123.283 58.337,123.780 59.667 C 124.276 60.996,124.975 62.871,125.333 63.833 C 125.691 64.796,126.351 66.558,126.799 67.750 C 127.247 68.942,127.894 70.667,128.236 71.583 C 128.578 72.500,129.185 74.112,129.583 75.167 C 129.982 76.221,130.576 77.810,130.903 78.698 C 131.230 79.586,131.569 80.486,131.656 80.698 C 131.743 80.910,132.201 82.133,132.673 83.417 C 133.145 84.700,133.712 86.213,133.932 86.778 C 134.153 87.344,134.333 87.888,134.333 87.987 C 134.333 88.111,133.021 88.167,130.106 88.167 L 125.879 88.167 125.621 87.458 C 125.480 87.069,124.975 85.587,124.500 84.167 C 124.025 82.746,123.520 81.265,123.379 80.875 L 123.121 80.167 116.327 80.167 L 109.533 80.167 109.336 80.708 C 108.959 81.746,107.312 86.422,107.032 87.250 L 106.750 88.083 102.523 88.128 C 98.537 88.170,98.302 88.156,98.416 87.878 C 98.632 87.351,100.181 83.272,100.491 82.417 C 100.657 81.958,101.058 80.908,101.382 80.083 C 101.705 79.258,102.251 77.833,102.594 76.917 C 102.937 76.000,103.436 74.688,103.703 74.000 C 103.971 73.313,104.249 72.563,104.322 72.333 C 104.394 72.104,104.609 71.542,104.798 71.083 C 104.987 70.625,105.563 69.125,106.077 67.750 C 106.592 66.375,107.117 64.987,107.245 64.667 C 107.373 64.346,108.015 62.658,108.672 60.917 C 110.113 57.098,110.499 56.081,111.045 54.667 C 111.275 54.071,111.640 53.116,111.857 52.544 L 112.250 51.505 116.500 51.505 L 120.750 51.505 121.813 54.378 M144.333 69.833 L 144.333 88.167 140.583 88.167 L 136.833 88.167 136.833 69.833 L 136.833 51.500 140.583 51.500 L 144.333 51.500 144.333 69.833 M157.500 54.587 L 157.500 57.673 153.792 57.628 L 150.083 57.583 150.038 54.542 L 149.992 51.500 153.746 51.500 L 157.500 51.500 157.500 54.587 M323.167 54.587 L 323.167 57.673 319.458 57.628 L 315.750 57.583 315.705 54.542 L 315.659 51.500 319.413 51.500 L 323.167 51.500 323.167 54.587 M63.710 52.792 C 63.790 53.698,63.756 53.809,63.096 54.833 C 62.712 55.429,62.177 56.270,61.907 56.702 L 61.417 57.488 58.948 57.494 C 57.591 57.497,56.516 57.444,56.559 57.375 C 56.602 57.306,57.210 56.837,57.909 56.333 C 60.765 54.276,60.793 54.247,61.007 53.203 C 61.115 52.679,61.229 52.156,61.263 52.042 C 61.303 51.901,61.696 51.833,62.474 51.833 L 63.625 51.833 63.710 52.792 M277.333 57.583 L 277.333 61.500 280.000 61.500 L 282.667 61.500 282.667 64.083 L 282.667 66.667 279.990 66.667 L 277.314 66.667 277.365 73.875 C 277.421 81.721,277.438 81.857,278.379 82.286 C 279.029 82.582,280.502 82.696,281.625 82.536 L 282.667 82.389 282.667 85.349 L 282.667 88.309 281.708 88.438 C 277.741 88.973,273.461 88.299,271.750 86.870 C 269.983 85.394,269.945 85.159,269.876 75.213 L 269.817 66.677 267.700 66.630 L 265.583 66.583 265.537 64.042 L 265.491 61.500 267.662 61.500 L 269.833 61.500 269.833 57.583 L 269.833 53.667 273.583 53.667 L 277.333 53.667 277.333 57.583 M74.833 60.043 C 74.833 60.356,73.074 63.252,72.072 64.588 C 60.943 79.421,40.643 83.013,25.250 72.873 C 20.917 70.018,16.896 65.758,14.398 61.376 C 13.996 60.669,13.667 60.033,13.667 59.962 C 13.667 59.891,27.429 59.833,44.250 59.833 C 68.692 59.833,74.833 59.875,74.833 60.043 M116.001 61.875 C 115.797 62.448,115.441 63.442,115.211 64.083 C 114.981 64.725,114.661 65.625,114.500 66.083 C 114.339 66.542,114.018 67.442,113.787 68.083 C 112.700 71.098,111.833 73.595,111.833 73.708 C 111.833 73.777,113.858 73.833,116.333 73.833 C 118.808 73.833,120.833 73.773,120.833 73.699 C 120.833 73.625,120.341 72.144,119.739 70.407 C 117.873 65.022,116.993 62.448,116.735 61.625 C 116.425 60.635,116.448 60.627,116.001 61.875 M182.000 61.339 C 183.692 61.931,185.343 63.216,185.954 64.417 C 186.095 64.692,186.225 64.936,186.245 64.960 C 186.265 64.984,186.839 64.456,187.520 63.786 C 192.220 59.161,200.555 60.009,203.084 65.370 C 204.098 67.519,204.167 68.374,204.167 78.855 L 204.167 88.167 200.428 88.167 L 196.690 88.167 196.617 79.292 C 196.575 74.128,196.474 70.113,196.375 69.691 C 195.429 65.648,189.618 65.689,187.985 69.750 L 187.583 70.750 187.535 79.458 L 187.486 88.167 183.750 88.167 L 180.013 88.167 179.965 78.958 L 179.917 69.750 179.417 68.750 C 178.184 66.284,174.319 66.033,172.333 68.290 C 170.907 69.910,170.924 69.777,170.867 79.542 L 170.817 88.167 167.074 88.167 L 163.331 88.167 163.374 74.875 L 163.417 61.583 166.917 61.583 L 170.417 61.583 170.464 63.181 L 170.511 64.779 171.632 63.678 C 172.890 62.442,174.106 61.700,175.583 61.265 C 176.133 61.104,176.658 60.942,176.750 60.906 C 177.314 60.683,180.995 60.987,182.000 61.339 M257.010 61.184 C 259.593 61.829,261.218 63.084,262.239 65.226 C 263.347 67.550,263.500 69.364,263.500 80.200 L 263.500 88.167 259.750 88.167 L 256.000 88.167 255.996 80.708 C 255.990 70.439,255.819 69.112,254.335 67.772 C 252.775 66.362,249.389 66.416,247.724 67.878 C 246.036 69.361,245.846 70.616,245.839 80.375 L 245.833 88.167 242.083 88.167 L 238.333 88.167 238.333 74.830 L 238.333 61.493 241.875 61.538 L 245.417 61.583 245.500 63.306 L 245.583 65.029 246.083 64.342 C 248.182 61.460,252.784 60.130,257.010 61.184 M345.625 60.938 C 345.999 61.039,346.000 61.051,346.000 64.510 L 346.000 67.981 344.264 67.883 C 340.521 67.671,338.319 68.764,337.093 71.443 C 336.366 73.030,336.302 73.744,336.217 81.125 L 336.136 88.167 332.400 88.167 L 328.665 88.167 328.707 74.875 L 328.750 61.583 332.292 61.538 L 335.833 61.493 335.835 63.872 L 335.836 66.250 336.318 65.417 C 338.090 62.349,342.668 60.146,345.625 60.938 M157.500 74.833 L 157.500 88.167 153.750 88.167 L 150.000 88.167 150.000 74.944 C 150.000 67.672,150.050 61.672,150.111 61.611 C 150.172 61.550,151.860 61.500,153.861 61.500 L 157.500 61.500 157.500 74.833 M323.167 74.833 L 323.167 88.167 319.417 88.167 L 315.667 88.167 315.667 74.944 C 315.667 67.672,315.717 61.672,315.778 61.611 C 315.839 61.550,317.526 61.500,319.528 61.500 L 323.167 61.500 323.167 74.833 M219.391 66.663 C 217.269 67.116,215.611 68.886,215.203 71.135 L 215.046 72.000 220.856 72.000 C 224.052 72.000,226.667 71.955,226.667 71.899 C 226.667 68.426,223.112 65.867,219.391 66.663 M358.235 66.678 C 356.408 67.119,354.738 68.788,354.328 70.583 C 354.223 71.042,354.102 71.548,354.058 71.708 C 353.982 71.982,354.337 72.000,359.833 72.000 C 365.330 72.000,365.684 71.982,365.607 71.708 C 365.562 71.548,365.473 71.154,365.409 70.833 C 364.785 67.705,361.607 65.864,358.235 66.678 M301.327 75.948 C 300.727 76.148,299.377 76.425,298.327 76.564 C 293.552 77.192,291.982 78.502,292.510 81.417 C 292.827 83.165,294.276 83.909,297.165 83.804 C 300.967 83.667,302.577 81.719,302.464 77.391 L 302.417 75.583 301.327 75.948 M399.833 81.080 C 399.833 84.990,395.531 88.412,390.083 88.834 C 389.117 88.908,390.616 88.959,394.292 88.975 L 400.000 89.000 400.000 84.667 C 400.000 82.283,399.962 80.333,399.917 80.333 C 399.871 80.333,399.833 80.669,399.833 81.080 " stroke="none" fill="#fcfbfb" fill-rule="evenodd"></path><path id="path2" d="M88.415 43.917 C 88.415 68.117,88.435 77.992,88.458 65.862 C 88.482 53.731,88.482 33.931,88.458 21.862 C 88.435 9.792,88.415 19.717,88.415 43.917 M127.000 2.917 C 127.311 3.237,127.603 3.500,127.649 3.500 C 127.695 3.500,127.478 3.237,127.167 2.917 C 126.856 2.596,126.564 2.333,126.518 2.333 C 126.472 2.333,126.689 2.596,127.000 2.917 M40.708 7.282 C 40.869 7.323,41.131 7.323,41.292 7.282 C 41.452 7.240,41.321 7.205,41.000 7.205 C 40.679 7.205,40.548 7.240,40.708 7.282 M129.225 9.000 C 129.225 9.779,129.254 10.098,129.289 9.708 C 129.324 9.319,129.324 8.681,129.289 8.292 C 129.254 7.902,129.225 8.221,129.225 9.000 M148.544 9.453 C 148.797 9.491,149.172 9.490,149.377 9.451 C 149.582 9.411,149.375 9.380,148.917 9.381 C 148.458 9.382,148.291 9.415,148.544 9.453 M180.875 9.453 C 181.127 9.491,181.540 9.491,181.792 9.453 C 182.044 9.415,181.838 9.383,181.333 9.383 C 180.829 9.383,180.623 9.415,180.875 9.453 M208.375 9.448 C 208.535 9.490,208.798 9.490,208.958 9.448 C 209.119 9.406,208.987 9.372,208.667 9.372 C 208.346 9.372,208.215 9.406,208.375 9.448 M298.458 9.451 C 298.665 9.491,299.002 9.491,299.208 9.451 C 299.415 9.411,299.246 9.379,298.833 9.379 C 298.421 9.379,298.252 9.411,298.458 9.451 M43.629 9.789 C 44.021 9.824,44.621 9.824,44.963 9.788 C 45.304 9.752,44.983 9.723,44.250 9.724 C 43.517 9.724,43.237 9.754,43.629 9.789 M172.861 11.958 C 172.846 12.990,172.890 13.834,172.958 13.834 C 173.027 13.834,173.063 13.253,173.038 12.542 C 172.958 10.259,172.890 10.034,172.861 11.958 M223.414 28.083 C 223.414 37.983,223.434 42.009,223.458 37.029 C 223.483 32.049,223.483 23.949,223.458 19.029 C 223.434 14.109,223.414 18.183,223.414 28.083 M228.911 18.833 C 228.911 23.646,228.932 25.615,228.958 23.208 C 228.984 20.802,228.984 16.865,228.958 14.458 C 228.932 12.052,228.911 14.021,228.911 18.833 M147.794 14.285 C 148.001 14.324,148.301 14.323,148.460 14.281 C 148.620 14.239,148.450 14.207,148.083 14.209 C 147.717 14.211,147.586 14.245,147.794 14.285 M298.375 14.282 C 298.535 14.323,298.798 14.323,298.958 14.282 C 299.119 14.240,298.987 14.205,298.667 14.205 C 298.346 14.205,298.215 14.240,298.375 14.282 M108.478 14.878 C 108.548 14.948,110.476 14.986,112.761 14.961 L 116.917 14.916 112.633 14.833 C 110.277 14.787,108.407 14.808,108.478 14.878 M209.708 14.953 C 209.960 14.991,210.373 14.991,210.625 14.953 C 210.877 14.915,210.671 14.883,210.167 14.883 C 209.662 14.883,209.456 14.915,209.708 14.953 M270.128 14.954 C 270.428 14.991,270.878 14.990,271.128 14.952 C 271.378 14.914,271.133 14.884,270.583 14.885 C 270.033 14.886,269.828 14.917,270.128 14.954 M68.833 16.385 C 68.833 16.414,69.077 16.658,69.375 16.927 L 69.917 17.417 69.427 16.875 C 68.971 16.370,68.833 16.257,68.833 16.385 M17.910 18.042 L 17.083 18.917 17.958 18.090 C 18.440 17.635,18.833 17.241,18.833 17.215 C 18.833 17.090,18.679 17.229,17.910 18.042 M310.500 17.639 C 310.500 17.780,309.544 17.844,307.042 17.871 L 303.583 17.909 306.988 17.958 C 310.159 18.004,310.970 17.914,310.614 17.558 C 310.551 17.496,310.500 17.532,310.500 17.639 M20.667 19.083 C 20.262 19.496,19.968 19.833,20.014 19.833 C 20.060 19.833,20.428 19.496,20.833 19.083 C 21.238 18.671,21.532 18.333,21.486 18.333 C 21.440 18.333,21.072 18.671,20.667 19.083 M128.417 19.167 C 128.775 19.533,129.105 19.833,129.151 19.833 C 129.197 19.833,128.941 19.533,128.583 19.167 C 128.225 18.800,127.895 18.500,127.849 18.500 C 127.803 18.500,128.059 18.800,128.417 19.167 M71.667 19.250 C 71.978 19.571,72.270 19.833,72.315 19.833 C 72.361 19.833,72.144 19.571,71.833 19.250 C 71.522 18.929,71.230 18.667,71.185 18.667 C 71.139 18.667,71.356 18.929,71.667 19.250 M183.577 28.667 C 183.577 33.112,183.599 34.931,183.625 32.708 C 183.651 30.485,183.651 26.848,183.625 24.625 C 183.599 22.402,183.577 24.221,183.577 28.667 M173.244 29.000 C 173.244 33.262,173.265 35.006,173.292 32.875 C 173.318 30.744,173.318 27.256,173.292 25.125 C 173.265 22.994,173.244 24.738,173.244 29.000 M196.392 23.583 C 196.392 24.408,196.420 24.767,196.455 24.380 C 196.490 23.993,196.490 23.318,196.456 22.880 C 196.422 22.442,196.393 22.758,196.392 23.583 M257.218 23.417 C 257.219 23.967,257.250 24.172,257.287 23.872 C 257.325 23.572,257.324 23.122,257.286 22.872 C 257.248 22.622,257.217 22.867,257.218 23.417 M283.721 23.750 C 283.722 24.392,283.752 24.634,283.788 24.288 C 283.824 23.942,283.824 23.417,283.787 23.121 C 283.750 22.825,283.721 23.108,283.721 23.750 M286.686 28.375 C 286.700 28.652,286.725 28.675,286.781 28.462 C 286.849 28.202,287.200 28.169,290.303 28.125 L 293.750 28.076 290.208 28.038 L 286.667 28.000 286.686 28.375 M110.885 30.458 C 112.243 30.486,114.418 30.486,115.719 30.458 C 117.019 30.430,115.908 30.407,113.250 30.407 C 110.592 30.407,109.528 30.430,110.885 30.458 M209.625 31.951 C 209.831 31.991,210.169 31.991,210.375 31.951 C 210.581 31.911,210.412 31.879,210.000 31.879 C 209.588 31.879,209.419 31.911,209.625 31.951 M270.625 31.951 C 270.831 31.991,271.169 31.991,271.375 31.951 C 271.581 31.911,271.412 31.879,271.000 31.879 C 270.587 31.879,270.419 31.911,270.625 31.951 M20.542 32.750 C 20.544 33.117,20.578 33.247,20.618 33.040 C 20.658 32.832,20.656 32.532,20.615 32.373 C 20.573 32.214,20.540 32.383,20.542 32.750 M308.909 34.208 L 308.250 34.917 308.958 34.258 C 309.348 33.895,309.667 33.577,309.667 33.550 C 309.667 33.423,309.522 33.550,308.909 34.208 M199.667 33.885 C 199.667 33.914,199.910 34.158,200.208 34.427 L 200.750 34.917 200.260 34.375 C 199.804 33.870,199.667 33.757,199.667 33.885 M38.375 37.615 C 38.535 37.657,38.798 37.657,38.958 37.615 C 39.119 37.573,38.987 37.539,38.667 37.539 C 38.346 37.539,38.215 37.573,38.375 37.615 M25.208 39.282 C 25.369 39.323,25.631 39.323,25.792 39.282 C 25.952 39.240,25.821 39.205,25.500 39.205 C 25.179 39.205,25.048 39.240,25.208 39.282 M26.875 39.282 C 27.035 39.323,27.298 39.323,27.458 39.282 C 27.619 39.240,27.488 39.205,27.167 39.205 C 26.846 39.205,26.715 39.240,26.875 39.282 M16.417 41.500 C 16.868 41.958,17.275 42.333,17.321 42.333 C 17.367 42.333,17.035 41.958,16.583 41.500 C 16.132 41.042,15.725 40.667,15.679 40.667 C 15.633 40.667,15.965 41.042,16.417 41.500 M7.235 44.167 C 7.235 45.679,7.260 46.298,7.291 45.542 C 7.322 44.785,7.322 43.548,7.291 42.792 C 7.260 42.035,7.235 42.654,7.235 44.167 M81.385 44.083 C 81.386 44.633,81.417 44.838,81.454 44.539 C 81.491 44.239,81.490 43.789,81.452 43.539 C 81.414 43.288,81.384 43.533,81.385 44.083 M37.000 47.083 C 36.595 47.496,36.301 47.833,36.347 47.833 C 36.393 47.833,36.762 47.496,37.167 47.083 C 37.572 46.671,37.865 46.333,37.819 46.333 C 37.774 46.333,37.405 46.671,37.000 47.083 M323.069 54.500 C 323.069 56.196,323.094 56.890,323.124 56.042 C 323.154 55.194,323.154 53.806,323.124 52.958 C 323.094 52.110,323.069 52.804,323.069 54.500 M62.449 51.954 L 63.482 52.015 63.549 52.675 L 63.616 53.336 63.600 52.626 L 63.583 51.917 62.500 51.905 L 61.417 51.894 62.449 51.954 M64.379 52.833 C 64.379 53.246,64.411 53.415,64.451 53.208 C 64.491 53.002,64.491 52.665,64.451 52.458 C 64.411 52.252,64.379 52.421,64.379 52.833 M25.833 53.657 C 25.833 53.926,25.893 54.184,25.965 54.228 C 26.038 54.273,26.067 54.053,26.030 53.738 C 25.948 53.038,25.833 52.990,25.833 53.657 M25.167 54.552 C 25.167 54.581,25.410 54.825,25.708 55.094 L 26.250 55.583 25.760 55.042 C 25.304 54.537,25.167 54.423,25.167 54.552 M27.333 55.719 C 27.333 55.748,27.577 55.991,27.875 56.260 L 28.417 56.750 27.927 56.208 C 27.471 55.703,27.333 55.590,27.333 55.719 M51.033 56.716 C 50.269 57.505,50.266 57.504,52.875 57.463 L 55.250 57.427 52.930 57.375 L 50.611 57.324 51.171 56.745 C 51.480 56.427,51.695 56.167,51.649 56.167 C 51.603 56.167,51.326 56.414,51.033 56.716 M27.477 57.040 C 27.693 57.314,27.296 57.332,20.061 57.375 L 12.417 57.420 20.125 57.460 C 24.466 57.483,27.833 57.436,27.833 57.354 C 27.833 57.273,27.702 57.105,27.542 56.979 C 27.278 56.772,27.272 56.778,27.477 57.040 M32.913 57.161 C 32.975 57.261,32.231 57.343,30.965 57.375 L 28.917 57.428 31.145 57.464 C 33.110 57.496,33.350 57.470,33.167 57.250 C 32.936 56.972,32.758 56.910,32.913 57.161 M56.667 57.375 C 56.667 57.444,57.712 57.500,58.990 57.500 C 60.268 57.500,61.348 57.444,61.391 57.375 C 61.433 57.306,60.388 57.250,59.067 57.250 C 57.747 57.250,56.667 57.306,56.667 57.375 M69.167 57.333 L 62.250 57.422 69.115 57.461 C 73.555 57.486,76.017 57.441,76.083 57.333 C 76.140 57.242,76.163 57.184,76.135 57.206 C 76.107 57.227,72.971 57.284,69.167 57.333 M35.464 57.456 C 35.948 57.490,36.698 57.490,37.131 57.456 C 37.563 57.421,37.167 57.394,36.250 57.394 C 35.333 57.395,34.980 57.423,35.464 57.456 M13.776 59.958 C 13.706 60.071,34.672 60.071,63.917 59.957 C 69.967 59.933,61.177 59.896,44.385 59.874 C 27.592 59.852,13.818 59.890,13.776 59.958 M178.211 60.953 C 178.464 60.991,178.839 60.990,179.044 60.951 C 179.249 60.911,179.042 60.880,178.583 60.881 C 178.125 60.882,177.957 60.915,178.211 60.953 M194.044 60.953 C 194.297 60.991,194.672 60.990,194.877 60.951 C 195.082 60.911,194.875 60.880,194.417 60.881 C 193.958 60.882,193.791 60.915,194.044 60.953 M220.877 60.953 C 221.131 60.991,221.506 60.990,221.711 60.951 C 221.916 60.911,221.708 60.880,221.250 60.881 C 220.792 60.882,220.624 60.915,220.877 60.953 M253.377 60.953 C 253.631 60.991,254.006 60.990,254.211 60.951 C 254.416 60.911,254.208 60.880,253.750 60.881 C 253.292 60.882,253.124 60.915,253.377 60.953 M297.792 60.954 C 298.090 60.991,298.577 60.991,298.875 60.954 C 299.173 60.917,298.929 60.887,298.333 60.887 C 297.737 60.887,297.494 60.917,297.792 60.954 M343.960 60.951 C 344.168 60.991,344.468 60.990,344.627 60.948 C 344.786 60.906,344.617 60.874,344.250 60.875 C 343.883 60.877,343.753 60.911,343.960 60.951 M359.708 60.953 C 359.960 60.991,360.373 60.991,360.625 60.953 C 360.877 60.915,360.671 60.883,360.167 60.883 C 359.662 60.883,359.456 60.915,359.708 60.953 M386.961 60.954 C 387.261 60.991,387.711 60.990,387.961 60.952 C 388.212 60.914,387.967 60.884,387.417 60.885 C 386.867 60.886,386.662 60.917,386.961 60.954 M345.548 61.106 C 345.824 61.187,345.843 61.447,345.798 64.589 C 345.772 66.456,345.808 67.926,345.879 67.855 C 346.212 67.521,345.932 61.089,345.583 61.053 C 345.312 61.026,345.305 61.035,345.548 61.106 M163.413 74.917 C 163.413 82.250,163.433 85.226,163.458 81.529 C 163.483 77.833,163.483 71.833,163.458 68.196 C 163.433 64.559,163.413 67.583,163.413 74.917 M238.413 74.917 C 238.413 82.250,238.433 85.226,238.458 81.529 C 238.483 77.833,238.483 71.833,238.458 68.196 C 238.433 64.559,238.413 67.583,238.413 74.917 M265.567 64.083 C 265.567 65.458,265.593 65.999,265.624 65.284 C 265.655 64.569,265.655 63.444,265.624 62.784 C 265.592 62.124,265.566 62.708,265.567 64.083 M323.079 74.917 C 323.079 82.250,323.100 85.226,323.125 81.529 C 323.150 77.833,323.150 71.833,323.125 68.196 C 323.100 64.559,323.079 67.583,323.079 74.917 M335.697 64.042 C 335.681 65.394,335.723 66.500,335.792 66.500 C 335.860 66.501,335.897 65.769,335.872 64.875 C 335.790 61.864,335.729 61.569,335.697 64.042 M350.575 64.708 L 349.917 65.417 350.625 64.758 C 351.284 64.145,351.410 64.000,351.284 64.000 C 351.257 64.000,350.938 64.319,350.575 64.708 M211.491 64.792 L 210.917 65.417 211.542 64.842 C 211.885 64.526,212.167 64.245,212.167 64.217 C 212.167 64.090,212.026 64.210,211.491 64.792 M359.042 66.448 C 359.202 66.490,359.465 66.490,359.625 66.448 C 359.785 66.406,359.654 66.372,359.333 66.372 C 359.012 66.372,358.881 66.406,359.042 66.448 M309.911 75.417 C 309.911 79.908,309.932 81.722,309.958 79.447 C 309.984 77.172,309.984 73.497,309.958 71.280 C 309.932 69.064,309.910 70.925,309.911 75.417 M19.917 68.500 C 20.461 69.050,20.944 69.500,20.990 69.500 C 21.035 69.500,20.628 69.050,20.083 68.500 C 19.539 67.950,19.056 67.500,19.010 67.500 C 18.965 67.500,19.372 67.950,19.917 68.500 M70.333 70.417 C 69.650 71.104,69.129 71.667,69.175 71.667 C 69.221 71.667,69.817 71.104,70.500 70.417 C 71.183 69.729,71.704 69.167,71.658 69.167 C 71.612 69.167,71.016 69.729,70.333 70.417 M187.375 72.417 C 187.377 72.783,187.411 72.914,187.451 72.706 C 187.491 72.499,187.490 72.199,187.448 72.040 C 187.406 71.880,187.374 72.050,187.375 72.417 M170.744 80.083 C 170.744 84.575,170.765 86.389,170.792 84.113 C 170.818 81.838,170.818 78.163,170.791 75.947 C 170.765 73.730,170.744 75.592,170.744 80.083 M256.077 80.417 C 256.077 84.725,256.098 86.511,256.125 84.386 C 256.151 82.262,256.151 78.737,256.125 76.553 C 256.099 74.370,256.077 76.108,256.077 80.417 M245.709 73.583 C 245.711 73.950,245.745 74.080,245.785 73.873 C 245.824 73.666,245.823 73.366,245.781 73.206 C 245.739 73.047,245.707 73.217,245.709 73.583 M392.539 80.667 C 392.539 80.987,392.573 81.119,392.615 80.958 C 392.657 80.798,392.657 80.535,392.615 80.375 C 392.573 80.215,392.539 80.346,392.539 80.667 M41.208 81.115 C 41.369 81.157,41.631 81.157,41.792 81.115 C 41.952 81.073,41.821 81.039,41.500 81.039 C 41.179 81.039,41.048 81.073,41.208 81.115 M46.708 81.115 C 46.869 81.157,47.131 81.157,47.292 81.115 C 47.452 81.073,47.321 81.039,47.000 81.039 C 46.679 81.039,46.548 81.073,46.708 81.115 M22.208 88.292 C 34.377 88.315,54.290 88.315,66.458 88.292 C 78.627 88.268,68.671 88.249,44.333 88.249 C 19.996 88.249,10.040 88.268,22.208 88.292 " stroke="none" fill="#fcbc7e" fill-rule="evenodd"></path><path id="path3" d="M88.582 44.083 C 88.582 68.375,88.601 78.288,88.625 66.112 C 88.649 53.935,88.649 34.060,88.625 21.945 C 88.601 9.829,88.582 19.792,88.582 44.083 M42.211 7.286 C 42.464 7.325,42.839 7.324,43.044 7.284 C 43.249 7.244,43.042 7.213,42.583 7.214 C 42.125 7.216,41.957 7.248,42.211 7.286 M45.625 7.284 C 45.831 7.324,46.169 7.324,46.375 7.284 C 46.581 7.245,46.413 7.212,46.000 7.212 C 45.587 7.212,45.419 7.245,45.625 7.284 M146.127 9.451 C 146.334 9.491,146.634 9.490,146.794 9.448 C 146.953 9.406,146.783 9.374,146.417 9.375 C 146.050 9.377,145.920 9.411,146.127 9.451 M150.044 9.453 C 150.297 9.491,150.672 9.490,150.877 9.451 C 151.082 9.411,150.875 9.380,150.417 9.381 C 149.958 9.382,149.791 9.415,150.044 9.453 M182.375 9.448 C 182.535 9.490,182.798 9.490,182.958 9.448 C 183.119 9.406,182.987 9.372,182.667 9.372 C 182.346 9.372,182.215 9.406,182.375 9.448 M209.375 9.448 C 209.535 9.490,209.798 9.490,209.958 9.448 C 210.119 9.406,209.987 9.372,209.667 9.372 C 209.346 9.372,209.215 9.406,209.375 9.448 M269.042 9.448 C 269.202 9.490,269.465 9.490,269.625 9.448 C 269.785 9.406,269.654 9.372,269.333 9.372 C 269.012 9.372,268.881 9.406,269.042 9.448 M296.794 9.451 C 297.001 9.491,297.301 9.490,297.460 9.448 C 297.620 9.406,297.450 9.374,297.083 9.375 C 296.717 9.377,296.586 9.411,296.794 9.451 M300.375 9.448 C 300.535 9.490,300.798 9.490,300.958 9.448 C 301.119 9.406,300.987 9.372,300.667 9.372 C 300.346 9.372,300.215 9.406,300.375 9.448 M167.717 10.124 C 168.708 10.154,170.283 10.154,171.217 10.124 C 172.152 10.095,171.342 10.070,169.417 10.071 C 167.492 10.071,166.727 10.095,167.717 10.124 M216.405 10.222 C 216.358 10.343,216.345 11.112,216.375 11.930 L 216.431 13.417 216.466 11.795 L 216.500 10.173 219.958 10.125 L 223.417 10.076 219.953 10.038 C 217.199 10.008,216.472 10.045,216.405 10.222 M232.540 10.123 L 236.163 10.173 236.209 18.128 L 236.255 26.083 236.252 18.083 L 236.250 10.083 232.583 10.078 L 228.917 10.073 232.540 10.123 M248.375 10.124 C 249.360 10.154,250.973 10.154,251.958 10.124 C 252.944 10.095,252.137 10.071,250.167 10.071 C 248.196 10.071,247.390 10.095,248.375 10.124 M253.913 23.417 C 253.913 30.750,253.933 33.726,253.958 30.029 C 253.983 26.333,253.983 20.333,253.958 16.696 C 253.933 13.059,253.913 16.083,253.913 23.417 M289.406 12.208 L 288.917 12.750 289.458 12.260 C 289.963 11.804,290.077 11.667,289.948 11.667 C 289.919 11.667,289.675 11.910,289.406 12.208 M200.242 12.542 L 199.583 13.250 200.292 12.591 C 200.681 12.229,201.000 11.910,201.000 11.883 C 201.000 11.757,200.855 11.883,200.242 12.542 M261.075 13.208 L 260.417 13.917 261.125 13.258 C 261.515 12.895,261.833 12.577,261.833 12.550 C 261.833 12.423,261.688 12.550,261.075 13.208 M294.709 16.750 C 294.711 17.117,294.745 17.247,294.785 17.040 C 294.824 16.832,294.823 16.532,294.781 16.373 C 294.739 16.214,294.707 16.383,294.709 16.750 M160.077 24.250 C 160.077 28.558,160.098 30.345,160.125 28.220 C 160.151 26.095,160.151 22.570,160.125 20.386 C 160.099 18.203,160.077 19.942,160.077 24.250 M152.545 17.833 C 152.545 18.246,152.578 18.415,152.618 18.208 C 152.657 18.002,152.657 17.665,152.618 17.458 C 152.578 17.252,152.545 17.421,152.545 17.833 M110.802 20.458 C 112.114 20.486,114.214 20.486,115.468 20.458 C 116.723 20.430,115.650 20.407,113.083 20.407 C 110.517 20.407,109.490 20.430,110.802 20.458 M203.717 23.500 C 203.717 24.004,203.748 24.210,203.786 23.958 C 203.824 23.706,203.824 23.294,203.786 23.042 C 203.748 22.790,203.717 22.996,203.717 23.500 M309.167 23.219 C 309.167 23.248,309.410 23.491,309.708 23.760 L 310.250 24.250 309.760 23.708 C 309.304 23.203,309.167 23.090,309.167 23.219 M152.563 25.667 C 152.563 26.721,152.590 27.152,152.623 26.625 C 152.656 26.098,152.656 25.235,152.623 24.708 C 152.590 24.181,152.563 24.613,152.563 25.667 M131.056 26.000 C 131.056 26.688,131.085 26.969,131.121 26.625 C 131.157 26.281,131.157 25.719,131.121 25.375 C 131.085 25.031,131.056 25.313,131.056 26.000 M277.833 28.448 C 280.471 28.567,283.296 28.573,283.225 28.458 C 283.182 28.390,281.708 28.348,279.948 28.366 C 278.189 28.384,277.237 28.421,277.833 28.448 M142.375 29.083 C 142.377 29.450,142.411 29.580,142.451 29.373 C 142.491 29.166,142.490 28.866,142.448 28.706 C 142.406 28.547,142.374 28.717,142.375 29.083 M146.121 32.454 C 146.417 32.490,146.942 32.491,147.288 32.455 C 147.634 32.419,147.392 32.389,146.750 32.388 C 146.108 32.387,145.825 32.417,146.121 32.454 M298.795 32.454 C 299.094 32.491,299.544 32.490,299.795 32.452 C 300.045 32.414,299.800 32.384,299.250 32.385 C 298.700 32.386,298.495 32.417,298.795 32.454 M20.564 35.917 C 20.564 37.017,20.591 37.445,20.624 36.868 C 20.656 36.292,20.656 35.392,20.623 34.868 C 20.590 34.345,20.563 34.817,20.564 35.917 M245.406 34.708 L 244.917 35.250 245.458 34.760 C 245.963 34.304,246.077 34.167,245.948 34.167 C 245.919 34.167,245.675 34.410,245.406 34.708 M142.794 37.451 C 143.001 37.491,143.301 37.490,143.460 37.448 C 143.620 37.406,143.450 37.374,143.083 37.375 C 142.717 37.377,142.586 37.411,142.794 37.451 M144.794 37.451 C 145.001 37.491,145.301 37.490,145.460 37.448 C 145.620 37.406,145.450 37.374,145.083 37.375 C 144.717 37.377,144.586 37.411,144.794 37.451 M206.542 37.448 C 206.702 37.490,206.965 37.490,207.125 37.448 C 207.285 37.406,207.154 37.372,206.833 37.372 C 206.512 37.372,206.381 37.406,206.542 37.448 M208.208 37.448 C 208.369 37.490,208.631 37.490,208.792 37.448 C 208.952 37.406,208.821 37.372,208.500 37.372 C 208.179 37.372,208.048 37.406,208.208 37.448 M237.125 37.451 C 237.331 37.491,237.669 37.491,237.875 37.451 C 238.081 37.411,237.912 37.379,237.500 37.379 C 237.088 37.379,236.919 37.411,237.125 37.451 M269.458 37.451 C 269.665 37.491,270.002 37.491,270.208 37.451 C 270.415 37.411,270.246 37.379,269.833 37.379 C 269.421 37.379,269.252 37.411,269.458 37.451 M271.458 37.451 C 271.665 37.491,272.002 37.491,272.208 37.451 C 272.415 37.411,272.246 37.379,271.833 37.379 C 271.421 37.379,271.252 37.411,271.458 37.451 M297.625 37.451 C 297.831 37.491,298.169 37.491,298.375 37.451 C 298.581 37.411,298.412 37.379,298.000 37.379 C 297.587 37.379,297.419 37.411,297.625 37.451 M299.958 37.451 C 300.165 37.491,300.502 37.491,300.708 37.451 C 300.915 37.411,300.746 37.379,300.333 37.379 C 299.921 37.379,299.752 37.411,299.958 37.451 M64.542 39.455 C 64.885 39.491,65.448 39.491,65.792 39.455 C 66.135 39.419,65.854 39.389,65.167 39.389 C 64.479 39.389,64.198 39.419,64.542 39.455 M81.214 42.417 C 81.216 42.875,81.248 43.043,81.286 42.789 C 81.325 42.536,81.324 42.161,81.284 41.956 C 81.244 41.751,81.213 41.958,81.214 42.417 M78.725 44.167 C 78.725 44.946,78.754 45.265,78.789 44.875 C 78.824 44.485,78.824 43.848,78.789 43.458 C 78.754 43.069,78.725 43.387,78.725 44.167 M40.708 44.948 C 40.869 44.990,41.131 44.990,41.292 44.948 C 41.452 44.906,41.321 44.872,41.000 44.872 C 40.679 44.872,40.548 44.906,40.708 44.948 M81.217 45.833 C 81.217 46.337,81.248 46.544,81.286 46.292 C 81.324 46.040,81.324 45.627,81.286 45.375 C 81.248 45.123,81.217 45.329,81.217 45.833 M136.914 69.833 C 136.914 79.962,136.934 84.106,136.958 79.042 C 136.983 73.977,136.983 65.690,136.958 60.625 C 136.934 55.560,136.914 59.704,136.914 69.833 M150.078 54.542 L 150.083 57.583 153.792 57.588 L 157.500 57.593 153.837 57.543 L 150.174 57.494 150.123 54.497 L 150.072 51.500 150.078 54.542 M25.224 52.917 C 25.224 53.650,25.254 53.929,25.289 53.537 C 25.324 53.145,25.324 52.545,25.288 52.204 C 25.252 51.863,25.223 52.183,25.224 52.917 M269.872 57.537 L 269.833 61.490 267.625 61.542 L 265.417 61.594 267.630 61.630 C 270.294 61.674,270.018 62.173,269.958 57.413 L 269.910 53.583 269.872 57.537 M26.667 56.052 C 26.667 56.081,26.910 56.325,27.208 56.594 L 27.750 57.083 27.260 56.542 C 26.804 56.037,26.667 55.923,26.667 56.052 M317.625 57.624 C 318.656 57.654,320.344 57.654,321.375 57.624 C 322.406 57.595,321.563 57.571,319.500 57.571 C 317.438 57.571,316.594 57.595,317.625 57.624 M150.077 61.708 C 150.033 61.823,150.017 67.842,150.041 75.083 L 150.085 88.250 150.126 74.962 L 150.167 61.673 153.875 61.625 L 157.583 61.577 153.870 61.538 C 151.024 61.509,150.138 61.549,150.077 61.708 M166.875 61.623 L 170.333 61.673 170.333 63.337 C 170.333 64.252,170.390 65.000,170.458 65.000 C 170.527 65.001,170.546 64.232,170.500 63.292 L 170.417 61.583 166.917 61.578 L 163.417 61.573 166.875 61.623 M241.833 61.623 L 245.333 61.673 245.333 63.513 C 245.333 64.525,245.390 65.318,245.458 65.276 C 245.527 65.234,245.546 64.386,245.500 63.391 L 245.417 61.583 241.875 61.578 L 238.333 61.573 241.833 61.623 M278.625 61.624 C 279.381 61.655,280.619 61.655,281.375 61.624 C 282.131 61.593,281.512 61.568,280.000 61.568 C 278.487 61.568,277.869 61.593,278.625 61.624 M317.625 61.624 C 318.656 61.654,320.344 61.654,321.375 61.624 C 322.406 61.595,321.563 61.571,319.500 61.571 C 317.438 61.571,316.594 61.595,317.625 61.624 M328.743 61.708 C 328.700 61.823,328.684 67.842,328.708 75.083 L 328.752 88.250 328.793 74.962 L 328.833 61.673 332.375 61.625 L 335.917 61.576 332.370 61.538 C 329.657 61.509,328.804 61.549,328.743 61.708 M396.333 63.385 C 396.333 63.414,396.577 63.658,396.875 63.927 L 397.417 64.417 396.927 63.875 C 396.471 63.370,396.333 63.257,396.333 63.385 M229.667 63.885 C 229.667 63.914,229.910 64.158,230.208 64.427 L 230.750 64.917 230.260 64.375 C 229.804 63.870,229.667 63.757,229.667 63.885 M267.748 66.622 L 269.830 66.677 269.876 74.797 L 269.921 82.917 269.919 74.750 L 269.917 66.583 267.791 66.576 L 265.666 66.568 267.748 66.622 M278.625 66.624 C 279.381 66.655,280.619 66.655,281.375 66.624 C 282.131 66.593,281.512 66.568,280.000 66.568 C 278.487 66.568,277.869 66.593,278.625 66.624 M68.411 68.708 L 67.417 69.750 68.458 68.755 C 69.426 67.831,69.576 67.667,69.453 67.667 C 69.427 67.667,68.959 68.135,68.411 68.708 M263.411 79.750 C 263.411 84.425,263.432 86.361,263.458 84.053 C 263.484 81.745,263.484 77.920,263.458 75.553 C 263.432 73.186,263.411 75.075,263.411 79.750 M255.875 72.083 C 255.877 72.450,255.911 72.580,255.951 72.373 C 255.991 72.166,255.990 71.866,255.948 71.706 C 255.906 71.547,255.874 71.717,255.875 72.083 M187.410 80.667 C 187.410 84.837,187.432 86.544,187.458 84.458 C 187.485 82.373,187.485 78.960,187.458 76.875 C 187.432 74.790,187.410 76.496,187.410 80.667 M377.000 73.219 C 377.000 73.248,377.244 73.491,377.542 73.760 L 378.083 74.250 377.594 73.708 C 377.138 73.203,377.000 73.090,377.000 73.219 M111.776 73.875 C 111.818 73.944,113.869 74.000,116.333 74.000 C 118.798 74.000,120.848 73.944,120.891 73.875 C 120.933 73.806,118.882 73.750,116.333 73.750 C 113.784 73.750,111.733 73.806,111.776 73.875 M207.552 74.917 C 207.553 75.467,207.584 75.672,207.621 75.372 C 207.658 75.072,207.657 74.622,207.619 74.372 C 207.581 74.122,207.551 74.367,207.552 74.917 M234.218 75.250 C 234.219 75.800,234.250 76.005,234.287 75.705 C 234.325 75.406,234.324 74.956,234.286 74.705 C 234.248 74.455,234.217 74.700,234.218 75.250 M302.561 76.917 C 302.561 77.833,302.589 78.187,302.623 77.703 C 302.657 77.218,302.656 76.468,302.622 76.036 C 302.588 75.604,302.560 76.000,302.561 76.917 M42.544 78.620 C 42.797 78.658,43.172 78.657,43.377 78.617 C 43.582 78.578,43.375 78.546,42.917 78.548 C 42.458 78.549,42.291 78.581,42.544 78.620 M45.208 78.619 C 45.460 78.658,45.873 78.658,46.125 78.619 C 46.377 78.581,46.171 78.550,45.667 78.550 C 45.163 78.550,44.956 78.581,45.208 78.619 M112.958 80.125 C 114.815 80.152,117.852 80.152,119.708 80.125 C 121.565 80.098,120.046 80.076,116.333 80.076 C 112.621 80.076,111.102 80.098,112.958 80.125 M43.464 81.123 C 43.948 81.157,44.698 81.156,45.131 81.122 C 45.563 81.088,45.167 81.060,44.250 81.061 C 43.333 81.061,42.980 81.089,43.464 81.123 M296.377 83.953 C 296.631 83.991,297.006 83.990,297.211 83.951 C 297.416 83.911,297.208 83.880,296.750 83.881 C 296.292 83.882,296.124 83.915,296.377 83.953 M387.458 83.951 C 387.665 83.991,388.002 83.991,388.208 83.951 C 388.415 83.911,388.246 83.879,387.833 83.879 C 387.421 83.879,387.252 83.911,387.458 83.951 M302.401 86.208 L 302.083 86.583 302.441 86.281 C 302.717 86.049,302.819 86.029,302.886 86.198 C 302.943 86.341,302.978 86.315,302.987 86.125 C 303.005 85.727,302.781 85.759,302.401 86.208 M277.955 88.620 C 278.250 88.657,278.775 88.658,279.121 88.622 C 279.467 88.586,279.225 88.555,278.583 88.555 C 277.942 88.554,277.659 88.583,277.955 88.620 " stroke="none" fill="#fce0c2" fill-rule="evenodd"></path><path id="path4" d="M0.082 44.083 C 0.082 68.375,0.101 78.288,0.125 66.112 C 0.149 53.935,0.149 34.060,0.125 21.945 C 0.101 9.829,0.082 19.792,0.082 44.083 M100.247 18.333 C 100.247 28.462,100.267 32.606,100.292 27.542 C 100.316 22.477,100.316 14.190,100.292 9.125 C 100.267 4.060,100.247 8.204,100.247 18.333 M108.405 10.417 C 108.405 12.525,108.429 13.365,108.458 12.282 C 108.487 11.200,108.487 9.475,108.458 8.449 C 108.428 7.423,108.405 8.308,108.405 10.417 M165.913 23.417 C 165.913 30.750,165.933 33.726,165.958 30.029 C 165.983 26.333,165.983 20.333,165.958 16.696 C 165.933 13.059,165.913 16.083,165.913 23.417 M157.667 11.719 C 157.667 11.748,157.910 11.991,158.208 12.260 L 158.750 12.750 158.260 12.208 C 157.804 11.703,157.667 11.590,157.667 11.719 M68.667 19.917 C 68.978 20.237,69.270 20.500,69.315 20.500 C 69.361 20.500,69.144 20.237,68.833 19.917 C 68.522 19.596,68.230 19.333,68.185 19.333 C 68.139 19.333,68.356 19.596,68.667 19.917 M190.911 28.000 C 190.911 32.813,190.932 34.781,190.958 32.375 C 190.984 29.969,190.984 26.031,190.958 23.625 C 190.932 21.219,190.911 23.188,190.911 28.000 M108.406 25.167 C 108.406 27.688,108.430 28.719,108.458 27.458 C 108.486 26.198,108.486 24.135,108.458 22.875 C 108.430 21.615,108.406 22.646,108.406 25.167 M122.875 25.583 C 122.877 25.950,122.911 26.080,122.951 25.873 C 122.991 25.666,122.990 25.366,122.948 25.206 C 122.906 25.047,122.874 25.217,122.875 25.583 M228.875 28.083 C 228.877 28.450,228.911 28.580,228.951 28.373 C 228.991 28.166,228.990 27.866,228.948 27.706 C 228.906 27.547,228.874 27.717,228.875 28.083 M215.959 37.625 C 215.982 39.894,216.022 42.725,216.048 43.917 C 216.073 45.108,216.110 43.252,216.130 39.792 C 216.150 36.331,216.110 33.500,216.042 33.500 C 215.973 33.500,215.936 35.356,215.959 37.625 M298.875 37.448 C 299.035 37.490,299.298 37.490,299.458 37.448 C 299.619 37.406,299.487 37.372,299.167 37.372 C 298.846 37.372,298.715 37.406,298.875 37.448 M46.705 45.167 C 46.705 45.487,46.740 45.619,46.782 45.458 C 46.823 45.298,46.823 45.035,46.782 44.875 C 46.740 44.715,46.705 44.846,46.705 45.167 M48.711 47.953 C 48.964 47.991,49.339 47.990,49.544 47.951 C 49.749 47.911,49.542 47.880,49.083 47.881 C 48.625 47.882,48.457 47.915,48.711 47.953 M26.208 51.615 C 26.369 51.657,26.631 51.657,26.792 51.615 C 26.952 51.573,26.821 51.539,26.500 51.539 C 26.179 51.539,26.048 51.573,26.208 51.615 M29.214 52.250 C 29.216 52.708,29.248 52.876,29.286 52.623 C 29.325 52.369,29.324 51.994,29.284 51.789 C 29.244 51.584,29.213 51.792,29.214 52.250 M144.247 69.833 C 144.247 79.962,144.267 84.106,144.292 79.042 C 144.316 73.977,144.316 65.690,144.292 60.625 C 144.267 55.560,144.247 59.704,144.247 69.833 M315.735 54.750 C 315.735 56.308,315.760 56.968,315.791 56.217 C 315.821 55.465,315.821 54.190,315.791 53.383 C 315.760 52.577,315.735 53.192,315.735 54.750 M315.746 75.083 C 315.746 82.233,315.767 85.134,315.792 81.529 C 315.817 77.925,315.817 72.075,315.792 68.529 C 315.767 64.984,315.746 67.933,315.746 75.083 M187.491 63.792 L 186.917 64.417 187.542 63.842 C 187.885 63.526,188.167 63.245,188.167 63.217 C 188.167 63.090,188.026 63.210,187.491 63.792 M342.877 67.786 C 343.131 67.825,343.506 67.824,343.711 67.784 C 343.916 67.744,343.708 67.713,343.250 67.714 C 342.792 67.716,342.624 67.748,342.877 67.786 M393.875 69.458 C 394.860 69.487,396.473 69.487,397.458 69.458 C 398.444 69.428,397.637 69.404,395.667 69.404 C 393.696 69.404,392.890 69.428,393.875 69.458 M204.078 78.917 C 204.078 84.050,204.099 86.174,204.125 83.637 C 204.151 81.100,204.151 76.900,204.125 74.304 C 204.099 71.707,204.078 73.783,204.078 78.917 M180.077 80.000 C 180.077 84.537,180.099 86.394,180.125 84.125 C 180.151 81.856,180.151 78.144,180.125 75.875 C 180.099 73.606,180.077 75.462,180.077 80.000 M245.743 81.167 C 245.743 85.063,245.765 86.656,245.791 84.708 C 245.818 82.760,245.818 79.573,245.791 77.625 C 245.765 75.677,245.743 77.271,245.743 81.167 M346.548 74.917 C 346.549 75.375,346.581 75.543,346.620 75.289 C 346.658 75.036,346.657 74.661,346.617 74.456 C 346.578 74.251,346.546 74.458,346.548 74.917 M43.960 78.618 C 44.168 78.658,44.468 78.656,44.627 78.615 C 44.786 78.573,44.617 78.540,44.250 78.542 C 43.883 78.544,43.753 78.578,43.960 78.618 M399.872 79.667 C 399.872 79.987,399.906 80.119,399.948 79.958 C 399.990 79.798,399.990 79.535,399.948 79.375 C 399.906 79.215,399.872 79.346,399.872 79.667 M228.884 79.958 C 229.782 79.988,231.207 79.988,232.050 79.957 C 232.893 79.927,232.158 79.903,230.417 79.903 C 228.675 79.903,227.985 79.928,228.884 79.958 M367.708 79.958 C 368.602 79.988,370.065 79.988,370.958 79.958 C 371.852 79.928,371.121 79.903,369.333 79.903 C 367.546 79.903,366.815 79.928,367.708 79.958 M220.960 88.951 C 221.168 88.991,221.468 88.990,221.627 88.948 C 221.786 88.906,221.617 88.874,221.250 88.875 C 220.883 88.877,220.753 88.911,220.960 88.951 M293.625 88.951 C 293.831 88.991,294.169 88.991,294.375 88.951 C 294.581 88.911,294.412 88.879,294.000 88.879 C 293.587 88.879,293.419 88.911,293.625 88.951 M359.792 88.951 C 359.998 88.991,360.335 88.991,360.542 88.951 C 360.748 88.911,360.579 88.879,360.167 88.879 C 359.754 88.879,359.585 88.911,359.792 88.951 M387.377 88.953 C 387.631 88.991,388.006 88.990,388.211 88.951 C 388.416 88.911,388.208 88.880,387.750 88.881 C 387.292 88.882,387.124 88.915,387.377 88.953 " stroke="none" fill="#fccc9b" fill-rule="evenodd"></path></g></svg>