<svg id="svg" version="1.1" xmlns="http://www.w3.org/2000/svg" xmlns:xlink="http://www.w3.org/1999/xlink" width="400" height="400" viewBox="0, 0, 400,400"><g id="svgg"><path id="path0" d="M0.000 200.000 L 0.000 400.000 200.000 400.000 L 400.000 400.000 400.000 200.000 L 400.000 0.000 200.000 0.000 L 0.000 0.000 0.000 200.000 M219.400 16.590 C 327.639 29.004,401.419 128.905,380.779 235.102 C 359.587 344.144,246.593 409.998,141.400 374.617 C 47.638 343.080,-4.530 243.315,23.014 148.218 C 43.849 76.284,108.744 22.694,182.600 16.432 C 185.460 16.190,188.520 15.921,189.400 15.836 C 193.250 15.461,214.136 15.986,219.400 16.590 M190.200 50.290 C 121.991 54.657,64.919 105.483,52.634 172.800 C 35.843 264.813,106.375 349.316,200.000 349.354 C 291.686 349.391,361.766 267.801,347.987 177.062 C 336.382 100.645,267.544 45.338,190.200 50.290 M218.600 61.567 C 307.455 74.730,361.876 164.669,331.024 247.366 C 328.524 254.066,328.927 253.800,321.290 253.800 C 283.405 253.800,273.904 253.611,274.100 252.861 C 274.206 252.454,275.982 249.532,278.047 246.368 L 281.800 240.613 281.842 236.407 C 281.865 234.093,281.910 231.899,281.942 231.531 C 281.978 231.114,283.167 230.310,285.100 229.396 C 294.644 224.882,300.100 216.490,304.215 200.000 C 305.498 194.856,306.776 192.392,310.440 187.997 C 317.500 179.529,323.333 167.917,324.623 159.765 C 324.919 157.893,325.180 158.067,319.264 156.211 C 314.395 154.684,309.111 152.515,299.756 148.204 C 289.679 143.559,289.772 143.588,289.489 145.068 C 289.371 145.688,289.977 151.843,290.837 158.745 C 293.500 180.124,293.417 180.400,284.292 180.400 C 276.735 180.400,267.233 182.225,259.146 185.229 C 242.905 191.262,243.065 191.249,237.552 186.990 C 229.455 180.734,219.141 182.095,213.965 190.102 C 211.953 193.215,211.442 194.911,210.017 203.200 C 209.155 208.217,208.286 211.704,206.951 215.511 C 204.675 221.997,204.649 221.967,209.666 218.595 C 218.632 212.569,226.502 213.493,246.200 222.886 C 257.377 228.216,259.153 228.968,262.105 229.620 C 265.126 230.288,265.386 230.638,264.822 233.285 C 263.727 238.423,264.001 238.045,258.290 242.309 C 250.238 248.321,244.302 252.612,243.276 253.160 C 242.269 253.698,225.910 254.029,225.393 253.522 C 225.238 253.369,226.554 251.514,228.318 249.401 C 233.344 243.379,237.520 233.095,236.266 229.827 C 236.047 229.257,232.417 229.206,199.112 229.298 L 162.200 229.400 162.265 231.836 C 162.410 237.286,165.999 245.064,170.636 249.980 C 173.877 253.415,173.873 253.435,169.810 253.765 C 163.759 254.256,161.991 253.566,155.400 248.146 C 152.760 245.975,148.980 243.043,147.000 241.631 C 145.020 240.219,142.635 238.452,141.700 237.705 L 140.000 236.346 140.000 232.835 C 140.000 228.558,139.977 228.584,145.400 226.838 C 154.630 223.866,161.896 219.394,171.661 210.676 C 179.269 203.882,181.010 203.000,186.800 203.000 L 191.000 203.000 196.348 205.319 C 199.289 206.595,201.772 207.561,201.867 207.466 C 201.961 207.372,201.010 205.519,199.753 203.347 C 196.426 197.603,194.638 193.571,193.212 188.605 C 188.683 172.832,173.835 168.189,163.764 179.396 C 159.333 184.327,159.178 184.347,145.000 181.778 C 134.848 179.939,121.339 179.559,114.100 180.910 C 104.870 182.632,104.693 182.322,104.007 163.183 C 103.518 149.524,103.311 146.800,102.764 146.800 C 102.555 146.800,99.733 148.724,96.492 151.076 C 88.829 156.636,82.383 160.843,77.074 163.750 C 72.037 166.508,72.235 165.697,75.176 171.506 C 79.307 179.667,85.014 187.054,90.927 191.893 C 97.067 196.917,97.047 196.892,100.582 204.198 C 107.043 217.550,111.994 223.809,118.800 227.228 C 122.148 228.910,122.074 228.739,121.993 234.591 C 121.954 237.456,121.939 240.199,121.961 240.686 C 121.985 241.226,123.953 243.731,126.989 247.086 C 129.734 250.119,131.984 252.799,131.989 253.042 C 132.006 253.735,73.821 254.083,72.156 253.399 C 69.599 252.348,64.221 235.131,62.034 220.993 C 50.387 145.719,102.226 74.374,177.400 62.217 C 189.997 60.180,207.383 59.906,218.600 61.567 M135.438 230.610 C 135.578 231.166,135.611 232.831,135.512 234.310 C 135.229 238.531,135.299 238.626,143.107 244.509 C 146.970 247.419,151.081 250.520,152.244 251.400 C 155.085 253.550,154.733 253.712,147.121 253.752 C 139.434 253.792,139.513 253.820,135.375 249.529 C 126.583 240.414,126.403 240.126,126.401 235.100 C 126.399 229.867,126.652 229.600,131.592 229.600 C 135.100 229.600,135.191 229.624,135.438 230.610 M277.186 231.974 C 277.878 233.268,277.665 237.618,276.818 239.485 C 275.148 243.162,268.315 253.152,267.243 253.483 C 265.886 253.902,252.025 253.508,251.898 253.047 C 251.844 252.853,255.220 250.185,259.400 247.117 C 267.926 240.861,267.641 241.196,268.827 236.000 C 269.942 231.115,269.857 231.200,273.635 231.200 C 276.327 231.200,276.831 231.310,277.186 231.974 M323.600 263.989 C 323.600 264.820,317.119 275.605,313.868 280.183 C 263.105 351.665,160.010 359.385,99.316 296.249 C 90.123 286.687,76.800 267.643,76.800 264.065 C 76.800 263.713,106.632 263.600,200.200 263.600 C 279.783 263.600,323.600 263.738,323.600 263.989 " stroke="none" fill="#fcfbfb" fill-rule="evenodd"></path><path id="path1" d="M192.600 16.236 C 156.053 18.416,127.788 27.547,98.600 46.604 C -11.350 118.390,-10.819 281.629,99.600 353.794 C 153.517 389.031,221.829 393.376,280.101 365.274 C 287.667 361.626,289.165 360.799,296.800 356.066 C 342.834 327.528,374.868 278.583,381.794 226.200 C 390.886 157.439,364.437 93.866,309.400 52.191 C 277.478 28.020,231.635 13.908,192.600 16.236 M214.200 50.432 C 246.312 52.716,278.920 67.600,303.952 91.400 C 366.706 151.064,365.256 253.128,300.833 311.000 C 247.036 359.326,167.690 363.003,109.844 319.852 C 33.177 262.661,29.330 147.906,102.000 85.832 C 133.669 58.780,170.077 47.293,214.200 50.432 M189.200 61.179 C 118.096 67.167,63.519 124.464,60.969 195.800 C 60.361 212.834,63.924 233.930,70.057 249.600 C 71.620 253.594,68.196 253.219,102.009 253.103 L 131.790 253.000 126.995 247.879 C 121.210 241.700,121.229 241.744,121.502 234.736 L 121.716 229.272 119.558 228.185 C 111.273 224.009,106.600 218.097,99.387 202.664 C 97.398 198.409,97.267 198.258,88.597 190.200 C 82.190 184.246,76.448 176.357,73.531 169.501 C 72.048 166.018,72.167 165.723,75.789 163.866 C 81.417 160.980,89.689 155.571,99.323 148.479 C 101.828 146.635,102.969 146.009,103.274 146.314 C 103.747 146.787,104.186 152.956,104.760 167.200 C 105.371 182.384,104.859 181.881,118.000 180.207 C 126.855 179.080,133.873 179.521,150.703 182.265 C 159.486 183.697,159.318 183.750,164.439 177.900 C 169.020 172.667,178.846 171.380,184.843 175.227 C 189.136 177.982,191.682 181.902,194.049 189.400 C 196.041 195.709,197.136 198.168,200.337 203.509 C 203.660 209.054,203.877 208.941,195.963 205.785 C 185.801 201.733,181.664 202.401,173.918 209.346 C 167.128 215.433,165.272 216.947,161.586 219.401 C 155.870 223.207,152.330 224.985,146.800 226.827 C 139.848 229.143,140.400 228.650,140.400 232.539 C 140.400 236.463,140.157 236.153,147.200 241.224 C 152.878 245.313,154.815 246.833,157.499 249.308 C 161.141 252.666,163.847 253.505,170.323 253.286 L 172.845 253.200 169.718 249.661 C 164.341 243.574,159.996 232.109,161.965 229.200 C 162.492 228.421,234.632 228.068,236.069 228.837 C 239.046 230.430,234.783 242.462,228.717 249.585 C 227.223 251.340,226.000 252.871,226.000 252.988 C 226.000 253.105,229.727 253.200,234.283 253.200 L 242.565 253.200 244.983 251.507 C 246.312 250.576,249.650 248.149,252.400 246.115 C 264.267 237.334,263.193 238.437,264.152 234.059 C 264.932 230.499,264.998 230.622,261.973 230.027 C 259.216 229.484,251.431 226.139,242.800 221.789 C 234.474 217.592,227.198 215.633,219.419 215.494 C 215.282 215.420,215.189 215.456,209.114 219.486 C 203.695 223.081,203.615 222.933,206.604 214.800 C 207.743 211.699,208.703 207.963,209.548 203.338 C 211.639 191.901,213.239 188.445,217.864 185.375 C 224.339 181.077,233.551 181.813,238.409 187.016 C 241.530 190.360,243.630 190.328,253.213 186.795 C 267.001 181.712,275.123 180.000,285.451 180.000 C 292.952 180.000,293.101 179.356,290.377 158.634 C 288.074 141.111,287.606 141.832,298.000 146.869 C 305.671 150.586,314.489 154.196,320.253 155.979 C 325.430 157.581,325.781 157.939,325.021 160.854 C 322.402 170.909,317.202 180.930,310.831 188.200 C 307.982 191.451,306.023 195.101,305.022 199.024 C 302.499 208.907,300.378 214.353,296.998 219.623 C 294.102 224.139,289.411 228.190,285.169 229.839 C 282.264 230.968,282.264 230.969,282.537 234.813 C 282.852 239.260,282.516 240.336,279.271 245.283 C 277.785 247.548,276.074 250.255,275.468 251.300 L 274.366 253.200 300.913 253.200 L 327.461 253.200 328.300 252.300 C 332.993 247.270,338.799 218.128,338.799 199.600 C 338.799 118.944,269.096 54.450,189.200 61.179 M128.000 230.292 C 126.961 230.687,126.812 231.301,126.808 235.200 C 126.802 239.859,126.716 239.706,133.216 246.600 C 139.900 253.690,138.952 253.242,146.997 253.110 L 153.686 253.000 144.696 246.275 C 134.599 238.722,134.800 238.977,134.800 233.781 L 134.800 230.000 131.700 230.032 C 129.995 230.049,128.330 230.166,128.000 230.292 M270.011 232.571 C 269.808 233.105,269.359 235.032,269.014 236.852 C 268.250 240.879,267.840 241.539,264.681 243.826 C 263.317 244.814,259.953 247.282,257.206 249.311 L 252.212 253.000 259.786 253.109 C 268.750 253.238,267.291 254.089,272.661 245.600 L 276.582 239.400 276.729 235.500 L 276.875 231.600 273.628 231.600 C 270.558 231.600,270.360 231.653,270.011 232.571 M77.208 264.300 C 77.254 266.108,86.658 280.722,91.944 287.200 C 107.066 305.733,125.272 319.083,149.194 329.181 C 165.944 336.251,194.556 340.258,212.600 338.060 C 253.976 333.020,284.646 316.377,309.271 285.600 C 314.323 279.286,322.800 265.983,322.800 264.369 C 322.800 264.144,274.791 264.000,200.000 264.000 C 132.460 264.000,77.203 264.135,77.208 264.300 " stroke="none" fill="#fc7c04" fill-rule="evenodd"></path><path id="path2" d="M195.305 60.687 C 195.914 60.779,196.814 60.777,197.305 60.682 C 197.797 60.587,197.300 60.511,196.200 60.514 C 195.100 60.517,194.697 60.595,195.305 60.687 M203.500 60.682 C 203.995 60.778,204.805 60.778,205.300 60.682 C 205.795 60.587,205.390 60.509,204.400 60.509 C 203.410 60.509,203.005 60.587,203.500 60.682 M69.600 69.800 C 67.961 71.450,66.710 72.800,66.820 72.800 C 66.930 72.800,68.361 71.450,70.000 69.800 C 71.639 68.150,72.890 66.800,72.780 66.800 C 72.670 66.800,71.239 68.150,69.600 69.800 M306.000 93.800 C 307.195 95.010,308.263 96.000,308.373 96.000 C 308.483 96.000,307.595 95.010,306.400 93.800 C 305.205 92.590,304.137 91.600,304.027 91.600 C 303.917 91.600,304.805 92.590,306.000 93.800 M103.724 151.400 C 103.726 152.720,103.801 153.212,103.890 152.493 C 103.979 151.774,103.977 150.694,103.886 150.093 C 103.795 149.492,103.722 150.080,103.724 151.400 M104.131 161.800 C 104.133 163.340,104.205 163.921,104.292 163.091 C 104.379 162.261,104.377 161.001,104.289 160.291 C 104.200 159.581,104.129 160.260,104.131 161.800 M104.520 172.000 C 104.520 173.210,104.595 173.705,104.687 173.100 C 104.778 172.495,104.778 171.505,104.687 170.900 C 104.595 170.295,104.520 170.790,104.520 172.000 M125.312 179.895 C 126.364 179.977,127.984 179.976,128.912 179.892 C 129.840 179.808,128.980 179.741,127.000 179.742 C 125.020 179.743,124.260 179.812,125.312 179.895 M282.900 180.294 C 283.945 180.376,285.655 180.376,286.700 180.294 C 287.745 180.212,286.890 180.144,284.800 180.144 C 282.710 180.144,281.855 180.212,282.900 180.294 M215.578 187.500 L 214.200 189.000 215.700 187.622 C 217.096 186.338,217.384 186.000,217.078 186.000 C 217.012 186.000,216.337 186.675,215.578 187.500 M86.800 188.600 C 87.995 189.810,89.063 190.800,89.173 190.800 C 89.283 190.800,88.395 189.810,87.200 188.600 C 86.005 187.390,84.937 186.400,84.827 186.400 C 84.717 186.400,85.605 187.390,86.800 188.600 M383.701 193.400 C 383.705 194.280,383.787 194.593,383.883 194.095 C 383.979 193.598,383.975 192.878,383.875 192.495 C 383.775 192.113,383.696 192.520,383.701 193.400 M60.542 200.200 C 60.541 202.180,60.608 203.040,60.692 202.112 C 60.776 201.184,60.777 199.564,60.695 198.512 C 60.612 197.460,60.543 198.220,60.542 200.200 M185.705 203.087 C 186.314 203.179,187.214 203.177,187.705 203.082 C 188.197 202.987,187.700 202.911,186.600 202.914 C 185.500 202.917,185.097 202.995,185.705 203.087 M383.709 206.400 C 383.709 207.390,383.787 207.795,383.882 207.300 C 383.978 206.805,383.978 205.995,383.882 205.500 C 383.787 205.005,383.709 205.410,383.709 206.400 M16.093 208.800 C 16.093 209.570,16.175 209.885,16.276 209.500 C 16.376 209.115,16.376 208.485,16.276 208.100 C 16.175 207.715,16.093 208.030,16.093 208.800 M121.701 233.000 C 121.705 233.880,121.787 234.193,121.883 233.695 C 121.979 233.198,121.975 232.478,121.875 232.095 C 121.775 231.713,121.696 232.120,121.701 233.000 M126.520 236.400 C 126.520 237.610,126.595 238.105,126.687 237.500 C 126.778 236.895,126.778 235.905,126.687 235.300 C 126.595 234.695,126.520 235.190,126.520 236.400 M124.383 244.900 C 126.041 246.666,126.400 246.984,126.400 246.683 C 126.400 246.619,125.545 245.764,124.500 244.783 L 122.600 243.000 124.383 244.900 M130.800 244.525 C 130.800 244.594,131.385 245.179,132.100 245.825 L 133.400 247.000 132.225 245.700 C 131.130 244.488,130.800 244.216,130.800 244.525 M109.400 253.200 L 87.000 253.410 109.276 253.505 C 123.799 253.567,131.639 253.461,131.800 253.200 C 131.936 252.980,131.992 252.843,131.924 252.895 C 131.856 252.947,121.720 253.084,109.400 253.200 M274.344 253.304 C 274.511 253.471,283.637 253.561,294.624 253.504 L 314.600 253.400 294.320 253.200 C 283.166 253.090,274.176 253.137,274.344 253.304 M150.505 253.487 C 151.114 253.579,152.014 253.577,152.505 253.482 C 152.997 253.387,152.500 253.311,151.400 253.314 C 150.300 253.317,149.897 253.395,150.505 253.487 M169.900 253.482 C 170.395 253.578,171.205 253.578,171.700 253.482 C 172.195 253.387,171.790 253.309,170.800 253.309 C 169.810 253.309,169.405 253.387,169.900 253.482 M238.300 253.489 C 239.015 253.578,240.185 253.578,240.900 253.489 C 241.615 253.401,241.030 253.328,239.600 253.328 C 238.170 253.328,237.585 253.401,238.300 253.489 M255.519 253.498 C 257.344 253.572,260.224 253.572,261.919 253.497 C 263.614 253.422,262.120 253.361,258.600 253.362 C 255.080 253.362,253.694 253.424,255.519 253.498 M76.800 263.900 C 76.800 264.171,159.385 264.170,278.800 263.898 C 303.330 263.842,267.915 263.752,200.100 263.698 C 132.285 263.644,76.800 263.735,76.800 263.900 M297.978 298.300 L 296.600 299.800 298.100 298.422 C 299.496 297.138,299.784 296.800,299.478 296.800 C 299.412 296.800,298.737 297.475,297.978 298.300 M93.800 306.000 C 94.659 306.880,95.452 307.600,95.562 307.600 C 95.672 307.600,95.059 306.880,94.200 306.000 C 93.341 305.120,92.548 304.400,92.438 304.400 C 92.328 304.400,92.941 305.120,93.800 306.000 M66.200 326.400 C 67.059 327.280,67.852 328.000,67.962 328.000 C 68.072 328.000,67.459 327.280,66.600 326.400 C 65.741 325.520,64.948 324.800,64.838 324.800 C 64.728 324.800,65.341 325.520,66.200 326.400 M331.978 327.900 L 330.600 329.400 332.100 328.022 C 333.496 326.738,333.784 326.400,333.478 326.400 C 333.412 326.400,332.737 327.075,331.978 327.900 M327.978 331.900 L 326.600 333.400 328.100 332.022 C 329.496 330.738,329.784 330.400,329.478 330.400 C 329.412 330.400,328.737 331.075,327.978 331.900 M73.600 333.800 C 74.346 334.570,75.047 335.200,75.157 335.200 C 75.267 335.200,74.746 334.570,74.000 333.800 C 73.254 333.030,72.553 332.400,72.443 332.400 C 72.333 332.400,72.854 333.030,73.600 333.800 M196.918 383.898 C 198.633 383.973,201.333 383.972,202.918 383.897 C 204.503 383.821,203.100 383.759,199.800 383.760 C 196.500 383.761,195.203 383.822,196.918 383.898 " stroke="none" fill="#fcb060" fill-rule="evenodd"></path><path id="path3" d="M191.507 16.290 C 192.226 16.379,193.306 16.377,193.907 16.286 C 194.508 16.195,193.920 16.122,192.600 16.124 C 191.280 16.126,190.788 16.201,191.507 16.290 M206.100 16.287 C 206.705 16.378,207.695 16.378,208.300 16.287 C 208.905 16.195,208.410 16.120,207.200 16.120 C 205.990 16.120,205.495 16.195,206.100 16.287 M198.311 49.893 C 199.251 49.978,200.691 49.977,201.511 49.891 C 202.330 49.805,201.560 49.736,199.800 49.737 C 198.040 49.739,197.370 49.809,198.311 49.893 M199.100 60.689 C 199.815 60.778,200.985 60.778,201.700 60.689 C 202.415 60.601,201.830 60.528,200.400 60.528 C 198.970 60.528,198.385 60.601,199.100 60.689 M190.105 61.087 C 190.714 61.179,191.614 61.177,192.105 61.082 C 192.597 60.987,192.100 60.911,191.000 60.914 C 189.900 60.917,189.497 60.995,190.105 61.087 M208.905 61.087 C 209.514 61.179,210.414 61.177,210.905 61.082 C 211.397 60.987,210.900 60.911,209.800 60.914 C 208.700 60.917,208.297 60.995,208.905 61.087 M321.600 62.200 C 322.346 62.970,323.047 63.600,323.157 63.600 C 323.267 63.600,322.746 62.970,322.000 62.200 C 321.254 61.430,320.553 60.800,320.443 60.800 C 320.333 60.800,320.854 61.430,321.600 62.200 M74.378 65.500 L 73.000 67.000 74.500 65.622 C 75.896 64.338,76.184 64.000,75.878 64.000 C 75.812 64.000,75.137 64.675,74.378 65.500 M326.783 66.900 C 327.764 67.945,328.619 68.800,328.683 68.800 C 328.984 68.800,328.666 68.441,326.900 66.783 L 325.000 65.000 326.783 66.900 M332.783 72.900 C 333.764 73.945,334.619 74.800,334.683 74.800 C 334.984 74.800,334.666 74.441,332.900 72.783 L 331.000 71.000 332.783 72.900 M65.381 74.500 L 63.800 76.200 65.500 74.619 C 66.435 73.749,67.200 72.984,67.200 72.919 C 67.200 72.616,66.852 72.919,65.381 74.500 M337.600 78.200 C 338.346 78.970,339.047 79.600,339.157 79.600 C 339.267 79.600,338.746 78.970,338.000 78.200 C 337.254 77.430,336.553 76.800,336.443 76.800 C 336.333 76.800,336.854 77.430,337.600 78.200 M99.178 88.300 L 97.800 89.800 99.300 88.422 C 100.696 87.138,100.984 86.800,100.678 86.800 C 100.612 86.800,99.937 87.475,99.178 88.300 M302.400 90.200 C 303.146 90.970,303.847 91.600,303.957 91.600 C 304.067 91.600,303.546 90.970,302.800 90.200 C 302.054 89.430,301.353 88.800,301.243 88.800 C 301.133 88.800,301.654 89.430,302.400 90.200 M93.385 93.700 L 91.400 95.800 93.500 93.815 C 95.451 91.971,95.783 91.600,95.485 91.600 C 95.422 91.600,94.477 92.545,93.385 93.700 M309.600 97.400 C 310.346 98.170,311.047 98.800,311.157 98.800 C 311.267 98.800,310.746 98.170,310.000 97.400 C 309.254 96.630,308.553 96.000,308.443 96.000 C 308.333 96.000,308.854 96.630,309.600 97.400 M294.400 97.800 C 295.146 98.570,295.847 99.200,295.957 99.200 C 296.067 99.200,295.546 98.570,294.800 97.800 C 294.054 97.030,293.353 96.400,293.243 96.400 C 293.133 96.400,293.654 97.030,294.400 97.800 M100.992 102.100 L 97.400 105.800 101.100 102.208 C 104.536 98.872,104.982 98.400,104.692 98.400 C 104.632 98.400,102.967 100.065,100.992 102.100 M288.901 146.600 C 288.905 147.480,288.987 147.793,289.083 147.295 C 289.179 146.798,289.175 146.078,289.075 145.695 C 288.975 145.313,288.896 145.720,288.901 146.600 M296.000 146.200 C 296.550 146.514,297.180 146.772,297.400 146.772 C 297.620 146.772,297.350 146.514,296.800 146.200 C 296.250 145.886,295.620 145.628,295.400 145.628 C 295.180 145.628,295.450 145.886,296.000 146.200 M104.131 156.600 C 104.133 158.140,104.205 158.721,104.292 157.891 C 104.379 157.061,104.377 155.801,104.289 155.091 C 104.200 154.381,104.129 155.060,104.131 156.600 M104.531 167.400 C 104.533 168.940,104.605 169.521,104.692 168.691 C 104.779 167.861,104.777 166.601,104.689 165.891 C 104.600 165.181,104.529 165.860,104.531 167.400 M292.109 174.000 C 292.109 174.990,292.187 175.395,292.282 174.900 C 292.378 174.405,292.378 173.595,292.282 173.100 C 292.187 172.605,292.109 173.010,292.109 174.000 M175.500 173.082 C 175.995 173.178,176.805 173.178,177.300 173.082 C 177.795 172.987,177.390 172.909,176.400 172.909 C 175.410 172.909,175.005 172.987,175.500 173.082 M164.581 177.700 L 163.000 179.400 164.700 177.819 C 166.281 176.348,166.584 176.000,166.281 176.000 C 166.216 176.000,165.451 176.765,164.581 177.700 M187.400 177.600 C 188.259 178.480,189.052 179.200,189.162 179.200 C 189.272 179.200,188.659 178.480,187.800 177.600 C 186.941 176.720,186.148 176.000,186.038 176.000 C 185.928 176.000,186.541 176.720,187.400 177.600 M225.907 182.690 C 226.626 182.779,227.706 182.777,228.307 182.686 C 228.908 182.595,228.320 182.522,227.000 182.524 C 225.680 182.526,225.188 182.601,225.907 182.690 M349.293 185.200 C 349.293 185.970,349.375 186.285,349.476 185.900 C 349.576 185.515,349.576 184.885,349.476 184.500 C 349.375 184.115,349.293 184.430,349.293 185.200 M16.493 186.800 C 16.493 187.570,16.575 187.885,16.676 187.500 C 16.776 187.115,16.776 186.485,16.676 186.100 C 16.575 185.715,16.493 186.030,16.493 186.800 M236.800 185.725 C 236.800 185.794,237.385 186.379,238.100 187.025 L 239.400 188.200 238.225 186.900 C 237.130 185.688,236.800 185.416,236.800 185.725 M338.493 187.600 C 338.493 188.370,338.575 188.685,338.676 188.300 C 338.776 187.915,338.776 187.285,338.676 186.900 C 338.575 186.515,338.493 186.830,338.493 187.600 M383.293 188.400 C 383.293 189.170,383.375 189.485,383.476 189.100 C 383.576 188.715,383.576 188.085,383.476 187.700 C 383.375 187.315,383.293 187.630,383.293 188.400 M243.300 189.876 C 243.685 189.976,244.315 189.976,244.700 189.876 C 245.085 189.775,244.770 189.693,244.000 189.693 C 243.230 189.693,242.915 189.775,243.300 189.876 M60.924 192.200 C 60.926 193.520,61.001 194.012,61.090 193.293 C 61.179 192.574,61.177 191.494,61.086 190.893 C 60.995 190.292,60.922 190.880,60.924 192.200 M338.969 199.600 C 338.969 204.110,339.027 205.955,339.098 203.700 C 339.170 201.445,339.170 197.755,339.098 195.500 C 339.027 193.245,338.969 195.090,338.969 199.600 M16.168 199.800 C 16.168 204.200,16.226 206.055,16.298 203.921 C 16.370 201.788,16.370 198.188,16.299 195.921 C 16.227 193.655,16.168 195.400,16.168 199.800 M383.755 199.800 C 383.756 202.660,383.820 203.778,383.897 202.283 C 383.974 200.789,383.974 198.449,383.896 197.083 C 383.818 195.718,383.755 196.940,383.755 199.800 M94.400 195.325 C 94.400 195.394,94.985 195.979,95.700 196.625 L 97.000 197.800 95.825 196.500 C 94.730 195.288,94.400 195.016,94.400 195.325 M60.924 208.600 C 60.926 209.920,61.001 210.412,61.090 209.693 C 61.179 208.974,61.177 207.894,61.086 207.293 C 60.995 206.692,60.922 207.280,60.924 208.600 M170.800 211.800 C 169.828 212.790,169.123 213.600,169.233 213.600 C 169.343 213.600,170.228 212.790,171.200 211.800 C 172.172 210.810,172.877 210.000,172.767 210.000 C 172.657 210.000,171.772 210.810,170.800 211.800 M383.301 211.400 C 383.305 212.280,383.387 212.593,383.483 212.095 C 383.579 211.598,383.575 210.878,383.475 210.495 C 383.375 210.113,383.296 210.520,383.301 211.400 M338.493 211.600 C 338.493 212.370,338.575 212.685,338.676 212.300 C 338.776 211.915,338.776 211.285,338.676 210.900 C 338.575 210.515,338.493 210.830,338.493 211.600 M16.493 212.800 C 16.493 213.570,16.575 213.885,16.676 213.500 C 16.776 213.115,16.776 212.485,16.676 212.100 C 16.575 211.715,16.493 212.030,16.493 212.800 M220.100 215.476 C 220.485 215.576,221.115 215.576,221.500 215.476 C 221.885 215.375,221.570 215.293,220.800 215.293 C 220.030 215.293,219.715 215.375,220.100 215.476 M111.200 222.125 C 111.200 222.194,111.785 222.779,112.500 223.425 L 113.800 224.600 112.625 223.300 C 111.530 222.088,111.200 221.816,111.200 222.125 M181.070 228.700 C 191.008 228.759,207.388 228.759,217.470 228.700 C 227.551 228.640,219.420 228.592,199.400 228.592 C 179.380 228.592,171.131 228.640,181.070 228.700 M134.934 233.200 C 134.934 234.850,135.005 235.525,135.091 234.700 C 135.178 233.875,135.178 232.525,135.091 231.700 C 135.005 230.875,134.934 231.550,134.934 233.200 M140.128 232.800 C 140.128 234.230,140.201 234.815,140.289 234.100 C 140.378 233.385,140.378 232.215,140.289 231.500 C 140.201 230.785,140.128 231.370,140.128 232.800 M272.100 231.491 C 272.925 231.578,274.275 231.578,275.100 231.491 C 275.925 231.405,275.250 231.334,273.600 231.334 C 271.950 231.334,271.275 231.405,272.100 231.491 M282.114 233.400 C 282.117 234.500,282.195 234.903,282.287 234.295 C 282.379 233.686,282.377 232.786,282.282 232.295 C 282.187 231.803,282.111 232.300,282.114 233.400 M276.940 235.200 C 276.940 237.070,277.009 237.835,277.093 236.900 C 277.177 235.965,277.177 234.435,277.093 233.500 C 277.009 232.565,276.940 233.330,276.940 235.200 M282.501 237.400 C 282.505 238.280,282.587 238.593,282.683 238.095 C 282.779 237.598,282.775 236.878,282.675 236.495 C 282.575 236.113,282.496 236.520,282.501 237.400 M121.301 239.000 C 121.305 239.880,121.387 240.193,121.483 239.695 C 121.579 239.198,121.575 238.478,121.475 238.095 C 121.375 237.713,121.296 238.120,121.301 239.000 M127.800 248.800 C 128.883 249.900,129.860 250.800,129.970 250.800 C 130.080 250.800,129.283 249.900,128.200 248.800 C 127.117 247.700,126.140 246.800,126.030 246.800 C 125.920 246.800,126.717 247.700,127.800 248.800 M135.000 248.800 C 136.083 249.900,137.060 250.800,137.170 250.800 C 137.280 250.800,136.483 249.900,135.400 248.800 C 134.317 247.700,133.340 246.800,133.230 246.800 C 133.120 246.800,133.917 247.700,135.000 248.800 M155.200 247.325 C 155.200 247.394,155.785 247.979,156.500 248.625 L 157.800 249.800 156.625 248.500 C 155.530 247.288,155.200 247.016,155.200 247.325 M171.308 251.425 C 172.138 252.319,172.693 253.174,172.541 253.325 C 172.390 253.476,172.477 253.600,172.733 253.600 C 173.569 253.600,173.231 252.991,171.500 251.381 L 169.800 249.800 171.308 251.425 M225.950 253.312 C 226.123 253.483,228.769 253.573,231.832 253.510 L 237.400 253.397 231.519 253.199 C 228.284 253.089,225.778 253.140,225.950 253.312 M76.300 253.498 C 78.335 253.571,81.665 253.571,83.700 253.498 C 85.735 253.425,84.070 253.366,80.000 253.366 C 75.930 253.366,74.265 253.425,76.300 253.498 M144.512 253.495 C 145.564 253.577,147.184 253.576,148.112 253.492 C 149.040 253.408,148.180 253.341,146.200 253.342 C 144.220 253.343,143.460 253.412,144.512 253.495 M317.519 253.498 C 319.344 253.572,322.224 253.572,323.919 253.497 C 325.614 253.422,324.120 253.361,320.600 253.362 C 317.080 253.362,315.694 253.424,317.519 253.498 M333.600 268.000 C 333.151 268.880,332.874 269.600,332.984 269.600 C 333.094 269.600,333.551 268.880,334.000 268.000 C 334.449 267.120,334.726 266.400,334.616 266.400 C 334.506 266.400,334.049 267.120,333.600 268.000 M302.581 293.300 L 301.000 295.000 302.700 293.419 C 303.635 292.549,304.400 291.784,304.400 291.719 C 304.400 291.416,304.052 291.719,302.581 293.300 M101.200 297.800 C 103.281 299.890,105.074 301.600,105.184 301.600 C 105.294 301.600,103.681 299.890,101.600 297.800 C 99.519 295.710,97.726 294.000,97.616 294.000 C 97.506 294.000,99.119 295.710,101.200 297.800 M312.181 299.300 L 310.600 301.000 312.300 299.419 C 313.235 298.549,314.000 297.784,314.000 297.719 C 314.000 297.416,313.652 297.719,312.181 299.300 M90.600 302.800 C 91.459 303.680,92.252 304.400,92.362 304.400 C 92.472 304.400,91.859 303.680,91.000 302.800 C 90.141 301.920,89.348 301.200,89.238 301.200 C 89.128 301.200,89.741 301.920,90.600 302.800 M293.178 302.700 L 291.800 304.200 293.300 302.822 C 294.696 301.538,294.984 301.200,294.678 301.200 C 294.612 301.200,293.937 301.875,293.178 302.700 M306.192 305.700 L 302.600 309.400 306.300 305.808 C 309.736 302.472,310.182 302.000,309.892 302.000 C 309.832 302.000,308.167 303.665,306.192 305.700 M96.800 309.000 C 97.546 309.770,98.247 310.400,98.357 310.400 C 98.467 310.400,97.946 309.770,97.200 309.000 C 96.454 308.230,95.753 307.600,95.643 307.600 C 95.533 307.600,96.054 308.230,96.800 309.000 M299.578 311.900 L 298.200 313.400 299.700 312.022 C 301.096 310.738,301.384 310.400,301.078 310.400 C 301.012 310.400,300.337 311.075,299.578 311.900 M101.200 313.000 C 101.946 313.770,102.647 314.400,102.757 314.400 C 102.867 314.400,102.346 313.770,101.600 313.000 C 100.854 312.230,100.153 311.600,100.043 311.600 C 99.933 311.600,100.454 312.230,101.200 313.000 M64.200 324.000 C 65.283 325.100,66.260 326.000,66.370 326.000 C 66.480 326.000,65.683 325.100,64.600 324.000 C 63.517 322.900,62.540 322.000,62.430 322.000 C 62.320 322.000,63.117 322.900,64.200 324.000 M334.581 324.900 L 333.000 326.600 334.700 325.019 C 336.281 323.548,336.584 323.200,336.281 323.200 C 336.216 323.200,335.451 323.965,334.581 324.900 M138.800 324.800 C 139.570 325.222,140.380 325.566,140.600 325.566 C 140.820 325.566,140.370 325.222,139.600 324.800 C 138.830 324.378,138.020 324.034,137.800 324.034 C 137.580 324.034,138.030 324.378,138.800 324.800 M70.000 330.200 C 71.195 331.410,72.263 332.400,72.373 332.400 C 72.483 332.400,71.595 331.410,70.400 330.200 C 69.205 328.990,68.137 328.000,68.027 328.000 C 67.917 328.000,68.805 328.990,70.000 330.200 M324.581 334.900 L 323.000 336.600 324.700 335.019 C 326.281 333.548,326.584 333.200,326.281 333.200 C 326.216 333.200,325.451 333.965,324.581 334.900 M76.400 336.200 C 77.146 336.970,77.847 337.600,77.957 337.600 C 78.067 337.600,77.546 336.970,76.800 336.200 C 76.054 335.430,75.353 334.800,75.243 334.800 C 75.133 334.800,75.654 335.430,76.400 336.200 M182.900 337.876 C 183.285 337.976,183.915 337.976,184.300 337.876 C 184.685 337.775,184.370 337.693,183.600 337.693 C 182.830 337.693,182.515 337.775,182.900 337.876 M214.900 337.876 C 215.285 337.976,215.915 337.976,216.300 337.876 C 216.685 337.775,216.370 337.693,215.600 337.693 C 214.830 337.693,214.515 337.775,214.900 337.876 M211.300 338.276 C 211.685 338.376,212.315 338.376,212.700 338.276 C 213.085 338.175,212.770 338.093,212.000 338.093 C 211.230 338.093,210.915 338.175,211.300 338.276 M191.300 338.687 C 191.905 338.778,192.895 338.778,193.500 338.687 C 194.105 338.595,193.610 338.520,192.400 338.520 C 191.190 338.520,190.695 338.595,191.300 338.687 M205.300 338.687 C 205.905 338.778,206.895 338.778,207.500 338.687 C 208.105 338.595,207.610 338.520,206.400 338.520 C 205.190 338.520,204.695 338.595,205.300 338.687 M183.300 349.076 C 183.685 349.176,184.315 349.176,184.700 349.076 C 185.085 348.975,184.770 348.893,184.000 348.893 C 183.230 348.893,182.915 348.975,183.300 349.076 M188.100 349.476 C 188.485 349.576,189.115 349.576,189.500 349.476 C 189.885 349.375,189.570 349.293,188.800 349.293 C 188.030 349.293,187.715 349.375,188.100 349.476 M210.305 349.483 C 210.802 349.579,211.522 349.575,211.905 349.475 C 212.287 349.375,211.880 349.296,211.000 349.301 C 210.120 349.305,209.807 349.387,210.305 349.483 M277.200 366.600 C 276.650 366.914,276.380 367.172,276.600 367.172 C 276.820 367.172,277.450 366.914,278.000 366.600 C 278.550 366.286,278.820 366.028,278.600 366.028 C 278.380 366.028,277.750 366.286,277.200 366.600 M189.100 383.482 C 189.595 383.578,190.405 383.578,190.900 383.482 C 191.395 383.387,190.990 383.309,190.000 383.309 C 189.010 383.309,188.605 383.387,189.100 383.482 M209.100 383.482 C 209.595 383.578,210.405 383.578,210.900 383.482 C 211.395 383.387,210.990 383.309,210.000 383.309 C 209.010 383.309,208.605 383.387,209.100 383.482 " stroke="none" fill="#fc962d" fill-rule="evenodd"></path><path id="path4" d="M195.300 15.899 C 197.885 15.968,202.115 15.968,204.700 15.899 C 207.285 15.829,205.170 15.772,200.000 15.772 C 194.830 15.772,192.715 15.829,195.300 15.899 M185.700 16.287 C 186.305 16.378,187.295 16.378,187.900 16.287 C 188.505 16.195,188.010 16.120,186.800 16.120 C 185.590 16.120,185.095 16.195,185.700 16.287 M212.100 16.287 C 212.705 16.378,213.695 16.378,214.300 16.287 C 214.905 16.195,214.410 16.120,213.200 16.120 C 211.990 16.120,211.495 16.195,212.100 16.287 M181.105 16.683 C 181.602 16.779,182.322 16.775,182.705 16.675 C 183.087 16.575,182.680 16.496,181.800 16.501 C 180.920 16.505,180.607 16.587,181.105 16.683 M217.300 16.676 C 217.685 16.776,218.315 16.776,218.700 16.676 C 219.085 16.575,218.770 16.493,218.000 16.493 C 217.230 16.493,216.915 16.575,217.300 16.676 M177.300 17.076 C 177.685 17.176,178.315 17.176,178.700 17.076 C 179.085 16.975,178.770 16.893,178.000 16.893 C 177.230 16.893,176.915 16.975,177.300 17.076 M191.900 60.682 C 192.395 60.778,193.205 60.778,193.700 60.682 C 194.195 60.587,193.790 60.509,192.800 60.509 C 191.810 60.509,191.405 60.587,191.900 60.682 M206.700 60.682 C 207.195 60.778,208.005 60.778,208.500 60.682 C 208.995 60.587,208.590 60.509,207.600 60.509 C 206.610 60.509,206.205 60.587,206.700 60.682 M320.800 60.925 C 320.800 60.994,321.385 61.579,322.100 62.225 L 323.400 63.400 322.225 62.100 C 321.130 60.888,320.800 60.616,320.800 60.925 M74.585 64.900 L 72.600 67.000 74.700 65.015 C 76.651 63.171,76.983 62.800,76.685 62.800 C 76.622 62.800,75.677 63.745,74.585 64.900 M136.400 63.800 C 135.850 64.114,135.580 64.372,135.800 64.372 C 136.020 64.372,136.650 64.114,137.200 63.800 C 137.750 63.486,138.020 63.228,137.800 63.228 C 137.580 63.228,136.950 63.486,136.400 63.800 M329.800 69.600 C 333.094 72.900,335.880 75.600,335.990 75.600 C 336.100 75.600,333.494 72.900,330.200 69.600 C 326.906 66.300,324.120 63.600,324.010 63.600 C 323.900 63.600,326.506 66.300,329.800 69.600 M129.900 67.029 C 128.405 67.840,128.496 68.178,130.000 67.400 C 130.660 67.059,131.200 66.694,131.200 66.590 C 131.200 66.332,131.157 66.347,129.900 67.029 M64.585 74.900 L 62.600 77.000 64.700 75.015 C 66.651 73.171,66.983 72.800,66.685 72.800 C 66.622 72.800,65.677 73.745,64.585 74.900 M260.833 74.552 C 261.241 74.924,265.200 76.793,265.200 76.613 C 265.200 76.388,261.380 74.400,260.947 74.400 C 260.793 74.400,260.742 74.468,260.833 74.552 M336.800 76.925 C 336.800 76.994,337.385 77.579,338.100 78.225 L 339.400 79.400 338.225 78.100 C 337.130 76.888,336.800 76.616,336.800 76.925 M99.375 88.500 L 98.200 89.800 99.500 88.625 C 100.712 87.530,100.984 87.200,100.675 87.200 C 100.606 87.200,100.021 87.785,99.375 88.500 M302.000 90.200 C 302.746 90.970,303.447 91.600,303.557 91.600 C 303.667 91.600,303.146 90.970,302.400 90.200 C 301.654 89.430,300.953 88.800,300.843 88.800 C 300.733 88.800,301.254 89.430,302.000 90.200 M93.787 93.700 L 91.400 96.200 93.900 93.813 C 96.222 91.595,96.583 91.200,96.287 91.200 C 96.226 91.200,95.101 92.325,93.787 93.700 M107.375 95.700 L 106.200 97.000 107.500 95.825 C 108.712 94.730,108.984 94.400,108.675 94.400 C 108.606 94.400,108.021 94.985,107.375 95.700 M294.783 97.700 C 295.764 98.745,296.619 99.600,296.683 99.600 C 296.984 99.600,296.666 99.241,294.900 97.583 L 293.000 95.800 294.783 97.700 M309.400 97.600 C 310.259 98.480,311.052 99.200,311.162 99.200 C 311.272 99.200,310.659 98.480,309.800 97.600 C 308.941 96.720,308.148 96.000,308.038 96.000 C 307.928 96.000,308.541 96.720,309.400 97.600 M100.593 102.100 L 96.200 106.600 100.700 102.207 C 104.880 98.126,105.382 97.600,105.093 97.600 C 105.034 97.600,103.009 99.625,100.593 102.100 M88.378 99.500 L 87.000 101.000 88.500 99.622 C 89.896 98.338,90.184 98.000,89.878 98.000 C 89.812 98.000,89.137 98.675,88.378 99.500 M300.000 103.000 C 301.417 104.430,302.667 105.600,302.777 105.600 C 302.887 105.600,301.817 104.430,300.400 103.000 C 298.983 101.570,297.733 100.400,297.623 100.400 C 297.513 100.400,298.583 101.570,300.000 103.000 M303.600 106.925 C 303.600 106.994,304.185 107.579,304.900 108.225 L 306.200 109.400 305.025 108.100 C 303.930 106.888,303.600 106.616,303.600 106.925 M94.175 108.900 L 93.000 110.200 94.300 109.025 C 95.512 107.930,95.784 107.600,95.475 107.600 C 95.406 107.600,94.821 108.185,94.175 108.900 M364.200 116.800 C 364.976 118.340,365.700 119.600,365.810 119.600 C 365.920 119.600,365.376 118.340,364.600 116.800 C 363.824 115.260,363.100 114.000,362.990 114.000 C 362.880 114.000,363.424 115.260,364.200 116.800 M293.600 145.400 C 294.150 145.714,294.780 145.972,295.000 145.972 C 295.220 145.972,294.950 145.714,294.400 145.400 C 293.850 145.086,293.220 144.828,293.000 144.828 C 292.780 144.828,293.050 145.086,293.600 145.400 M103.734 156.400 C 103.734 158.050,103.805 158.725,103.891 157.900 C 103.978 157.075,103.978 155.725,103.891 154.900 C 103.805 154.075,103.734 154.750,103.734 156.400 M75.500 164.226 C 74.455 164.770,73.600 165.305,73.600 165.414 C 73.600 165.524,74.500 165.157,75.600 164.600 C 76.700 164.043,77.600 163.500,77.600 163.393 C 77.600 163.129,77.636 163.114,75.500 164.226 M104.131 167.000 C 104.133 168.540,104.205 169.121,104.292 168.291 C 104.379 167.461,104.377 166.201,104.289 165.491 C 104.200 164.781,104.129 165.460,104.131 167.000 M73.200 168.143 C 73.200 168.578,75.987 174.000,76.210 174.000 C 76.320 174.000,75.757 172.695,74.958 171.100 C 73.460 168.107,73.200 167.670,73.200 168.143 M164.581 178.100 L 163.000 179.800 164.700 178.219 C 166.281 176.748,166.584 176.400,166.281 176.400 C 166.216 176.400,165.451 177.165,164.581 178.100 M187.583 178.100 C 188.564 179.145,189.419 180.000,189.483 180.000 C 189.784 180.000,189.466 179.641,187.700 177.983 L 185.800 176.200 187.583 178.100 M161.775 181.300 L 160.600 182.600 161.900 181.425 C 162.615 180.779,163.200 180.194,163.200 180.125 C 163.200 179.816,162.870 180.088,161.775 181.300 M16.501 182.600 C 16.505 183.480,16.587 183.793,16.683 183.295 C 16.779 182.798,16.775 182.078,16.675 181.695 C 16.575 181.313,16.496 181.720,16.501 182.600 M383.301 183.800 C 383.305 184.680,383.387 184.993,383.483 184.495 C 383.579 183.998,383.575 183.278,383.475 182.895 C 383.375 182.513,383.296 182.920,383.301 183.800 M84.600 186.000 C 85.459 186.880,86.252 187.600,86.362 187.600 C 86.472 187.600,85.859 186.880,85.000 186.000 C 84.141 185.120,83.348 184.400,83.238 184.400 C 83.128 184.400,83.741 185.120,84.600 186.000 M16.124 187.800 C 16.126 189.120,16.201 189.612,16.290 188.893 C 16.379 188.174,16.377 187.094,16.286 186.493 C 16.195 185.892,16.122 186.480,16.124 187.800 M383.728 189.600 C 383.728 191.030,383.801 191.615,383.889 190.900 C 383.978 190.185,383.978 189.015,383.889 188.300 C 383.801 187.585,383.728 188.170,383.728 189.600 M50.093 192.800 C 50.093 193.570,50.175 193.885,50.276 193.500 C 50.376 193.115,50.376 192.485,50.276 192.100 C 50.175 191.715,50.093 192.030,50.093 192.800 M60.524 194.600 C 60.526 195.920,60.601 196.412,60.690 195.693 C 60.779 194.974,60.777 193.894,60.686 193.293 C 60.595 192.692,60.522 193.280,60.524 194.600 M349.709 195.200 C 349.709 196.190,349.787 196.595,349.882 196.100 C 349.978 195.605,349.978 194.795,349.882 194.300 C 349.787 193.805,349.709 194.210,349.709 195.200 M15.760 199.800 C 15.761 203.100,15.822 204.397,15.898 202.682 C 15.973 200.967,15.972 198.267,15.897 196.682 C 15.821 195.097,15.759 196.500,15.760 199.800 M95.400 196.000 C 96.259 196.880,97.052 197.600,97.162 197.600 C 97.272 197.600,96.659 196.880,95.800 196.000 C 94.941 195.120,94.148 194.400,94.038 194.400 C 93.928 194.400,94.541 195.120,95.400 196.000 M384.153 199.800 C 384.153 202.440,384.218 203.468,384.297 202.084 C 384.375 200.701,384.374 198.541,384.295 197.284 C 384.216 196.028,384.152 197.160,384.153 199.800 M339.342 199.800 C 339.341 201.780,339.408 202.640,339.492 201.712 C 339.576 200.784,339.577 199.164,339.495 198.112 C 339.412 197.060,339.343 197.820,339.342 199.800 M349.728 200.000 C 349.728 201.430,349.801 202.015,349.889 201.300 C 349.978 200.585,349.978 199.415,349.889 198.700 C 349.801 197.985,349.728 198.570,349.728 200.000 M349.709 204.800 C 349.709 205.790,349.787 206.195,349.882 205.700 C 349.978 205.205,349.978 204.395,349.882 203.900 C 349.787 203.405,349.709 203.810,349.709 204.800 M60.524 205.800 C 60.526 207.120,60.601 207.612,60.690 206.893 C 60.779 206.174,60.777 205.094,60.686 204.493 C 60.595 203.892,60.522 204.480,60.524 205.800 M179.100 204.629 C 177.605 205.440,177.696 205.778,179.200 205.000 C 179.860 204.659,180.400 204.294,180.400 204.190 C 180.400 203.932,180.357 203.947,179.100 204.629 M50.093 207.200 C 50.093 207.970,50.175 208.285,50.276 207.900 C 50.376 207.515,50.376 206.885,50.276 206.500 C 50.175 206.115,50.093 206.430,50.093 207.200 M383.728 210.400 C 383.728 211.830,383.801 212.415,383.889 211.700 C 383.978 210.985,383.978 209.815,383.889 209.100 C 383.801 208.385,383.728 208.970,383.728 210.400 M16.120 212.000 C 16.120 213.210,16.195 213.705,16.287 213.100 C 16.378 212.495,16.378 211.505,16.287 210.900 C 16.195 210.295,16.120 210.790,16.120 212.000 M170.581 211.700 L 169.000 213.400 170.700 211.819 C 171.635 210.949,172.400 210.184,172.400 210.119 C 172.400 209.816,172.052 210.119,170.581 211.700 M383.309 216.000 C 383.309 216.990,383.387 217.395,383.482 216.900 C 383.578 216.405,383.578 215.595,383.482 215.100 C 383.387 214.605,383.309 215.010,383.309 216.000 M217.491 215.089 C 218.201 215.177,219.461 215.179,220.291 215.092 C 221.121 215.005,220.540 214.933,219.000 214.931 C 217.460 214.929,216.781 215.000,217.491 215.089 M16.501 217.000 C 16.505 217.880,16.587 218.193,16.683 217.695 C 16.779 217.198,16.775 216.478,16.675 216.095 C 16.575 215.713,16.496 216.120,16.501 217.000 M111.800 222.400 C 112.659 223.280,113.452 224.000,113.562 224.000 C 113.672 224.000,113.059 223.280,112.200 222.400 C 111.341 221.520,110.548 220.800,110.438 220.800 C 110.328 220.800,110.941 221.520,111.800 222.400 M175.800 229.094 C 210.387 229.369,236.306 229.372,236.138 229.100 C 236.036 228.935,219.448 228.842,199.276 228.894 C 179.104 228.946,168.540 229.036,175.800 229.094 M128.705 229.883 C 129.202 229.979,129.922 229.975,130.305 229.875 C 130.687 229.775,130.280 229.696,129.400 229.701 C 128.520 229.705,128.207 229.787,128.705 229.883 M135.334 233.200 C 135.334 234.850,135.405 235.525,135.491 234.700 C 135.578 233.875,135.578 232.525,135.491 231.700 C 135.405 230.875,135.334 231.550,135.334 233.200 M126.509 232.800 C 126.509 233.790,126.587 234.195,126.682 233.700 C 126.778 233.205,126.778 232.395,126.682 231.900 C 126.587 231.405,126.509 231.810,126.509 232.800 M281.693 233.200 C 281.693 233.970,281.775 234.285,281.876 233.900 C 281.976 233.515,281.976 232.885,281.876 232.500 C 281.775 232.115,281.693 232.430,281.693 233.200 M277.334 235.200 C 277.334 236.850,277.405 237.525,277.491 236.700 C 277.578 235.875,277.578 234.525,277.491 233.700 C 277.405 232.875,277.334 233.550,277.334 235.200 M121.724 236.600 C 121.726 237.920,121.801 238.412,121.890 237.693 C 121.979 236.974,121.977 235.894,121.886 235.293 C 121.795 234.692,121.722 235.280,121.724 236.600 M140.000 235.864 C 140.000 236.082,140.495 236.697,141.100 237.230 L 142.200 238.200 141.200 237.000 C 140.650 236.340,140.155 235.725,140.100 235.633 C 140.045 235.542,140.000 235.645,140.000 235.864 M282.114 237.400 C 282.117 238.500,282.195 238.903,282.287 238.295 C 282.379 237.686,282.377 236.786,282.282 236.295 C 282.187 235.803,282.111 236.300,282.114 237.400 M123.983 244.100 C 125.641 245.866,126.000 246.184,126.000 245.883 C 126.000 245.819,125.145 244.964,124.100 243.983 L 122.200 242.200 123.983 244.100 M135.400 249.600 C 137.150 251.360,138.671 252.800,138.781 252.800 C 138.891 252.800,137.550 251.360,135.800 249.600 C 134.050 247.840,132.529 246.400,132.419 246.400 C 132.309 246.400,133.650 247.840,135.400 249.600 M127.800 248.400 C 128.659 249.280,129.452 250.000,129.562 250.000 C 129.672 250.000,129.059 249.280,128.200 248.400 C 127.341 247.520,126.548 246.800,126.438 246.800 C 126.328 246.800,126.941 247.520,127.800 248.400 M171.000 250.800 C 172.083 251.900,173.060 252.800,173.170 252.800 C 173.280 252.800,172.483 251.900,171.400 250.800 C 170.317 249.700,169.340 248.800,169.230 248.800 C 169.120 248.800,169.917 249.700,171.000 250.800 M76.520 253.898 C 78.455 253.972,81.515 253.971,83.320 253.897 C 85.124 253.823,83.540 253.763,79.800 253.764 C 76.060 253.764,74.584 253.825,76.520 253.898 M144.711 253.893 C 145.651 253.978,147.091 253.977,147.911 253.891 C 148.730 253.805,147.960 253.736,146.200 253.737 C 144.440 253.739,143.770 253.809,144.711 253.893 M166.100 253.887 C 166.705 253.978,167.695 253.978,168.300 253.887 C 168.905 253.795,168.410 253.720,167.200 253.720 C 165.990 253.720,165.495 253.795,166.100 253.887 M228.900 253.897 C 230.385 253.974,232.815 253.974,234.300 253.897 C 235.785 253.820,234.570 253.757,231.600 253.757 C 228.630 253.757,227.415 253.820,228.900 253.897 M317.718 253.898 C 319.433 253.973,322.133 253.972,323.718 253.897 C 325.303 253.821,323.900 253.759,320.600 253.760 C 317.300 253.761,316.003 253.822,317.718 253.898 M335.665 263.017 C 334.995 264.488,335.123 264.802,335.847 263.465 C 336.186 262.840,336.388 262.254,336.296 262.163 C 336.205 262.071,335.921 262.456,335.665 263.017 M64.400 264.153 C 64.400 264.582,65.590 266.800,65.821 266.800 C 65.931 266.800,65.723 266.215,65.359 265.500 C 64.617 264.040,64.400 263.736,64.400 264.153 M34.400 280.953 C 34.400 281.382,35.590 283.600,35.821 283.600 C 35.931 283.600,35.723 283.015,35.359 282.300 C 34.617 280.840,34.400 280.536,34.400 280.953 M93.600 290.125 C 93.600 290.194,94.185 290.779,94.900 291.425 L 96.200 292.600 95.025 291.300 C 93.930 290.088,93.600 289.816,93.600 290.125 M303.381 292.900 L 301.800 294.600 303.500 293.019 C 305.081 291.548,305.384 291.200,305.081 291.200 C 305.016 291.200,304.251 291.965,303.381 292.900 M101.000 298.000 C 103.633 300.640,105.877 302.800,105.987 302.800 C 106.097 302.800,104.033 300.640,101.400 298.000 C 98.767 295.360,96.523 293.200,96.413 293.200 C 96.303 293.200,98.367 295.360,101.000 298.000 M93.800 305.600 C 96.654 308.460,99.078 310.800,99.188 310.800 C 99.298 310.800,97.054 308.460,94.200 305.600 C 91.346 302.740,88.922 300.400,88.812 300.400 C 88.702 300.400,90.946 302.740,93.800 305.600 M293.178 303.100 L 291.800 304.600 293.300 303.222 C 294.696 301.938,294.984 301.600,294.678 301.600 C 294.612 301.600,293.937 302.275,293.178 303.100 M305.792 305.700 L 302.200 309.400 305.900 305.808 C 309.336 302.472,309.782 302.000,309.492 302.000 C 309.432 302.000,307.767 303.665,305.792 305.700 M106.800 303.325 C 106.800 303.394,107.385 303.979,108.100 304.625 L 109.400 305.800 108.225 304.500 C 107.130 303.288,106.800 303.016,106.800 303.325 M63.200 323.400 C 63.946 324.170,64.647 324.800,64.757 324.800 C 64.867 324.800,64.346 324.170,63.600 323.400 C 62.854 322.630,62.153 322.000,62.043 322.000 C 61.933 322.000,62.454 322.630,63.200 323.400 M335.200 324.600 C 334.228 325.590,333.523 326.400,333.633 326.400 C 333.743 326.400,334.628 325.590,335.600 324.600 C 336.572 323.610,337.277 322.800,337.167 322.800 C 337.057 322.800,336.172 323.610,335.200 324.600 M135.600 323.398 C 135.600 323.667,139.649 325.684,139.829 325.505 C 139.911 325.423,138.993 324.873,137.789 324.282 C 136.585 323.692,135.600 323.294,135.600 323.398 M69.400 330.000 C 71.371 331.980,73.073 333.600,73.183 333.600 C 73.293 333.600,71.771 331.980,69.800 330.000 C 67.829 328.020,66.127 326.400,66.017 326.400 C 65.907 326.400,67.429 328.020,69.400 330.000 M266.400 333.800 C 264.530 334.768,263.139 335.569,263.309 335.580 C 263.734 335.608,270.000 332.438,270.000 332.196 C 270.000 331.924,270.170 331.849,266.400 333.800 M324.585 335.300 L 322.600 337.400 324.700 335.415 C 326.651 333.571,326.983 333.200,326.685 333.200 C 326.622 333.200,325.677 334.145,324.585 335.300 M76.400 336.600 C 77.146 337.370,77.847 338.000,77.957 338.000 C 78.067 338.000,77.546 337.370,76.800 336.600 C 76.054 335.830,75.353 335.200,75.243 335.200 C 75.133 335.200,75.654 335.830,76.400 336.600 M136.800 335.800 C 137.350 336.114,137.980 336.372,138.200 336.372 C 138.420 336.372,138.150 336.114,137.600 335.800 C 137.050 335.486,136.420 335.228,136.200 335.228 C 135.980 335.228,136.250 335.486,136.800 335.800 M195.107 339.090 C 195.826 339.179,196.906 339.177,197.507 339.086 C 198.108 338.995,197.520 338.922,196.200 338.924 C 194.880 338.926,194.388 339.001,195.107 339.090 M201.507 339.090 C 202.226 339.179,203.306 339.177,203.907 339.086 C 204.508 338.995,203.920 338.922,202.600 338.924 C 201.280 338.926,200.788 339.001,201.507 339.090 M192.100 349.476 C 192.485 349.576,193.115 349.576,193.500 349.476 C 193.885 349.375,193.570 349.293,192.800 349.293 C 192.030 349.293,191.715 349.375,192.100 349.476 M206.500 349.476 C 206.885 349.576,207.515 349.576,207.900 349.476 C 208.285 349.375,207.970 349.293,207.200 349.293 C 206.430 349.293,206.115 349.375,206.500 349.476 M284.700 363.227 C 283.875 363.663,283.200 364.108,283.200 364.218 C 283.200 364.327,283.920 364.049,284.800 363.600 C 285.680 363.151,286.400 362.697,286.400 362.592 C 286.400 362.330,286.397 362.331,284.700 363.227 M218.900 383.076 C 219.285 383.176,219.915 383.176,220.300 383.076 C 220.685 382.975,220.370 382.893,219.600 382.893 C 218.830 382.893,218.515 382.975,218.900 383.076 M183.900 383.482 C 184.395 383.578,185.205 383.578,185.700 383.482 C 186.195 383.387,185.790 383.309,184.800 383.309 C 183.810 383.309,183.405 383.387,183.900 383.482 M214.300 383.482 C 214.795 383.578,215.605 383.578,216.100 383.482 C 216.595 383.387,216.190 383.309,215.200 383.309 C 214.210 383.309,213.805 383.387,214.300 383.482 M189.700 383.891 C 190.525 383.978,191.875 383.978,192.700 383.891 C 193.525 383.805,192.850 383.734,191.200 383.734 C 189.550 383.734,188.875 383.805,189.700 383.891 M207.111 383.893 C 208.051 383.978,209.491 383.977,210.311 383.891 C 211.130 383.805,210.360 383.736,208.600 383.737 C 206.840 383.739,206.170 383.809,207.111 383.893 " stroke="none" fill="#fcbc84" fill-rule="evenodd"></path></g></svg>