<svg id="svg" version="1.1" xmlns="http://www.w3.org/2000/svg" xmlns:xlink="http://www.w3.org/1999/xlink" width="400" height="400" viewBox="0, 0, 400,400"><g id="svgg"><path id="path0" d="M76.752 135.926 C 76.558 136.435,76.397 137.515,76.394 138.326 C 76.391 139.137,76.116 140.583,75.783 141.539 C 75.449 142.496,75.071 145.286,74.942 147.739 C 74.803 150.377,74.468 152.691,74.122 153.400 C 73.780 154.103,73.389 156.764,73.180 159.825 C 72.983 162.698,72.563 165.670,72.246 166.428 C 71.929 167.187,71.541 169.966,71.385 172.604 C 71.228 175.242,70.860 178.120,70.568 179.000 C 70.275 179.880,69.841 183.030,69.602 186.000 C 69.363 188.970,68.978 192.037,68.746 192.815 C 67.859 195.790,69.038 202.558,70.771 204.451 C 72.981 206.863,73.824 207.569,74.776 207.807 C 75.339 207.947,76.085 208.319,76.433 208.632 C 76.781 208.946,78.131 209.398,79.433 209.638 C 80.735 209.878,81.980 210.212,82.200 210.382 C 82.610 210.698,84.786 211.301,84.817 211.108 C 84.827 211.048,84.988 209.151,85.175 206.892 C 85.362 204.632,85.740 202.513,86.015 202.182 C 86.313 201.823,86.642 199.525,86.829 196.490 C 87.002 193.690,87.405 190.770,87.724 190.000 C 88.043 189.230,88.425 186.530,88.573 184.000 C 88.721 181.470,89.094 178.500,89.401 177.400 C 89.709 176.300,90.162 172.970,90.408 170.000 C 90.654 167.030,91.093 163.880,91.383 163.000 C 91.673 162.120,92.041 159.510,92.200 157.200 C 92.359 154.890,92.758 152.201,93.086 151.225 C 93.414 150.249,93.828 147.227,94.006 144.509 C 94.184 141.791,94.501 139.349,94.710 139.083 C 95.262 138.381,95.666 136.439,95.421 135.666 C 95.232 135.071,94.251 135.000,86.157 135.000 L 77.104 135.000 76.752 135.926 M181.400 135.493 C 180.740 135.589,179.927 135.911,179.594 136.210 C 179.261 136.509,178.213 136.928,177.265 137.141 C 176.318 137.354,175.226 137.814,174.840 138.164 C 174.453 138.514,173.935 138.800,173.688 138.800 C 172.972 138.800,167.727 144.168,167.401 145.233 C 167.238 145.765,166.844 146.498,166.525 146.862 C 166.206 147.226,165.766 148.846,165.548 150.462 C 165.329 152.078,164.908 154.231,164.612 155.248 C 164.316 156.264,163.946 159.144,163.789 161.648 C 163.632 164.151,163.244 166.830,162.926 167.600 C 162.609 168.370,162.199 171.160,162.016 173.800 C 161.834 176.440,161.419 179.230,161.095 180.000 C 160.763 180.788,160.398 183.411,160.259 186.000 C 160.123 188.530,159.739 191.484,159.406 192.564 C 158.587 195.218,158.644 197.389,159.600 199.904 C 160.040 201.062,160.400 202.341,160.400 202.747 C 160.400 203.742,164.167 207.455,165.518 207.792 C 166.113 207.941,166.870 208.303,167.200 208.596 C 169.035 210.229,187.696 212.042,189.018 210.716 C 189.925 209.807,189.885 207.125,188.948 206.011 C 188.044 204.936,187.796 204.870,184.218 204.739 C 180.534 204.603,180.409 204.567,179.022 203.222 L 177.600 201.843 177.600 197.609 C 177.600 195.127,177.845 192.469,178.191 191.187 C 178.516 189.984,178.974 186.660,179.209 183.800 C 179.444 180.940,179.891 177.880,180.202 177.000 C 180.513 176.120,180.927 173.275,181.121 170.677 C 181.551 164.921,181.714 164.691,185.495 164.506 C 190.450 164.264,192.956 162.735,193.276 159.759 L 193.400 158.600 189.200 158.501 C 183.092 158.357,183.200 158.405,183.200 155.841 C 183.200 154.662,183.449 153.091,183.754 152.349 C 184.059 151.607,184.438 148.840,184.596 146.200 C 184.755 143.560,185.122 140.680,185.412 139.800 C 185.913 138.279,186.142 136.798,186.044 135.700 C 186.000 135.202,184.023 135.114,181.400 135.493 M123.000 154.042 C 122.340 154.247,119.509 154.585,116.709 154.792 C 113.883 155.002,111.124 155.421,110.509 155.733 C 109.899 156.043,108.250 156.495,106.845 156.738 C 102.972 157.407,102.374 158.639,101.615 167.497 C 101.356 170.524,100.907 173.720,100.617 174.600 C 100.327 175.480,99.960 178.090,99.801 180.400 C 99.642 182.710,99.251 185.320,98.932 186.200 C 98.612 187.080,98.208 189.960,98.033 192.600 C 97.838 195.532,97.459 197.979,97.057 198.887 C 96.641 199.828,96.391 201.518,96.376 203.487 C 96.363 205.199,96.204 207.500,96.022 208.600 C 95.579 211.287,95.303 211.211,105.160 211.098 L 113.720 211.000 114.268 209.416 C 114.570 208.545,115.005 205.575,115.235 202.816 C 115.466 200.057,115.918 196.990,116.240 196.000 C 116.562 195.010,116.935 192.220,117.068 189.800 C 117.217 187.115,117.548 184.932,117.918 184.200 C 118.298 183.449,118.640 181.102,118.833 177.929 C 119.003 175.139,119.361 172.447,119.629 171.946 C 119.897 171.445,120.271 169.503,120.461 167.629 C 120.896 163.342,121.143 163.097,126.002 162.136 C 131.826 160.985,135.319 168.294,132.611 175.967 C 132.316 176.804,131.949 179.539,131.796 182.045 C 131.636 184.659,131.269 187.111,130.934 187.800 C 130.604 188.478,130.206 191.088,130.017 193.800 C 129.834 196.440,129.415 199.230,129.087 200.000 C 128.707 200.892,128.438 203.140,128.345 206.200 L 128.200 211.000 136.000 211.117 C 147.588 211.291,146.797 211.881,147.420 202.600 C 147.567 200.400,147.932 197.970,148.229 197.200 C 148.527 196.430,148.948 193.490,149.164 190.666 C 149.381 187.842,149.774 185.272,150.037 184.956 C 150.309 184.628,150.651 182.184,150.829 179.290 C 151.018 176.244,151.396 173.603,151.772 172.713 C 152.561 170.844,152.601 166.465,151.839 165.377 C 151.531 164.937,151.070 163.803,150.815 162.856 C 150.216 160.631,146.885 157.359,144.601 156.751 C 143.720 156.517,142.718 156.074,142.374 155.767 C 142.020 155.452,140.103 155.036,137.974 154.812 C 135.898 154.593,133.571 154.231,132.803 154.007 C 131.091 153.508,124.643 153.531,123.000 154.042 M221.600 154.045 C 220.830 154.245,217.870 154.589,215.023 154.809 C 211.890 155.051,209.507 155.431,208.990 155.770 C 208.519 156.079,207.248 156.457,206.167 156.611 C 203.504 156.991,201.628 157.914,201.418 158.948 C 201.323 159.416,201.131 161.142,200.990 162.782 C 200.850 164.423,200.501 166.223,200.214 166.782 C 199.927 167.342,199.562 170.050,199.402 172.800 C 199.241 175.550,198.870 178.520,198.576 179.400 C 198.283 180.280,197.844 183.340,197.602 186.200 C 197.360 189.060,196.972 192.042,196.740 192.826 C 195.982 195.387,197.247 202.777,198.626 203.844 C 198.942 204.088,199.200 204.463,199.200 204.677 C 199.200 205.233,202.026 207.430,203.206 207.790 C 203.753 207.958,204.481 208.340,204.824 208.641 C 205.168 208.941,206.854 209.382,208.572 209.621 C 210.289 209.860,212.168 210.255,212.747 210.499 C 213.412 210.778,218.554 211.004,226.694 211.112 L 239.589 211.282 239.994 210.215 C 240.563 208.719,240.500 207.353,239.799 205.998 L 239.198 204.837 228.499 204.718 L 217.800 204.600 216.266 203.004 L 214.733 201.408 214.866 197.317 C 215.054 191.560,214.578 191.849,224.314 191.591 C 230.774 191.420,232.417 191.257,233.400 190.693 C 234.060 190.315,235.251 190.004,236.046 190.002 C 236.845 190.001,237.919 189.667,238.446 189.255 C 238.971 188.845,239.850 188.373,240.400 188.205 C 240.950 188.038,241.694 187.608,242.054 187.250 C 242.414 186.893,243.523 185.970,244.519 185.200 C 245.515 184.430,246.612 183.215,246.958 182.500 C 247.304 181.785,247.754 181.200,247.958 181.200 C 248.163 181.200,248.458 180.439,248.615 179.509 C 248.773 178.579,249.193 177.372,249.550 176.827 C 250.485 175.400,250.709 164.659,249.834 163.200 C 249.504 162.650,249.061 161.821,248.849 161.358 C 248.359 160.287,244.299 156.800,243.541 156.800 C 243.227 156.800,242.256 156.428,241.385 155.974 C 240.416 155.469,238.478 155.016,236.400 154.809 C 234.530 154.622,232.493 154.274,231.874 154.035 C 230.539 153.520,223.598 153.527,221.600 154.045 M280.916 154.007 C 280.430 154.202,277.495 154.553,274.394 154.787 C 270.899 155.050,268.422 155.425,267.878 155.774 C 267.395 156.084,266.100 156.460,265.000 156.610 C 263.900 156.759,262.345 157.302,261.545 157.817 L 260.090 158.752 259.801 162.876 C 259.642 165.144,259.248 167.720,258.925 168.600 C 258.601 169.480,258.201 172.395,258.035 175.078 C 257.852 178.049,257.533 180.199,257.219 180.577 C 256.906 180.954,256.559 183.279,256.334 186.499 C 256.131 189.414,255.706 192.610,255.390 193.600 C 255.075 194.590,254.703 197.200,254.564 199.400 C 254.425 201.600,253.965 205.004,253.540 206.965 C 252.557 211.510,251.965 211.234,262.428 211.108 L 271.400 211.000 271.722 208.800 C 271.898 207.590,272.300 205.610,272.615 204.400 C 272.929 203.190,273.358 200.133,273.566 197.606 C 274.018 192.143,274.399 191.596,277.744 191.606 C 280.411 191.614,281.258 192.368,285.600 198.598 C 287.316 201.060,288.757 202.975,289.391 203.634 C 289.726 203.982,290.000 204.446,290.000 204.666 C 290.000 204.885,290.713 205.860,291.585 206.832 C 292.457 207.804,293.402 209.050,293.685 209.600 C 293.967 210.150,294.424 210.744,294.699 210.920 C 294.975 211.096,295.200 211.427,295.200 211.656 C 295.200 211.885,295.975 213.001,296.922 214.136 C 298.531 216.064,299.646 217.590,300.600 219.168 C 300.820 219.532,301.227 220.093,301.505 220.415 C 302.898 222.030,304.400 224.154,304.400 224.509 C 304.400 224.729,304.805 225.309,305.300 225.798 C 305.795 226.287,306.517 227.118,306.904 227.644 C 307.290 228.170,308.055 229.166,308.604 229.858 C 309.152 230.550,309.600 231.304,309.600 231.535 C 309.600 231.766,309.915 232.193,310.300 232.483 C 310.999 233.011,311.414 233.575,312.711 235.759 C 313.090 236.396,313.715 237.201,314.100 237.548 C 314.485 237.894,314.800 238.398,314.800 238.666 C 314.800 238.935,315.117 239.390,315.505 239.677 C 316.195 240.190,316.658 240.786,318.549 243.600 C 320.224 246.091,322.591 248.182,324.619 248.961 C 326.925 249.847,332.000 250.304,332.000 249.627 C 332.000 249.088,329.651 244.879,329.193 244.595 C 329.011 244.483,328.747 243.872,328.608 243.237 C 328.469 242.602,328.005 241.766,327.577 241.379 C 327.150 240.993,326.800 240.366,326.800 239.987 C 326.800 239.608,326.502 239.051,326.138 238.749 C 325.774 238.447,325.222 237.660,324.911 237.000 C 324.600 236.340,323.909 235.080,323.375 234.200 C 322.842 233.320,322.114 231.973,321.759 231.207 C 321.403 230.440,320.771 229.381,320.356 228.853 C 319.940 228.324,319.600 227.616,319.600 227.280 C 319.600 226.943,319.326 226.382,318.990 226.034 C 318.197 225.210,316.400 222.453,316.400 222.060 C 316.400 221.892,315.950 221.145,315.400 220.400 C 314.850 219.655,314.400 218.747,314.400 218.384 C 314.400 218.021,314.050 217.407,313.623 217.021 C 313.195 216.634,312.731 215.797,312.591 215.161 C 312.452 214.525,312.101 213.869,311.812 213.702 C 311.523 213.536,310.995 212.770,310.640 212.000 C 310.285 211.230,309.552 209.880,309.011 209.000 C 308.471 208.120,307.762 206.846,307.437 206.168 C 307.112 205.491,306.577 204.713,306.249 204.441 C 305.920 204.168,305.533 203.405,305.388 202.745 C 305.243 202.086,304.872 201.449,304.562 201.330 C 304.253 201.212,304.000 200.889,304.000 200.613 C 304.000 200.337,303.550 199.449,303.000 198.638 C 302.450 197.828,302.000 196.930,302.000 196.644 C 302.000 196.358,301.650 195.807,301.223 195.421 C 300.795 195.034,300.331 194.197,300.191 193.561 C 300.052 192.925,299.680 192.260,299.364 192.084 C 299.049 191.907,298.626 191.187,298.424 190.482 C 298.016 189.060,298.139 188.878,300.647 187.200 C 303.306 185.421,307.200 181.096,307.200 179.921 C 307.200 179.618,307.584 178.656,308.053 177.785 C 308.986 176.050,309.572 167.872,309.024 164.220 C 308.731 162.270,304.147 156.800,302.805 156.800 C 302.456 156.800,301.456 156.435,300.585 155.989 C 299.636 155.504,297.555 155.025,295.400 154.796 C 293.420 154.586,291.171 154.231,290.403 154.007 C 288.707 153.513,282.143 153.513,280.916 154.007 M229.874 163.642 C 231.436 164.474,231.743 166.011,231.460 171.595 C 230.997 180.751,228.730 183.311,221.260 183.113 L 217.000 183.000 216.875 181.707 C 216.806 180.995,217.021 179.357,217.352 178.067 C 217.682 176.776,218.162 173.398,218.419 170.560 C 218.675 167.722,219.132 164.921,219.434 164.337 C 220.552 162.171,226.383 161.783,229.874 163.642 M288.132 163.346 C 290.443 164.311,291.969 168.616,290.785 170.829 C 290.556 171.255,290.276 172.818,290.161 174.302 C 289.675 180.587,286.846 183.200,280.528 183.200 C 275.405 183.200,274.520 182.159,276.208 178.119 C 276.542 177.319,276.925 174.760,277.058 172.432 C 277.191 170.104,277.531 167.660,277.814 167.000 C 278.097 166.340,278.493 165.260,278.694 164.600 C 279.333 162.502,284.476 161.818,288.132 163.346 " stroke="none" fill="#1a1a19" fill-rule="evenodd"></path><path id="path1" d="M0.000 200.000 L 0.000 400.000 200.000 400.000 L 400.000 400.000 400.000 200.000 L 400.000 0.000 200.000 0.000 L 0.000 0.000 0.000 200.000 M95.920 133.680 C 96.580 134.340,96.514 138.821,95.797 142.000 C 95.474 143.430,94.948 147.120,94.627 150.200 C 94.306 153.280,93.864 156.340,93.643 157.000 C 93.423 157.660,93.053 160.394,92.821 163.076 C 92.589 165.757,92.207 168.457,91.972 169.074 C 91.737 169.692,91.372 172.358,91.160 174.999 C 90.948 177.639,90.525 180.520,90.219 181.400 C 89.914 182.280,89.545 184.800,89.401 187.000 C 89.257 189.200,88.806 192.710,88.400 194.800 C 87.994 196.890,87.557 200.040,87.429 201.800 C 87.201 204.934,86.216 210.010,85.605 211.200 C 85.183 212.023,80.437 211.975,79.137 211.134 C 78.622 210.801,77.637 210.419,76.950 210.284 C 69.445 208.818,65.376 199.075,67.809 188.400 C 68.135 186.970,68.593 183.730,68.827 181.200 C 69.060 178.670,69.500 175.610,69.804 174.400 C 70.107 173.190,70.468 170.580,70.605 168.600 C 70.743 166.620,71.185 163.470,71.589 161.600 C 71.992 159.730,72.436 156.580,72.574 154.600 C 72.713 152.620,73.015 150.280,73.246 149.400 C 73.476 148.520,73.920 145.280,74.232 142.200 C 74.799 136.596,75.231 134.826,76.291 133.766 C 77.051 133.006,95.167 132.927,95.920 133.680 M187.044 138.400 C 186.904 140.490,186.530 143.100,186.212 144.200 C 185.406 146.988,184.739 155.644,185.280 156.296 C 185.559 156.633,186.886 156.800,189.275 156.800 C 194.365 156.800,195.164 157.401,194.353 160.619 C 193.533 163.879,191.103 165.599,187.309 165.606 C 182.874 165.615,182.838 165.684,181.792 176.173 C 181.486 179.239,181.054 182.209,180.831 182.773 C 180.608 183.338,180.234 185.965,180.000 188.610 C 179.766 191.256,179.313 194.406,178.992 195.610 C 177.631 200.726,179.466 203.598,184.100 203.602 C 189.968 203.607,192.213 206.231,190.410 210.974 L 190.020 212.000 181.910 211.990 C 177.449 211.985,173.170 211.815,172.400 211.613 C 168.946 210.705,166.606 209.824,164.334 208.575 C 163.014 207.849,159.600 204.426,159.600 203.828 C 159.600 203.586,159.240 202.716,158.800 201.896 C 157.780 199.992,157.639 191.493,158.582 188.714 C 158.901 187.771,159.351 184.750,159.581 182.000 C 159.811 179.250,160.249 175.920,160.555 174.600 C 160.861 173.280,161.232 170.490,161.379 168.400 C 161.526 166.310,161.904 163.610,162.219 162.400 C 162.534 161.190,162.956 158.293,163.157 155.962 C 163.749 149.106,165.431 144.810,168.945 141.175 C 170.931 139.122,174.721 136.400,175.594 136.400 C 175.875 136.400,176.667 136.059,177.353 135.642 C 178.039 135.225,179.524 134.761,180.653 134.611 C 181.783 134.461,183.403 134.097,184.253 133.803 C 186.874 132.896,187.358 133.694,187.044 138.400 M138.400 153.321 C 139.390 153.654,140.830 154.044,141.600 154.186 C 143.173 154.477,147.039 156.277,148.068 157.197 C 149.540 158.513,149.822 158.788,150.400 159.467 C 153.299 162.872,154.133 170.186,152.446 177.400 C 152.035 179.160,151.585 182.300,151.448 184.378 C 151.310 186.456,150.942 189.156,150.629 190.378 C 150.317 191.600,149.853 194.843,149.599 197.585 C 149.345 200.327,148.973 202.876,148.773 203.250 C 148.574 203.623,148.291 205.477,148.146 207.369 C 148.000 209.261,147.683 211.071,147.441 211.392 C 147.048 211.910,137.772 212.209,127.914 212.021 C 126.261 211.989,125.908 210.919,126.635 208.145 C 126.974 206.855,127.407 203.896,127.599 201.568 C 127.790 199.240,128.217 196.090,128.547 194.568 C 128.877 193.046,129.346 189.750,129.589 187.245 C 129.832 184.740,130.183 182.400,130.371 182.045 C 130.558 181.690,130.905 179.058,131.143 176.197 C 131.380 173.335,131.783 170.394,132.039 169.661 C 133.251 166.183,130.900 164.014,125.909 164.005 C 121.972 163.999,121.809 164.223,121.257 170.414 C 121.031 172.952,120.654 175.531,120.420 176.146 C 120.186 176.762,119.806 179.455,119.575 182.133 C 119.343 184.810,118.968 187.720,118.740 188.600 C 118.512 189.480,118.091 192.480,117.805 195.266 C 117.519 198.052,117.089 200.932,116.850 201.666 C 116.612 202.400,116.256 204.770,116.060 206.934 C 115.557 212.497,116.356 212.137,104.737 212.036 C 93.042 211.934,93.214 212.014,94.581 207.373 C 94.900 206.288,95.356 203.118,95.593 200.330 C 95.831 197.541,96.275 194.391,96.580 193.330 C 96.885 192.268,97.259 189.510,97.412 187.200 C 97.565 184.890,97.927 182.280,98.216 181.400 C 98.506 180.520,98.941 177.550,99.182 174.800 C 99.424 172.050,99.886 168.816,100.211 167.613 C 100.535 166.410,100.811 164.610,100.824 163.613 C 100.886 158.919,102.259 156.000,104.406 156.000 C 104.826 156.000,106.069 155.646,107.167 155.213 C 108.265 154.780,110.387 154.306,111.882 154.159 C 113.377 154.012,114.954 153.709,115.387 153.485 C 117.638 152.322,135.062 152.198,138.400 153.321 M234.354 152.808 C 235.979 153.019,237.509 153.349,237.754 153.541 C 237.999 153.733,238.934 154.003,239.831 154.139 C 243.203 154.652,247.730 157.492,249.604 160.269 C 252.341 164.323,252.560 174.720,250.009 179.480 C 249.564 180.309,249.200 181.187,249.200 181.431 C 249.200 182.500,243.626 188.130,241.847 188.856 C 241.161 189.137,240.369 189.592,240.087 189.867 C 239.805 190.143,238.905 190.486,238.087 190.629 C 237.269 190.773,236.181 191.153,235.669 191.475 C 234.624 192.131,225.555 193.170,220.709 193.188 C 217.046 193.202,216.497 193.701,216.120 197.355 C 215.542 202.958,216.700 203.501,229.588 203.669 L 239.636 203.800 240.818 205.154 C 242.296 206.848,242.523 210.203,241.238 211.366 C 239.775 212.690,209.530 212.201,207.816 210.825 C 207.587 210.641,206.640 210.365,205.712 210.212 C 204.783 210.059,203.585 209.589,203.049 209.167 C 202.513 208.745,201.876 208.400,201.635 208.400 C 200.764 208.400,197.215 204.309,196.171 202.102 C 194.937 199.494,194.902 190.316,196.113 187.000 C 196.434 186.120,196.813 183.510,196.956 181.200 C 197.098 178.890,197.466 176.167,197.774 175.149 C 198.081 174.131,198.449 171.611,198.592 169.549 C 198.882 165.373,200.303 157.885,200.982 156.956 C 201.224 156.626,202.227 156.179,203.211 155.963 C 204.195 155.748,205.540 155.325,206.200 155.022 C 206.860 154.720,208.660 154.344,210.200 154.187 C 211.740 154.030,213.327 153.730,213.727 153.522 C 215.542 152.576,228.981 152.111,234.354 152.808 M293.154 152.808 C 294.779 153.019,296.309 153.349,296.554 153.541 C 296.799 153.732,297.841 153.999,298.869 154.133 C 306.699 155.152,312.769 164.171,310.760 171.800 C 310.528 172.680,310.170 174.469,309.964 175.775 C 309.759 177.081,309.233 178.756,308.795 179.498 C 308.358 180.239,308.000 181.032,308.000 181.260 C 308.000 182.497,301.702 188.800,300.466 188.800 C 299.321 188.800,300.271 192.550,301.684 193.614 C 301.841 193.732,302.236 194.466,302.561 195.246 C 302.887 196.026,303.417 196.882,303.738 197.148 C 304.059 197.415,304.430 198.063,304.562 198.589 C 304.694 199.115,305.521 200.629,306.401 201.954 C 307.280 203.278,308.000 204.526,308.000 204.727 C 308.000 204.928,308.349 205.536,308.775 206.078 C 309.202 206.620,309.671 207.544,309.819 208.132 C 309.966 208.719,310.246 209.200,310.440 209.200 C 310.635 209.200,311.147 209.875,311.578 210.700 C 312.010 211.525,312.739 212.920,313.198 213.800 C 313.658 214.680,314.473 216.120,315.009 217.000 C 315.545 217.880,316.302 219.230,316.692 220.000 C 317.081 220.770,317.533 221.459,317.695 221.532 C 317.858 221.604,318.359 222.414,318.810 223.332 C 319.659 225.062,320.560 226.665,322.222 229.400 C 322.757 230.280,323.486 231.630,323.842 232.400 C 324.198 233.170,324.629 233.890,324.800 234.000 C 324.971 234.110,325.407 234.830,325.769 235.600 C 326.132 236.370,326.868 237.720,327.406 238.600 C 327.943 239.480,328.702 240.830,329.092 241.600 C 329.481 242.370,329.910 243.090,330.044 243.200 C 330.178 243.310,330.605 244.030,330.992 244.800 C 331.380 245.570,331.919 246.470,332.192 246.800 C 333.311 248.157,333.678 250.153,332.913 250.729 C 331.693 251.648,325.221 251.189,323.817 250.085 C 323.198 249.598,322.491 249.194,322.246 249.186 C 321.416 249.159,314.000 240.249,314.000 239.278 C 314.000 239.121,313.640 238.768,313.200 238.493 C 312.760 238.218,312.400 237.798,312.400 237.560 C 312.400 237.322,312.031 236.648,311.580 236.063 C 311.129 235.478,309.878 233.830,308.800 232.400 C 307.722 230.970,306.471 229.322,306.020 228.737 C 305.569 228.152,305.200 227.483,305.200 227.251 C 305.200 227.018,304.840 226.635,304.400 226.400 C 303.960 226.165,303.600 225.803,303.600 225.597 C 303.600 225.391,302.430 223.689,301.000 221.815 C 299.570 219.941,298.400 218.294,298.400 218.156 C 298.400 218.018,297.905 217.327,297.300 216.620 C 295.459 214.469,294.400 213.043,294.400 212.713 C 294.400 212.541,294.032 211.995,293.581 211.500 C 292.149 209.925,291.772 209.444,290.371 207.400 C 289.617 206.300,288.235 204.438,287.300 203.263 C 286.365 202.088,285.600 200.916,285.600 200.660 C 285.600 200.403,285.240 199.968,284.800 199.693 C 284.360 199.418,284.000 198.985,284.000 198.730 C 284.000 198.475,283.729 197.982,283.399 197.634 C 282.092 196.256,280.000 193.504,280.000 193.162 C 280.000 192.963,279.142 192.800,278.094 192.800 L 276.188 192.800 275.484 194.782 C 275.097 195.872,274.520 199.337,274.203 202.482 C 273.566 208.786,272.711 211.993,271.662 212.012 C 254.147 212.339,251.345 212.032,251.785 209.835 C 251.877 209.376,252.059 207.616,252.190 205.924 C 252.322 204.232,252.678 201.982,252.982 200.924 C 253.285 199.866,253.654 197.290,253.800 195.200 C 253.947 193.110,254.319 190.394,254.627 189.166 C 254.936 187.937,255.379 184.732,255.612 182.043 C 255.846 179.355,256.223 176.670,256.451 176.078 C 256.679 175.485,257.126 172.413,257.444 169.252 C 257.763 166.090,258.198 163.177,258.412 162.778 C 258.625 162.379,258.800 161.438,258.800 160.686 C 258.800 157.845,260.155 156.000,262.241 156.000 C 262.572 156.000,263.599 155.658,264.522 155.239 C 265.445 154.821,267.460 154.349,269.000 154.190 C 270.540 154.031,272.134 153.727,272.542 153.514 C 274.321 152.586,287.868 152.122,293.154 152.808 M221.075 164.300 C 220.980 164.465,220.780 165.500,220.630 166.600 C 220.480 167.700,220.111 169.410,219.810 170.400 C 219.018 173.003,218.596 181.073,219.214 181.817 C 220.283 183.104,225.894 181.888,227.833 179.949 C 230.391 177.391,231.494 166.927,229.400 165.083 C 228.201 164.026,221.590 163.405,221.075 164.300 M279.957 164.100 C 279.116 166.035,277.383 179.883,277.783 181.475 C 278.063 182.590,282.640 182.720,283.717 181.643 C 283.961 181.399,284.439 181.194,284.780 181.187 C 287.199 181.135,289.171 176.434,289.304 170.407 L 289.400 166.006 288.238 165.003 C 287.231 164.134,280.271 163.375,279.957 164.100 M243.227 218.625 C 244.018 219.340,243.951 220.804,242.910 225.534 C 242.132 229.070,242.079 229.016,246.536 229.300 C 248.331 229.414,250.700 229.786,251.800 230.126 C 252.900 230.465,254.281 230.846,254.868 230.971 C 256.749 231.373,259.512 234.542,259.830 236.662 C 260.204 239.156,259.680 247.573,259.005 249.911 C 258.705 250.950,258.347 253.420,258.210 255.400 C 257.500 265.647,256.975 266.400,250.538 266.400 C 244.922 266.400,243.650 265.853,244.176 263.661 C 244.316 263.077,244.683 260.260,244.992 257.400 C 245.300 254.540,245.740 251.582,245.969 250.827 C 246.529 248.984,247.326 239.358,247.021 238.141 C 246.602 236.470,243.086 235.754,241.916 237.100 C 241.109 238.028,240.912 238.975,240.407 244.321 C 240.173 246.803,239.729 250.041,239.421 251.517 C 239.112 252.993,238.648 256.450,238.390 259.200 C 237.967 263.707,237.818 264.310,236.875 265.311 L 235.829 266.423 230.819 266.311 C 224.453 266.170,224.643 266.434,225.447 258.815 C 225.759 255.854,226.183 252.794,226.388 252.015 C 226.593 251.237,227.043 248.012,227.388 244.850 C 227.733 241.687,228.101 238.959,228.207 238.788 C 228.313 238.617,228.663 236.101,228.986 233.197 C 229.308 230.292,229.735 227.710,229.934 227.458 C 230.133 227.206,230.513 226.325,230.779 225.501 C 232.147 221.251,240.830 216.455,243.227 218.625 M290.125 222.453 C 290.705 223.373,289.803 225.379,288.554 225.948 C 287.152 226.587,274.323 226.563,273.680 225.920 C 273.089 225.329,273.056 223.417,273.619 222.365 C 274.204 221.271,289.431 221.352,290.125 222.453 M93.171 229.984 C 94.207 230.539,98.414 230.373,102.600 229.612 C 109.384 228.379,117.735 230.481,120.407 234.095 C 121.852 236.050,121.826 247.253,120.364 252.034 C 120.135 252.785,119.699 255.898,119.396 258.950 C 118.648 266.487,118.732 266.400,112.159 266.400 C 106.872 266.400,106.000 266.094,106.000 264.241 C 106.000 262.323,106.868 254.531,107.230 253.200 C 107.630 251.730,108.911 240.995,108.913 239.095 C 108.916 236.871,105.010 235.223,103.710 236.900 C 103.052 237.749,102.077 242.768,101.594 247.800 C 101.340 250.440,100.893 253.680,100.601 255.000 C 100.310 256.320,99.947 259.001,99.795 260.957 C 99.388 266.201,99.035 266.458,92.434 266.311 C 85.915 266.167,85.403 264.879,87.778 254.600 C 88.083 253.280,88.453 250.513,88.600 248.451 C 88.747 246.389,89.121 243.869,89.430 242.851 C 90.674 238.750,89.587 236.400,86.447 236.400 C 84.297 236.400,83.765 237.074,83.476 240.166 C 83.341 241.612,83.063 243.112,82.858 243.498 C 82.653 243.884,82.357 246.000,82.200 248.200 C 82.043 250.400,81.574 253.885,81.157 255.944 C 80.741 258.003,80.400 260.756,80.400 262.062 C 80.400 265.954,79.687 266.400,73.467 266.400 C 66.927 266.400,66.426 265.627,68.170 258.233 C 68.486 256.895,68.858 254.090,68.998 252.000 C 69.138 249.910,69.429 247.390,69.646 246.400 C 69.862 245.410,70.297 242.080,70.612 239.000 C 71.259 232.670,71.902 231.518,75.082 230.992 C 75.917 230.854,78.310 230.399,80.400 229.982 C 84.610 229.140,91.595 229.141,93.171 229.984 M145.600 229.601 C 150.267 230.516,151.399 230.867,152.956 231.881 C 153.876 232.481,155.144 233.762,155.774 234.729 L 156.919 236.487 156.677 241.857 C 156.543 244.810,156.169 248.255,155.844 249.513 C 155.520 250.771,155.049 254.140,154.799 257.000 C 154.307 262.610,153.485 264.582,151.482 264.961 C 150.997 265.052,149.700 265.333,148.600 265.584 C 147.500 265.835,145.880 266.203,145.000 266.403 C 139.097 267.740,128.924 266.319,125.839 263.727 C 122.844 261.212,121.754 256.077,123.386 252.173 C 123.724 251.364,124.000 250.394,124.000 250.017 C 124.000 246.238,131.670 242.228,139.988 241.659 L 143.777 241.400 144.120 239.659 C 144.939 235.506,143.704 234.800,135.623 234.800 C 128.886 234.800,128.568 234.674,129.231 232.273 C 130.009 229.456,138.114 228.133,145.600 229.601 M185.633 230.333 C 194.864 232.767,196.847 242.833,189.518 250.049 C 187.447 252.088,186.498 254.000,187.556 254.000 C 187.752 254.000,188.298 254.765,188.769 255.700 C 189.240 256.635,190.061 258.120,190.594 259.000 C 191.126 259.880,191.785 261.050,192.058 261.600 C 192.331 262.150,192.803 262.899,193.107 263.265 C 193.411 263.630,193.601 264.440,193.530 265.065 L 193.400 266.200 188.168 266.311 C 182.021 266.442,181.760 266.323,179.569 262.398 C 178.816 261.049,177.793 259.282,177.297 258.472 C 176.800 257.663,176.172 256.498,175.903 255.884 C 175.431 254.811,174.147 254.151,173.165 254.478 C 172.534 254.689,171.252 259.732,171.223 262.120 C 171.210 263.176,170.925 264.571,170.590 265.220 L 169.979 266.400 164.599 266.400 C 157.271 266.400,157.211 266.298,159.176 257.200 C 159.390 256.210,159.580 254.500,159.598 253.400 C 159.617 252.300,159.892 250.050,160.209 248.400 C 160.527 246.750,161.068 242.790,161.411 239.600 C 162.219 232.086,162.616 231.572,168.400 230.569 C 170.490 230.207,173.010 229.763,174.000 229.583 C 176.742 229.086,182.250 229.441,185.633 230.333 M223.513 230.201 C 226.024 231.032,226.538 231.809,226.175 234.226 C 225.823 236.576,225.292 236.782,221.200 236.155 C 212.265 234.786,210.607 235.915,209.985 243.791 C 209.793 246.216,209.441 248.830,209.203 249.600 C 208.965 250.370,208.661 252.828,208.527 255.062 L 208.284 259.124 210.025 260.013 C 211.688 260.861,211.910 260.878,214.983 260.384 C 216.752 260.099,219.100 259.852,220.200 259.833 L 222.200 259.800 222.324 261.742 C 222.553 265.339,219.276 266.800,210.984 266.800 C 198.302 266.800,193.408 261.402,196.170 250.458 C 196.483 249.216,196.862 246.481,197.011 244.380 C 197.566 236.591,201.100 231.888,207.399 230.559 C 208.719 230.280,210.430 229.867,211.200 229.641 C 213.304 229.023,221.015 229.374,223.513 230.201 M286.000 229.592 C 286.770 229.797,288.390 230.216,289.600 230.524 C 300.362 233.263,299.035 249.897,287.800 253.087 C 283.689 254.255,282.928 254.381,279.933 254.390 C 275.480 254.404,274.472 255.781,275.990 259.774 L 276.380 260.800 282.546 260.800 C 287.846 260.800,288.824 260.898,289.513 261.500 C 290.751 262.580,290.932 264.124,289.966 265.352 L 289.142 266.400 282.585 266.400 C 271.279 266.400,266.594 265.042,263.907 260.985 L 262.687 259.144 262.898 254.072 C 263.014 251.282,263.385 248.010,263.723 246.800 C 264.061 245.590,264.544 242.267,264.796 239.415 C 265.451 232.017,265.828 231.533,271.735 230.523 C 273.751 230.178,276.120 229.762,277.000 229.598 C 279.332 229.164,284.380 229.161,286.000 229.592 M175.721 236.680 C 175.011 236.817,174.794 237.211,174.597 238.725 C 174.462 239.756,174.157 241.911,173.919 243.514 C 173.166 248.580,177.804 249.421,179.993 244.615 C 182.388 239.359,180.451 235.762,175.721 236.680 M278.900 236.663 C 278.405 236.769,277.994 236.978,277.987 237.128 C 277.980 237.278,277.727 239.366,277.426 241.769 C 276.816 246.633,276.882 247.105,278.223 247.441 C 281.325 248.220,283.614 245.540,283.907 240.787 C 284.143 236.964,282.772 235.835,278.900 236.663 M138.494 249.083 C 136.952 249.379,135.884 252.081,135.839 255.798 L 135.800 258.996 137.240 259.354 C 140.019 260.044,141.525 259.422,141.761 257.486 C 141.875 256.559,142.150 254.450,142.372 252.800 C 142.895 248.930,142.293 248.353,138.494 249.083 " stroke="none" fill="#fbfbfb" fill-rule="evenodd"></path><path id="path2" d="M237.671 220.039 C 232.127 222.647,230.513 225.766,229.413 236.002 C 229.070 239.191,228.622 242.520,228.417 243.400 C 228.212 244.280,227.845 246.962,227.602 249.360 C 227.359 251.759,226.914 254.819,226.613 256.160 C 225.662 260.401,225.446 264.175,226.124 264.737 C 227.035 265.493,236.015 265.199,236.415 264.400 C 237.000 263.232,237.645 259.675,238.200 254.569 C 238.508 251.726,238.956 248.770,239.195 248.000 C 239.434 247.230,239.773 244.546,239.949 242.036 C 240.248 237.752,240.335 237.415,241.356 236.536 C 244.539 233.799,249.441 237.239,248.048 241.233 C 247.798 241.952,247.407 244.713,247.181 247.370 C 246.954 250.026,246.606 252.592,246.407 253.070 C 245.925 254.227,245.037 263.798,245.338 264.583 C 245.534 265.093,246.438 265.200,250.556 265.200 L 255.538 265.200 255.923 263.900 C 256.666 261.393,257.232 258.156,257.795 253.200 C 258.108 250.450,258.655 246.400,259.012 244.200 C 260.634 234.199,258.412 231.667,246.851 230.342 C 241.231 229.698,241.248 229.719,242.215 224.368 C 243.214 218.847,243.233 219.013,241.600 218.925 C 240.748 218.879,239.211 219.314,237.671 220.039 M274.480 222.480 C 273.840 223.120,273.856 225.590,274.500 225.635 C 276.279 225.760,287.807 225.495,288.266 225.319 C 289.195 224.963,290.041 223.001,289.500 222.460 C 288.843 221.803,275.138 221.822,274.480 222.480 M79.469 230.985 C 72.162 231.912,71.888 232.243,71.202 241.000 C 70.978 243.860,70.620 246.740,70.407 247.400 C 70.193 248.060,69.749 251.390,69.418 254.800 C 69.088 258.210,68.622 261.687,68.383 262.527 C 67.684 264.977,68.117 265.200,73.573 265.200 C 79.820 265.200,79.616 265.390,80.020 259.170 C 80.197 256.436,80.514 253.750,80.723 253.200 C 80.932 252.650,81.316 249.985,81.577 247.278 C 82.508 237.606,83.314 235.600,86.264 235.600 C 90.567 235.600,91.594 238.491,89.784 245.506 C 89.485 246.664,89.131 249.184,88.997 251.106 C 88.863 253.028,88.491 255.770,88.169 257.200 C 87.848 258.630,87.544 260.970,87.493 262.400 L 87.400 265.000 92.428 265.111 C 98.856 265.254,98.573 265.536,99.377 258.187 C 99.714 255.114,100.159 251.880,100.366 251.000 C 100.573 250.120,100.947 247.240,101.197 244.600 C 101.952 236.616,102.695 235.304,106.233 235.703 C 109.011 236.016,110.114 237.258,109.870 239.799 C 109.467 244.007,108.321 252.387,107.546 256.800 C 107.102 259.330,106.798 262.210,106.869 263.200 L 107.000 265.000 111.827 265.112 C 116.039 265.209,116.735 265.133,117.287 264.512 C 118.002 263.706,119.198 257.297,119.205 254.230 C 119.207 253.113,119.487 251.210,119.827 250.000 C 120.187 248.717,120.543 245.248,120.681 241.675 L 120.917 235.550 118.850 233.610 C 116.146 231.072,113.567 230.538,105.000 230.745 C 96.601 230.947,94.083 230.936,88.600 230.669 C 85.515 230.519,82.253 230.632,79.469 230.985 M131.200 230.918 C 130.429 231.308,130.200 231.735,130.200 232.781 L 130.200 234.138 135.073 234.040 C 137.753 233.987,140.779 234.068,141.799 234.221 C 146.729 234.960,146.583 242.390,141.638 242.406 C 138.327 242.417,131.519 243.875,129.498 245.006 C 123.210 248.526,121.456 259.450,126.556 263.339 C 132.423 267.814,153.200 266.264,153.200 261.351 C 153.200 260.799,153.363 260.044,153.561 259.672 C 153.760 259.301,154.124 256.927,154.369 254.398 C 154.615 251.869,155.188 247.562,155.643 244.827 C 157.575 233.199,154.250 230.419,138.400 230.414 C 134.191 230.412,131.879 230.574,131.200 230.918 M170.746 231.015 C 163.226 231.929,162.959 232.293,161.810 243.220 C 161.497 246.201,161.048 249.147,160.813 249.766 C 160.577 250.386,160.285 252.536,160.164 254.546 C 160.043 256.556,159.657 259.611,159.306 261.336 C 158.504 265.285,158.361 265.186,164.873 265.194 C 170.791 265.201,170.251 265.704,170.773 259.692 C 171.150 255.354,171.553 254.196,172.828 253.791 C 174.949 253.118,175.512 253.736,180.169 261.839 C 182.160 265.303,182.026 265.243,187.457 265.113 L 192.200 265.000 192.137 263.665 C 192.103 262.931,191.725 261.941,191.298 261.465 C 190.871 260.989,189.923 259.520,189.191 258.200 C 188.459 256.880,187.532 255.371,187.130 254.846 C 185.855 253.180,186.199 252.243,189.200 249.200 C 191.249 247.122,192.004 246.071,192.014 245.280 C 192.022 244.686,192.273 243.059,192.572 241.664 C 193.425 237.688,192.421 234.618,189.649 232.725 C 186.453 230.542,179.678 229.929,170.746 231.015 M208.869 230.984 C 207.037 231.285,205.223 231.817,204.837 232.166 C 204.452 232.515,203.959 232.800,203.742 232.800 C 201.222 232.800,198.389 238.818,197.622 245.800 C 197.224 249.419,196.563 254.209,196.194 256.143 C 195.855 257.922,197.543 261.821,199.246 263.188 C 204.661 267.541,221.733 266.655,221.733 262.022 C 221.733 260.349,221.551 260.258,219.208 260.761 C 215.683 261.517,209.855 261.335,208.744 260.434 C 207.704 259.589,207.540 252.533,208.464 248.401 C 208.686 247.410,209.103 244.753,209.391 242.495 C 210.331 235.127,212.777 233.732,222.059 235.265 C 225.331 235.805,225.673 235.582,225.504 233.014 C 225.409 231.559,225.285 231.402,224.000 231.110 C 221.285 230.491,212.314 230.417,208.869 230.984 M273.432 231.049 C 268.368 231.698,266.639 232.626,266.285 234.886 C 266.171 235.609,265.792 237.820,265.441 239.800 C 265.090 241.780,264.800 244.210,264.796 245.200 C 264.792 246.190,264.526 248.111,264.206 249.469 C 262.287 257.609,263.329 261.296,268.252 263.778 L 270.589 264.956 279.692 265.129 C 289.640 265.318,290.213 265.211,289.735 263.254 C 289.351 261.684,289.065 261.613,283.126 261.606 C 275.540 261.598,273.968 260.673,274.582 256.580 C 274.919 254.331,275.224 254.145,279.000 253.884 C 289.538 253.156,294.215 250.075,295.674 242.901 L 296.467 239.000 295.632 236.800 C 293.407 230.942,287.075 229.302,273.432 231.049 M179.789 236.170 C 182.902 237.470,181.870 246.006,178.381 247.810 C 177.052 248.497,173.372 248.601,172.977 247.963 C 172.538 247.252,172.705 244.593,173.397 241.289 C 173.753 239.590,174.130 237.787,174.234 237.283 C 174.565 235.681,177.306 235.132,179.789 236.170 M282.973 236.163 C 287.598 238.095,283.927 248.560,278.624 248.560 C 275.713 248.560,275.466 247.658,276.636 241.272 C 277.686 235.535,278.978 234.494,282.973 236.163 M143.148 248.537 C 143.747 249.019,143.635 250.888,142.671 256.511 C 142.044 260.170,141.946 260.295,139.600 260.434 C 135.694 260.666,134.616 259.265,135.046 254.517 C 135.523 249.254,139.960 245.979,143.148 248.537 " stroke="none" fill="#df2819" fill-rule="evenodd"></path><path id="path3" d="M76.642 134.900 C 75.921 136.028,74.964 141.212,74.378 147.167 C 74.131 149.679,73.755 152.194,73.541 152.755 C 73.328 153.316,72.984 155.703,72.777 158.060 C 72.571 160.416,72.146 163.482,71.834 164.872 C 71.521 166.263,71.150 168.930,71.010 170.800 C 70.869 172.670,70.496 175.460,70.181 177.000 C 69.866 178.540,69.430 181.631,69.212 183.868 C 68.994 186.105,68.542 189.504,68.208 191.420 C 66.448 201.509,69.968 207.653,79.000 210.261 C 84.870 211.955,85.600 211.858,85.600 209.380 C 85.600 208.654,85.941 206.291,86.357 204.129 C 86.774 201.968,87.236 198.553,87.384 196.541 C 87.532 194.528,87.900 192.063,88.201 191.063 C 88.502 190.062,88.868 187.479,89.014 185.322 C 89.159 183.165,89.519 180.410,89.813 179.200 C 90.108 177.990,90.467 175.470,90.613 173.600 C 90.759 171.730,91.125 168.940,91.426 167.400 C 91.727 165.860,92.251 162.183,92.591 159.228 C 92.930 156.274,93.380 153.214,93.590 152.428 C 93.800 151.643,94.162 148.969,94.395 146.486 C 94.627 144.003,95.084 140.950,95.409 139.702 C 96.910 133.937,97.013 134.000,86.195 134.000 C 77.323 134.000,77.212 134.011,76.642 134.900 M182.653 134.840 C 170.673 136.589,165.259 143.495,163.397 159.400 C 163.063 162.260,162.614 165.320,162.400 166.200 C 162.187 167.080,161.826 169.853,161.599 172.363 C 161.372 174.873,160.935 177.843,160.628 178.963 C 160.321 180.083,159.965 182.681,159.837 184.735 C 159.709 186.789,159.321 189.563,158.974 190.899 C 155.611 203.880,163.414 211.045,181.400 211.491 C 189.644 211.696,189.766 211.657,190.183 208.695 C 190.602 205.714,189.094 204.400,185.257 204.400 C 178.807 204.400,176.630 200.833,178.542 193.400 C 178.881 192.080,179.273 189.560,179.412 187.800 C 179.551 186.040,180.005 182.620,180.420 180.200 C 180.835 177.780,181.360 173.934,181.588 171.654 C 182.190 165.605,182.302 165.449,186.204 165.178 C 190.991 164.846,193.670 162.881,193.760 159.635 L 193.800 158.200 189.200 157.953 C 186.670 157.817,184.485 157.682,184.343 157.653 C 183.820 157.545,183.612 155.621,184.010 154.574 C 184.236 153.979,184.682 150.896,185.001 147.723 C 185.320 144.551,185.673 141.806,185.786 141.623 C 186.882 139.849,186.652 134.332,185.486 134.449 C 185.219 134.476,183.944 134.652,182.653 134.840 M95.421 135.666 C 95.666 136.439,95.262 138.381,94.710 139.083 C 94.501 139.349,94.184 141.791,94.006 144.509 C 93.828 147.227,93.414 150.249,93.086 151.225 C 92.758 152.201,92.359 154.890,92.200 157.200 C 92.041 159.510,91.673 162.120,91.383 163.000 C 91.093 163.880,90.654 167.030,90.408 170.000 C 90.162 172.970,89.709 176.300,89.401 177.400 C 89.094 178.500,88.721 181.470,88.573 184.000 C 88.425 186.530,88.043 189.230,87.724 190.000 C 87.405 190.770,87.002 193.690,86.829 196.490 C 86.642 199.525,86.313 201.823,86.015 202.182 C 85.740 202.513,85.362 204.632,85.175 206.892 C 84.988 209.151,84.827 211.048,84.817 211.108 C 84.786 211.301,82.610 210.698,82.200 210.382 C 81.980 210.212,80.735 209.878,79.433 209.638 C 78.131 209.398,76.781 208.946,76.433 208.632 C 76.085 208.319,75.339 207.947,74.776 207.807 C 73.824 207.569,72.981 206.863,70.771 204.451 C 69.038 202.558,67.859 195.790,68.746 192.815 C 68.978 192.037,69.363 188.970,69.602 186.000 C 69.841 183.030,70.275 179.880,70.568 179.000 C 70.860 178.120,71.228 175.242,71.385 172.604 C 71.541 169.966,71.929 167.187,72.246 166.428 C 72.563 165.670,72.983 162.698,73.180 159.825 C 73.389 156.764,73.780 154.103,74.122 153.400 C 74.468 152.691,74.803 150.377,74.942 147.739 C 75.071 145.286,75.449 142.496,75.783 141.539 C 76.116 140.583,76.391 139.137,76.394 138.326 C 76.397 137.515,76.558 136.435,76.752 135.926 L 77.104 135.000 86.157 135.000 C 94.251 135.000,95.232 135.071,95.421 135.666 M186.044 135.700 C 186.142 136.798,185.913 138.279,185.412 139.800 C 185.122 140.680,184.755 143.560,184.596 146.200 C 184.438 148.840,184.059 151.607,183.754 152.349 C 183.449 153.091,183.200 154.662,183.200 155.841 C 183.200 158.405,183.092 158.357,189.200 158.501 L 193.400 158.600 193.276 159.759 C 192.956 162.735,190.450 164.264,185.495 164.506 C 181.714 164.691,181.551 164.921,181.121 170.677 C 180.927 173.275,180.513 176.120,180.202 177.000 C 179.891 177.880,179.444 180.940,179.209 183.800 C 178.974 186.660,178.516 189.984,178.191 191.187 C 177.845 192.469,177.600 195.127,177.600 197.609 L 177.600 201.843 179.022 203.222 C 180.409 204.567,180.534 204.603,184.218 204.739 C 187.796 204.870,188.044 204.936,188.948 206.011 C 189.885 207.125,189.925 209.807,189.018 210.716 C 187.696 212.042,169.035 210.229,167.200 208.596 C 166.870 208.303,166.113 207.941,165.518 207.792 C 164.167 207.455,160.400 203.742,160.400 202.747 C 160.400 202.341,160.040 201.062,159.600 199.904 C 158.644 197.389,158.587 195.218,159.406 192.564 C 159.739 191.484,160.123 188.530,160.259 186.000 C 160.398 183.411,160.763 180.788,161.095 180.000 C 161.419 179.230,161.834 176.440,162.016 173.800 C 162.199 171.160,162.609 168.370,162.926 167.600 C 163.244 166.830,163.632 164.151,163.789 161.648 C 163.946 159.144,164.316 156.264,164.612 155.248 C 164.908 154.231,165.329 152.078,165.548 150.462 C 165.766 148.846,166.206 147.226,166.525 146.862 C 166.844 146.498,167.238 145.765,167.401 145.233 C 167.727 144.168,172.972 138.800,173.688 138.800 C 173.935 138.800,174.453 138.514,174.840 138.164 C 175.226 137.814,176.318 137.354,177.265 137.141 C 178.213 136.928,179.261 136.509,179.594 136.210 C 180.649 135.265,185.968 134.844,186.044 135.700 M121.400 153.404 C 121.180 153.496,118.840 153.846,116.200 154.182 C 103.529 155.794,102.155 156.739,101.356 164.398 C 101.062 167.215,100.646 170.302,100.432 171.260 C 100.218 172.217,99.767 175.374,99.429 178.275 C 99.091 181.176,98.629 184.380,98.401 185.396 C 98.173 186.412,97.806 189.079,97.584 191.322 C 97.362 193.565,96.921 196.570,96.603 198.000 C 96.285 199.430,95.842 202.490,95.618 204.800 C 95.395 207.110,95.104 209.470,94.970 210.044 C 94.630 211.511,95.144 211.588,105.291 211.595 C 115.651 211.601,114.930 212.032,115.598 205.441 C 115.841 203.043,116.293 199.713,116.604 198.041 C 116.914 196.368,117.376 193.023,117.630 190.607 C 117.883 188.190,118.263 185.760,118.474 185.207 C 118.685 184.653,119.016 182.250,119.210 179.867 C 119.404 177.485,119.832 174.335,120.162 172.867 C 120.491 171.400,120.904 168.854,121.080 167.209 C 121.464 163.621,121.967 163.215,126.040 163.206 C 131.516 163.194,133.641 165.402,132.771 170.200 C 132.571 171.300,132.040 175.170,131.590 178.800 C 131.140 182.430,130.600 186.030,130.389 186.800 C 130.178 187.570,129.811 190.180,129.574 192.600 C 129.337 195.020,128.900 197.900,128.604 199.000 C 128.308 200.100,127.948 202.776,127.805 204.946 C 127.662 207.117,127.383 209.319,127.185 209.839 C 126.586 211.414,127.633 211.600,137.097 211.600 C 147.712 211.600,147.014 211.945,147.608 206.400 C 147.856 204.090,148.308 200.850,148.613 199.200 C 148.919 197.550,149.376 194.223,149.630 191.807 C 149.883 189.390,150.248 186.999,150.441 186.492 C 150.634 185.985,150.988 183.462,151.227 180.885 C 151.467 178.308,151.919 175.217,152.231 174.016 C 154.894 163.789,149.754 156.363,138.486 154.155 C 135.285 153.527,122.453 152.964,121.400 153.404 M220.367 153.359 C 220.275 153.447,217.770 153.814,214.800 154.175 C 211.830 154.536,208.680 155.090,207.800 155.405 C 206.920 155.719,205.248 156.179,204.085 156.425 C 201.518 156.968,200.922 157.745,200.571 161.008 C 200.430 162.324,200.074 164.300,199.780 165.400 C 199.487 166.500,199.122 169.197,198.969 171.393 C 198.816 173.589,198.530 175.929,198.333 176.593 C 198.137 177.257,197.715 180.140,197.396 183.000 C 197.076 185.860,196.530 189.730,196.182 191.600 C 194.717 199.460,197.306 205.634,203.270 208.500 C 208.479 211.004,210.927 211.326,226.055 211.502 L 239.911 211.663 240.555 210.742 C 241.427 209.498,241.365 207.276,240.416 205.719 L 239.635 204.437 229.023 204.319 L 218.412 204.200 216.906 202.690 L 215.400 201.179 215.460 197.781 C 215.554 192.383,215.247 192.575,224.296 192.286 C 230.598 192.085,232.205 191.908,233.944 191.222 C 235.091 190.770,236.304 190.400,236.640 190.400 C 241.575 190.400,248.539 183.056,250.484 175.800 C 251.215 173.075,251.097 164.411,250.311 163.000 C 249.943 162.340,249.467 161.421,249.253 160.958 C 247.914 158.059,242.627 155.288,236.000 154.012 C 232.221 153.284,220.939 152.813,220.367 153.359 M279.000 153.417 C 278.780 153.502,276.440 153.846,273.800 154.182 C 268.333 154.878,261.526 156.637,260.461 157.629 C 259.945 158.110,259.593 159.469,259.214 162.449 C 258.923 164.732,258.531 167.140,258.341 167.800 C 258.152 168.460,257.811 170.980,257.583 173.400 C 257.355 175.820,256.923 178.790,256.624 180.000 C 256.324 181.210,255.959 183.820,255.811 185.800 C 255.663 187.780,255.298 190.480,255.000 191.800 C 254.702 193.120,254.346 195.640,254.209 197.400 C 254.072 199.160,253.699 201.860,253.379 203.400 C 253.060 204.940,252.754 207.370,252.699 208.800 L 252.600 211.400 261.950 211.507 C 272.178 211.625,272.400 211.580,272.400 209.377 C 272.400 208.648,272.589 207.555,272.820 206.947 C 273.051 206.340,273.487 203.403,273.788 200.421 C 274.577 192.612,275.109 191.697,278.567 192.216 C 280.206 192.462,280.463 192.692,283.151 196.338 C 291.596 207.789,295.230 212.733,296.068 213.910 C 296.581 214.630,297.720 216.195,298.600 217.387 C 299.480 218.579,301.460 221.286,303.000 223.403 C 304.540 225.519,306.250 227.849,306.800 228.580 C 307.350 229.311,308.070 230.303,308.400 230.783 C 308.730 231.264,310.260 233.344,311.800 235.406 C 313.340 237.468,315.680 240.637,317.000 242.447 C 321.443 248.542,324.040 250.250,329.181 250.460 C 332.818 250.609,333.237 250.217,331.897 247.926 C 331.341 246.977,330.317 245.120,329.621 243.800 C 328.924 242.480,327.829 240.590,327.185 239.600 C 326.542 238.610,325.843 237.411,325.631 236.935 C 325.263 236.106,323.590 233.170,321.717 230.064 C 321.231 229.259,320.459 227.880,320.000 227.000 C 319.541 226.120,318.769 224.743,318.283 223.941 C 317.797 223.138,315.780 219.658,313.800 216.206 C 311.820 212.754,309.801 209.271,309.314 208.465 C 308.827 207.659,308.136 206.460,307.779 205.800 C 307.422 205.140,306.614 203.700,305.982 202.600 C 305.350 201.500,304.494 199.970,304.080 199.200 C 303.665 198.430,302.308 196.055,301.063 193.921 C 298.311 189.205,298.312 189.329,301.048 187.600 C 303.245 186.212,306.317 183.111,307.132 181.459 C 309.400 176.863,310.271 172.140,309.858 166.684 C 309.318 159.540,304.932 155.795,295.032 154.023 C 290.872 153.278,280.389 152.882,279.000 153.417 M132.803 154.007 C 133.571 154.231,135.898 154.593,137.974 154.812 C 140.103 155.036,142.020 155.452,142.374 155.767 C 142.718 156.074,143.720 156.517,144.601 156.751 C 146.885 157.359,150.216 160.631,150.815 162.856 C 151.070 163.803,151.531 164.937,151.839 165.377 C 152.601 166.465,152.561 170.844,151.772 172.713 C 151.396 173.603,151.018 176.244,150.829 179.290 C 150.651 182.184,150.309 184.628,150.037 184.956 C 149.774 185.272,149.381 187.842,149.164 190.666 C 148.948 193.490,148.527 196.430,148.229 197.200 C 147.932 197.970,147.567 200.400,147.420 202.600 C 146.797 211.881,147.588 211.291,136.000 211.117 L 128.200 211.000 128.345 206.200 C 128.438 203.140,128.707 200.892,129.087 200.000 C 129.415 199.230,129.834 196.440,130.017 193.800 C 130.206 191.088,130.604 188.478,130.934 187.800 C 131.269 187.111,131.636 184.659,131.796 182.045 C 131.949 179.539,132.316 176.804,132.611 175.967 C 135.319 168.294,131.826 160.985,126.002 162.136 C 121.143 163.097,120.896 163.342,120.461 167.629 C 120.271 169.503,119.897 171.445,119.629 171.946 C 119.361 172.447,119.003 175.139,118.833 177.929 C 118.640 181.102,118.298 183.449,117.918 184.200 C 117.548 184.932,117.217 187.115,117.068 189.800 C 116.935 192.220,116.562 195.010,116.240 196.000 C 115.918 196.990,115.466 200.057,115.235 202.816 C 115.005 205.575,114.570 208.545,114.268 209.416 L 113.720 211.000 105.160 211.098 C 95.303 211.211,95.579 211.287,96.022 208.600 C 96.204 207.500,96.363 205.199,96.376 203.487 C 96.391 201.518,96.641 199.828,97.057 198.887 C 97.459 197.979,97.838 195.532,98.033 192.600 C 98.208 189.960,98.612 187.080,98.932 186.200 C 99.251 185.320,99.642 182.710,99.801 180.400 C 99.960 178.090,100.327 175.480,100.617 174.600 C 100.907 173.720,101.356 170.524,101.615 167.497 C 102.374 158.639,102.972 157.407,106.845 156.738 C 108.250 156.495,109.899 156.043,110.509 155.733 C 111.124 155.421,113.883 155.002,116.709 154.792 C 119.509 154.585,122.340 154.247,123.000 154.042 C 124.643 153.531,131.091 153.508,132.803 154.007 M231.874 154.035 C 232.493 154.274,234.530 154.622,236.400 154.809 C 238.478 155.016,240.416 155.469,241.385 155.974 C 242.256 156.428,243.227 156.800,243.541 156.800 C 244.299 156.800,248.359 160.287,248.849 161.358 C 249.061 161.821,249.504 162.650,249.834 163.200 C 250.709 164.659,250.485 175.400,249.550 176.827 C 249.193 177.372,248.773 178.579,248.615 179.509 C 248.458 180.439,248.163 181.200,247.958 181.200 C 247.754 181.200,247.304 181.785,246.958 182.500 C 246.612 183.215,245.515 184.430,244.519 185.200 C 243.523 185.970,242.414 186.893,242.054 187.250 C 241.694 187.608,240.950 188.038,240.400 188.205 C 239.850 188.373,238.971 188.845,238.446 189.255 C 237.919 189.667,236.845 190.001,236.046 190.002 C 235.251 190.004,234.060 190.315,233.400 190.693 C 232.417 191.257,230.774 191.420,224.314 191.591 C 214.578 191.849,215.054 191.560,214.866 197.317 L 214.733 201.408 216.266 203.004 L 217.800 204.600 228.499 204.718 L 239.198 204.837 239.799 205.998 C 240.500 207.353,240.563 208.719,239.994 210.215 L 239.589 211.282 226.694 211.112 C 218.554 211.004,213.412 210.778,212.747 210.499 C 212.168 210.255,210.289 209.860,208.572 209.621 C 206.854 209.382,205.168 208.941,204.824 208.641 C 204.481 208.340,203.753 207.958,203.206 207.790 C 202.026 207.430,199.200 205.233,199.200 204.677 C 199.200 204.463,198.942 204.088,198.626 203.844 C 197.247 202.777,195.982 195.387,196.740 192.826 C 196.972 192.042,197.360 189.060,197.602 186.200 C 197.844 183.340,198.283 180.280,198.576 179.400 C 198.870 178.520,199.241 175.550,199.402 172.800 C 199.562 170.050,199.927 167.342,200.214 166.782 C 200.501 166.223,200.850 164.423,200.990 162.782 C 201.131 161.142,201.323 159.416,201.418 158.948 C 201.628 157.914,203.504 156.991,206.167 156.611 C 207.248 156.457,208.519 156.079,208.990 155.770 C 209.507 155.431,211.890 155.051,215.023 154.809 C 217.870 154.589,220.830 154.245,221.600 154.045 C 223.598 153.527,230.539 153.520,231.874 154.035 M290.403 154.007 C 291.171 154.231,293.420 154.586,295.400 154.796 C 297.555 155.025,299.636 155.504,300.585 155.989 C 301.456 156.435,302.456 156.800,302.805 156.800 C 304.147 156.800,308.731 162.270,309.024 164.220 C 309.572 167.872,308.986 176.050,308.053 177.785 C 307.584 178.656,307.200 179.618,307.200 179.921 C 307.200 181.096,303.306 185.421,300.647 187.200 C 298.139 188.878,298.016 189.060,298.424 190.482 C 298.626 191.187,299.049 191.907,299.364 192.084 C 299.680 192.260,300.052 192.925,300.191 193.561 C 300.331 194.197,300.795 195.034,301.223 195.421 C 301.650 195.807,302.000 196.358,302.000 196.644 C 302.000 196.930,302.450 197.828,303.000 198.638 C 303.550 199.449,304.000 200.337,304.000 200.613 C 304.000 200.889,304.253 201.212,304.562 201.330 C 304.872 201.449,305.243 202.086,305.388 202.745 C 305.533 203.405,305.920 204.168,306.249 204.441 C 306.577 204.713,307.112 205.491,307.437 206.168 C 307.762 206.846,308.471 208.120,309.011 209.000 C 309.552 209.880,310.285 211.230,310.640 212.000 C 310.995 212.770,311.523 213.536,311.812 213.702 C 312.101 213.869,312.452 214.525,312.591 215.161 C 312.731 215.797,313.195 216.634,313.623 217.021 C 314.050 217.407,314.400 218.021,314.400 218.384 C 314.400 218.747,314.850 219.655,315.400 220.400 C 315.950 221.145,316.400 221.892,316.400 222.060 C 316.400 222.453,318.197 225.210,318.990 226.034 C 319.326 226.382,319.600 226.943,319.600 227.280 C 319.600 227.616,319.940 228.324,320.356 228.853 C 320.771 229.381,321.403 230.440,321.759 231.207 C 322.114 231.973,322.842 233.320,323.375 234.200 C 323.909 235.080,324.600 236.340,324.911 237.000 C 325.222 237.660,325.774 238.447,326.138 238.749 C 326.502 239.051,326.800 239.608,326.800 239.987 C 326.800 240.366,327.150 240.993,327.577 241.379 C 328.005 241.766,328.469 242.602,328.608 243.237 C 328.747 243.872,329.011 244.483,329.193 244.595 C 329.651 244.879,332.000 249.088,332.000 249.627 C 332.000 250.304,326.925 249.847,324.619 248.961 C 322.591 248.182,320.224 246.091,318.549 243.600 C 316.658 240.786,316.195 240.190,315.505 239.677 C 315.117 239.390,314.800 238.935,314.800 238.666 C 314.800 238.398,314.485 237.894,314.100 237.548 C 313.715 237.201,313.090 236.396,312.711 235.759 C 311.414 233.575,310.999 233.011,310.300 232.483 C 309.915 232.193,309.600 231.766,309.600 231.535 C 309.600 231.304,309.152 230.550,308.604 229.858 C 308.055 229.166,307.290 228.170,306.904 227.644 C 306.517 227.118,305.795 226.287,305.300 225.798 C 304.805 225.309,304.400 224.729,304.400 224.509 C 304.400 224.154,302.898 222.030,301.505 220.415 C 301.227 220.093,300.820 219.532,300.600 219.168 C 299.646 217.590,298.531 216.064,296.922 214.136 C 295.975 213.001,295.200 211.885,295.200 211.656 C 295.200 211.427,294.975 211.096,294.699 210.920 C 294.424 210.744,293.967 210.150,293.685 209.600 C 293.402 209.050,292.457 207.804,291.585 206.832 C 290.713 205.860,290.000 204.885,290.000 204.666 C 290.000 204.446,289.726 203.982,289.391 203.634 C 288.757 202.975,287.316 201.060,285.600 198.598 C 281.258 192.368,280.411 191.614,277.744 191.606 C 274.399 191.596,274.018 192.143,273.566 197.606 C 273.358 200.133,272.929 203.190,272.615 204.400 C 272.300 205.610,271.898 207.590,271.722 208.800 L 271.400 211.000 262.428 211.108 C 251.965 211.234,252.557 211.510,253.540 206.965 C 253.965 205.004,254.425 201.600,254.564 199.400 C 254.703 197.200,255.075 194.590,255.390 193.600 C 255.706 192.610,256.131 189.414,256.334 186.499 C 256.559 183.279,256.906 180.954,257.219 180.577 C 257.533 180.199,257.852 178.049,258.035 175.078 C 258.201 172.395,258.601 169.480,258.925 168.600 C 259.248 167.720,259.642 165.144,259.801 162.876 L 260.090 158.752 261.545 157.817 C 262.345 157.302,263.900 156.759,265.000 156.610 C 266.100 156.460,267.395 156.084,267.878 155.774 C 268.422 155.425,270.899 155.050,274.394 154.787 C 277.495 154.553,280.430 154.202,280.916 154.007 C 282.143 153.513,288.707 153.513,290.403 154.007 M222.491 162.716 C 219.269 163.432,219.019 163.914,218.419 170.560 C 218.162 173.398,217.682 176.776,217.352 178.067 C 217.021 179.357,216.806 180.995,216.875 181.707 L 217.000 183.000 221.260 183.113 C 226.446 183.251,228.409 182.290,230.190 178.746 C 231.419 176.299,232.109 167.395,231.234 165.282 C 230.297 163.020,226.345 161.860,222.491 162.716 M280.830 162.909 C 279.398 163.306,278.989 163.630,278.694 164.600 C 278.493 165.260,278.097 166.340,277.814 167.000 C 277.531 167.660,277.191 170.104,277.058 172.432 C 276.925 174.760,276.542 177.319,276.208 178.119 C 274.520 182.159,275.405 183.200,280.528 183.200 C 286.846 183.200,289.675 180.587,290.161 174.302 C 290.276 172.818,290.556 171.255,290.785 170.829 C 293.384 165.973,287.283 161.119,280.830 162.909 M228.561 163.758 C 231.219 164.869,231.692 167.019,230.796 173.921 C 229.979 180.211,227.429 182.718,221.800 182.762 C 217.472 182.797,217.327 182.677,217.909 179.528 C 218.166 178.137,218.571 175.110,218.808 172.800 C 219.445 166.607,220.059 164.301,221.229 163.706 C 222.540 163.039,226.913 163.069,228.561 163.758 M288.305 164.030 C 289.925 165.048,290.585 167.590,290.057 170.785 C 289.806 172.308,289.600 174.131,289.600 174.837 C 289.600 179.240,285.676 182.784,280.800 182.786 C 276.739 182.788,276.622 182.684,276.930 179.339 C 277.948 168.288,278.893 163.984,280.400 163.533 C 281.975 163.061,287.296 163.396,288.305 164.030 " stroke="none" fill="#747474" fill-rule="evenodd"></path><path id="path4" d="M76.291 133.766 C 75.231 134.826,74.799 136.596,74.232 142.200 C 73.920 145.280,73.476 148.520,73.246 149.400 C 73.015 150.280,72.713 152.620,72.574 154.600 C 72.436 156.580,71.992 159.730,71.589 161.600 C 71.185 163.470,70.743 166.620,70.605 168.600 C 70.468 170.580,70.107 173.190,69.804 174.400 C 69.500 175.610,69.060 178.670,68.827 181.200 C 68.593 183.730,68.135 186.970,67.809 188.400 C 65.376 199.075,69.445 208.818,76.950 210.284 C 77.637 210.419,78.622 210.801,79.137 211.134 C 80.437 211.975,85.183 212.023,85.605 211.200 C 86.216 210.010,87.201 204.934,87.429 201.800 C 87.557 200.040,87.994 196.890,88.400 194.800 C 88.806 192.710,89.257 189.200,89.401 187.000 C 89.545 184.800,89.914 182.280,90.219 181.400 C 90.525 180.520,90.948 177.639,91.160 174.999 C 91.372 172.358,91.737 169.692,91.972 169.074 C 92.207 168.457,92.589 165.757,92.821 163.076 C 93.053 160.394,93.423 157.660,93.643 157.000 C 93.864 156.340,94.306 153.280,94.627 150.200 C 94.948 147.120,95.474 143.430,95.797 142.000 C 96.514 138.821,96.580 134.340,95.920 133.680 C 95.167 132.927,77.051 133.006,76.291 133.766 M184.253 133.803 C 183.403 134.097,181.783 134.461,180.653 134.611 C 179.524 134.761,178.039 135.225,177.353 135.642 C 176.667 136.059,175.875 136.400,175.594 136.400 C 174.721 136.400,170.931 139.122,168.945 141.175 C 165.431 144.810,163.749 149.106,163.157 155.962 C 162.956 158.293,162.534 161.190,162.219 162.400 C 161.904 163.610,161.526 166.310,161.379 168.400 C 161.232 170.490,160.861 173.280,160.555 174.600 C 160.249 175.920,159.811 179.250,159.581 182.000 C 159.351 184.750,158.901 187.771,158.582 188.714 C 157.639 191.493,157.780 199.992,158.800 201.896 C 159.240 202.716,159.600 203.586,159.600 203.828 C 159.600 205.501,164.728 209.189,169.000 210.590 C 172.923 211.875,173.898 211.981,181.910 211.990 L 190.020 212.000 190.410 210.974 C 192.213 206.231,189.968 203.607,184.100 203.602 C 179.466 203.598,177.631 200.726,178.992 195.610 C 179.313 194.406,179.766 191.256,180.000 188.610 C 180.234 185.965,180.608 183.338,180.831 182.773 C 181.054 182.209,181.486 179.239,181.792 176.173 C 182.838 165.684,182.874 165.615,187.309 165.606 C 191.103 165.599,193.533 163.879,194.353 160.619 C 195.164 157.401,194.365 156.800,189.275 156.800 C 186.886 156.800,185.559 156.633,185.280 156.296 C 184.739 155.644,185.406 146.988,186.212 144.200 C 188.173 137.414,187.295 132.751,184.253 133.803 M95.586 134.774 C 96.150 135.827,96.107 137.023,95.409 139.702 C 95.084 140.950,94.627 144.003,94.395 146.486 C 94.162 148.969,93.800 151.643,93.590 152.428 C 93.380 153.214,92.930 156.274,92.591 159.228 C 92.251 162.183,91.727 165.860,91.426 167.400 C 91.125 168.940,90.759 171.730,90.613 173.600 C 90.467 175.470,90.108 177.990,89.813 179.200 C 89.519 180.410,89.159 183.165,89.014 185.322 C 88.868 187.479,88.502 190.062,88.201 191.063 C 87.900 192.063,87.532 194.528,87.384 196.541 C 87.236 198.553,86.774 201.968,86.357 204.129 C 85.941 206.291,85.600 208.654,85.600 209.380 C 85.600 211.858,84.870 211.955,79.000 210.261 C 69.968 207.653,66.448 201.509,68.208 191.420 C 68.542 189.504,68.994 186.105,69.212 183.868 C 69.430 181.631,69.866 178.540,70.181 177.000 C 70.496 175.460,70.869 172.670,71.010 170.800 C 71.150 168.930,71.521 166.263,71.834 164.872 C 72.146 163.482,72.571 160.416,72.777 158.060 C 72.984 155.703,73.328 153.316,73.541 152.755 C 73.755 152.194,74.131 149.679,74.378 147.167 C 74.964 141.212,75.921 136.028,76.642 134.900 C 77.481 133.589,94.890 133.473,95.586 134.774 M186.365 135.135 C 186.737 135.829,186.293 140.803,185.786 141.623 C 185.673 141.806,185.320 144.551,185.001 147.723 C 184.682 150.896,184.236 153.979,184.010 154.574 C 183.612 155.621,183.820 157.545,184.343 157.653 C 184.485 157.682,186.670 157.817,189.200 157.953 L 193.800 158.200 193.760 159.635 C 193.670 162.881,190.991 164.846,186.204 165.178 C 182.302 165.449,182.190 165.605,181.588 171.654 C 181.360 173.934,180.835 177.780,180.420 180.200 C 180.005 182.620,179.551 186.040,179.412 187.800 C 179.273 189.560,178.881 192.080,178.542 193.400 C 176.630 200.833,178.807 204.400,185.257 204.400 C 189.094 204.400,190.602 205.714,190.183 208.695 C 189.766 211.657,189.644 211.696,181.400 211.491 C 163.414 211.045,155.611 203.880,158.974 190.899 C 159.321 189.563,159.709 186.789,159.837 184.735 C 159.965 182.681,160.321 180.083,160.628 178.963 C 160.935 177.843,161.372 174.873,161.599 172.363 C 161.826 169.853,162.187 167.080,162.400 166.200 C 162.614 165.320,163.063 162.260,163.397 159.400 C 165.385 142.418,171.168 135.886,185.486 134.449 C 185.753 134.422,186.149 134.731,186.365 135.135 M119.387 152.769 C 117.620 152.939,115.820 153.262,115.387 153.485 C 114.954 153.709,113.377 154.012,111.882 154.159 C 110.387 154.306,108.265 154.780,107.167 155.213 C 106.069 155.646,104.826 156.000,104.406 156.000 C 102.259 156.000,100.886 158.919,100.824 163.613 C 100.811 164.610,100.535 166.410,100.211 167.613 C 99.886 168.816,99.424 172.050,99.182 174.800 C 98.941 177.550,98.506 180.520,98.216 181.400 C 97.927 182.280,97.565 184.890,97.412 187.200 C 97.259 189.510,96.885 192.268,96.580 193.330 C 96.275 194.391,95.831 197.541,95.593 200.330 C 95.356 203.118,94.900 206.288,94.581 207.373 C 93.214 212.014,93.042 211.934,104.737 212.036 C 116.356 212.137,115.557 212.497,116.060 206.934 C 116.256 204.770,116.612 202.400,116.850 201.666 C 117.089 200.932,117.519 198.052,117.805 195.266 C 118.091 192.480,118.512 189.480,118.740 188.600 C 118.968 187.720,119.343 184.810,119.575 182.133 C 119.806 179.455,120.186 176.762,120.420 176.146 C 120.654 175.531,121.031 172.952,121.257 170.414 C 121.809 164.223,121.972 163.999,125.909 164.005 C 130.900 164.014,133.251 166.183,132.039 169.661 C 131.783 170.394,131.380 173.335,131.143 176.197 C 130.905 179.058,130.558 181.690,130.371 182.045 C 130.183 182.400,129.832 184.740,129.589 187.245 C 129.346 189.750,128.877 193.046,128.547 194.568 C 128.217 196.090,127.790 199.240,127.599 201.568 C 127.407 203.896,126.974 206.855,126.635 208.145 C 125.908 210.919,126.261 211.989,127.914 212.021 C 137.772 212.209,147.048 211.910,147.441 211.392 C 147.683 211.071,148.000 209.261,148.146 207.369 C 148.291 205.477,148.574 203.623,148.773 203.250 C 148.973 202.876,149.345 200.327,149.599 197.585 C 149.853 194.843,150.317 191.600,150.629 190.378 C 150.942 189.156,151.310 186.456,151.448 184.378 C 151.585 182.300,152.035 179.160,152.446 177.400 C 154.133 170.186,153.299 162.872,150.400 159.467 C 149.822 158.788,149.540 158.513,148.068 157.197 C 147.039 156.277,143.173 154.477,141.600 154.186 C 140.830 154.044,139.390 153.654,138.400 153.321 C 136.300 152.615,124.544 152.273,119.387 152.769 M217.727 152.826 C 215.927 153.000,214.127 153.313,213.727 153.522 C 213.327 153.730,211.740 154.030,210.200 154.187 C 208.660 154.344,206.860 154.720,206.200 155.022 C 205.540 155.325,204.195 155.748,203.211 155.963 C 202.227 156.179,201.224 156.626,200.982 156.956 C 200.303 157.885,198.882 165.373,198.592 169.549 C 198.449 171.611,198.081 174.131,197.774 175.149 C 197.466 176.167,197.098 178.890,196.956 181.200 C 196.813 183.510,196.434 186.120,196.113 187.000 C 194.902 190.316,194.937 199.494,196.171 202.102 C 197.215 204.309,200.764 208.400,201.635 208.400 C 201.876 208.400,202.513 208.745,203.049 209.167 C 203.585 209.589,204.783 210.059,205.712 210.212 C 206.640 210.365,207.587 210.641,207.816 210.825 C 209.530 212.201,239.775 212.690,241.238 211.366 C 242.523 210.203,242.296 206.848,240.818 205.154 L 239.636 203.800 229.588 203.669 C 216.700 203.501,215.542 202.958,216.120 197.355 C 216.497 193.701,217.046 193.202,220.709 193.188 C 225.555 193.170,234.624 192.131,235.669 191.475 C 236.181 191.153,237.269 190.773,238.087 190.629 C 238.905 190.486,239.805 190.143,240.087 189.867 C 240.369 189.592,241.161 189.137,241.847 188.856 C 243.626 188.130,249.200 182.500,249.200 181.431 C 249.200 181.187,249.564 180.309,250.009 179.480 C 252.560 174.720,252.341 164.323,249.604 160.269 C 247.730 157.492,243.203 154.652,239.831 154.139 C 238.934 154.003,237.999 153.733,237.754 153.541 C 236.470 152.535,224.973 152.124,217.727 152.826 M276.742 152.819 C 274.839 152.989,272.949 153.301,272.542 153.514 C 272.134 153.727,270.540 154.031,269.000 154.190 C 267.460 154.349,265.445 154.821,264.522 155.239 C 263.599 155.658,262.572 156.000,262.241 156.000 C 260.155 156.000,258.800 157.845,258.800 160.686 C 258.800 161.438,258.625 162.379,258.412 162.778 C 258.198 163.177,257.763 166.090,257.444 169.252 C 257.126 172.413,256.679 175.485,256.451 176.078 C 256.223 176.670,255.846 179.355,255.612 182.043 C 255.379 184.732,254.936 187.937,254.627 189.166 C 254.319 190.394,253.947 193.110,253.800 195.200 C 253.654 197.290,253.285 199.866,252.982 200.924 C 252.678 201.982,252.322 204.232,252.190 205.924 C 252.059 207.616,251.877 209.376,251.785 209.835 C 251.345 212.032,254.147 212.339,271.662 212.012 C 272.711 211.993,273.566 208.786,274.203 202.482 C 274.520 199.337,275.097 195.872,275.484 194.782 L 276.188 192.800 278.094 192.800 C 279.142 192.800,280.000 192.963,280.000 193.162 C 280.000 193.504,282.092 196.256,283.399 197.634 C 283.729 197.982,284.000 198.475,284.000 198.730 C 284.000 198.985,284.360 199.418,284.800 199.693 C 285.240 199.968,285.600 200.403,285.600 200.660 C 285.600 200.916,286.365 202.088,287.300 203.263 C 288.235 204.438,289.617 206.300,290.371 207.400 C 291.772 209.444,292.149 209.925,293.581 211.500 C 294.032 211.995,294.400 212.541,294.400 212.713 C 294.400 213.043,295.459 214.469,297.300 216.620 C 297.905 217.327,298.400 218.018,298.400 218.156 C 298.400 218.294,299.570 219.941,301.000 221.815 C 302.430 223.689,303.600 225.391,303.600 225.597 C 303.600 225.803,303.960 226.165,304.400 226.400 C 304.840 226.635,305.200 227.018,305.200 227.251 C 305.200 227.483,305.569 228.152,306.020 228.737 C 306.471 229.322,307.722 230.970,308.800 232.400 C 309.878 233.830,311.129 235.478,311.580 236.063 C 312.031 236.648,312.400 237.322,312.400 237.560 C 312.400 237.798,312.760 238.218,313.200 238.493 C 313.640 238.768,314.000 239.121,314.000 239.278 C 314.000 240.249,321.416 249.159,322.246 249.186 C 322.491 249.194,323.198 249.598,323.817 250.085 C 325.221 251.189,331.693 251.648,332.913 250.729 C 333.678 250.153,333.311 248.157,332.192 246.800 C 331.919 246.470,331.380 245.570,330.992 244.800 C 330.605 244.030,330.178 243.310,330.044 243.200 C 329.910 243.090,329.481 242.370,329.092 241.600 C 328.702 240.830,327.943 239.480,327.406 238.600 C 326.868 237.720,326.132 236.370,325.769 235.600 C 325.407 234.830,324.971 234.110,324.800 234.000 C 324.629 233.890,324.198 233.170,323.842 232.400 C 323.486 231.630,322.757 230.280,322.222 229.400 C 320.560 226.665,319.659 225.062,318.810 223.332 C 318.359 222.414,317.858 221.604,317.695 221.532 C 317.533 221.459,317.081 220.770,316.692 220.000 C 316.302 219.230,315.545 217.880,315.009 217.000 C 314.473 216.120,313.658 214.680,313.198 213.800 C 312.739 212.920,312.010 211.525,311.578 210.700 C 311.147 209.875,310.635 209.200,310.440 209.200 C 310.246 209.200,309.966 208.719,309.819 208.132 C 309.671 207.544,309.202 206.620,308.775 206.078 C 308.349 205.536,308.000 204.928,308.000 204.727 C 308.000 204.526,307.280 203.278,306.401 201.954 C 305.521 200.629,304.694 199.115,304.562 198.589 C 304.430 198.063,304.059 197.415,303.738 197.148 C 303.417 196.882,302.887 196.026,302.561 195.246 C 302.236 194.466,301.841 193.732,301.684 193.614 C 300.271 192.550,299.321 188.800,300.466 188.800 C 301.702 188.800,308.000 182.497,308.000 181.260 C 308.000 181.032,308.358 180.239,308.795 179.498 C 309.233 178.756,309.759 177.081,309.964 175.775 C 310.170 174.469,310.528 172.680,310.760 171.800 C 312.769 164.171,306.699 155.152,298.869 154.133 C 297.841 153.999,296.799 153.732,296.554 153.541 C 295.272 152.538,284.363 152.141,276.742 152.819 M138.486 154.155 C 149.754 156.363,154.894 163.789,152.231 174.016 C 151.919 175.217,151.467 178.308,151.227 180.885 C 150.988 183.462,150.634 185.985,150.441 186.492 C 150.248 186.999,149.883 189.390,149.630 191.807 C 149.376 194.223,148.919 197.550,148.613 199.200 C 148.308 200.850,147.856 204.090,147.608 206.400 C 147.014 211.945,147.712 211.600,137.097 211.600 C 127.633 211.600,126.586 211.414,127.185 209.839 C 127.383 209.319,127.662 207.117,127.805 204.946 C 127.948 202.776,128.308 200.100,128.604 199.000 C 128.900 197.900,129.337 195.020,129.574 192.600 C 129.811 190.180,130.178 187.570,130.389 186.800 C 130.600 186.030,131.140 182.430,131.590 178.800 C 132.040 175.170,132.571 171.300,132.771 170.200 C 133.641 165.402,131.516 163.194,126.040 163.206 C 121.967 163.215,121.464 163.621,121.080 167.209 C 120.904 168.854,120.491 171.400,120.162 172.867 C 119.832 174.335,119.404 177.485,119.210 179.867 C 119.016 182.250,118.685 184.653,118.474 185.207 C 118.263 185.760,117.883 188.190,117.630 190.607 C 117.376 193.023,116.914 196.368,116.604 198.041 C 116.293 199.713,115.841 203.043,115.598 205.441 C 114.930 212.032,115.651 211.601,105.291 211.595 C 95.144 211.588,94.630 211.511,94.970 210.044 C 95.104 209.470,95.395 207.110,95.618 204.800 C 95.842 202.490,96.285 199.430,96.603 198.000 C 96.921 196.570,97.362 193.565,97.584 191.322 C 97.806 189.079,98.173 186.412,98.401 185.396 C 98.629 184.380,99.091 181.176,99.429 178.275 C 99.767 175.374,100.218 172.217,100.432 171.260 C 100.646 170.302,101.062 167.215,101.356 164.398 C 102.155 156.739,103.529 155.794,116.200 154.182 C 118.840 153.846,121.180 153.496,121.400 153.404 C 122.453 152.964,135.285 153.527,138.486 154.155 M236.000 154.012 C 242.627 155.288,247.914 158.059,249.253 160.958 C 249.467 161.421,249.943 162.340,250.311 163.000 C 252.241 166.463,250.702 177.981,247.691 182.596 C 245.701 185.646,238.969 190.400,236.640 190.400 C 236.304 190.400,235.091 190.770,233.944 191.222 C 232.205 191.908,230.598 192.085,224.296 192.286 C 215.247 192.575,215.554 192.383,215.460 197.781 L 215.400 201.179 216.906 202.690 L 218.412 204.200 229.023 204.319 L 239.635 204.437 240.416 205.719 C 241.365 207.276,241.427 209.498,240.555 210.742 L 239.911 211.663 226.055 211.502 C 210.927 211.326,208.479 211.004,203.270 208.500 C 197.306 205.634,194.717 199.460,196.182 191.600 C 196.530 189.730,197.076 185.860,197.396 183.000 C 197.715 180.140,198.137 177.257,198.333 176.593 C 198.530 175.929,198.816 173.589,198.969 171.393 C 199.122 169.197,199.487 166.500,199.780 165.400 C 200.074 164.300,200.430 162.324,200.571 161.008 C 200.922 157.745,201.518 156.968,204.085 156.425 C 205.248 156.179,206.920 155.719,207.800 155.405 C 208.680 155.090,211.830 154.536,214.800 154.175 C 217.770 153.814,220.275 153.447,220.367 153.359 C 220.939 152.813,232.221 153.284,236.000 154.012 M295.032 154.023 C 309.550 156.622,314.193 167.149,307.132 181.459 C 306.317 183.111,303.245 186.212,301.048 187.600 C 298.312 189.329,298.311 189.205,301.063 193.921 C 302.308 196.055,303.665 198.430,304.080 199.200 C 304.494 199.970,305.350 201.500,305.982 202.600 C 306.614 203.700,307.422 205.140,307.779 205.800 C 308.136 206.460,308.827 207.659,309.314 208.465 C 309.801 209.271,311.820 212.754,313.800 216.206 C 315.780 219.658,317.797 223.138,318.283 223.941 C 318.769 224.743,319.541 226.120,320.000 227.000 C 320.459 227.880,321.231 229.259,321.717 230.064 C 323.590 233.170,325.263 236.106,325.631 236.935 C 325.843 237.411,326.542 238.610,327.185 239.600 C 327.829 240.590,328.924 242.480,329.621 243.800 C 330.317 245.120,331.341 246.977,331.897 247.926 C 333.237 250.217,332.818 250.609,329.181 250.460 C 324.040 250.250,321.443 248.542,317.000 242.447 C 315.680 240.637,313.340 237.468,311.800 235.406 C 310.260 233.344,308.730 231.264,308.400 230.783 C 308.070 230.303,307.350 229.311,306.800 228.580 C 306.250 227.849,304.540 225.519,303.000 223.403 C 301.460 221.286,299.480 218.579,298.600 217.387 C 297.720 216.195,296.581 214.630,296.068 213.910 C 295.230 212.733,291.596 207.789,283.151 196.338 C 280.463 192.692,280.206 192.462,278.567 192.216 C 275.109 191.697,274.577 192.612,273.788 200.421 C 273.487 203.403,273.051 206.340,272.820 206.947 C 272.589 207.555,272.400 208.648,272.400 209.377 C 272.400 211.580,272.178 211.625,261.950 211.507 L 252.600 211.400 252.699 208.800 C 252.754 207.370,253.060 204.940,253.379 203.400 C 253.699 201.860,254.072 199.160,254.209 197.400 C 254.346 195.640,254.702 193.120,255.000 191.800 C 255.298 190.480,255.663 187.780,255.811 185.800 C 255.959 183.820,256.324 181.210,256.624 180.000 C 256.923 178.790,257.355 175.820,257.583 173.400 C 257.811 170.980,258.152 168.460,258.341 167.800 C 258.531 167.140,258.923 164.732,259.214 162.449 C 259.593 159.469,259.945 158.110,260.461 157.629 C 261.526 156.637,268.333 154.878,273.800 154.182 C 276.440 153.846,278.780 153.502,279.000 153.417 C 280.389 152.882,290.872 153.278,295.032 154.023 M221.229 163.706 C 220.059 164.301,219.445 166.607,218.808 172.800 C 218.571 175.110,218.166 178.137,217.909 179.528 C 217.327 182.677,217.472 182.797,221.800 182.762 C 227.429 182.718,229.979 180.211,230.796 173.921 C 231.692 167.019,231.219 164.869,228.561 163.758 C 226.913 163.069,222.540 163.039,221.229 163.706 M280.400 163.533 C 278.893 163.984,277.948 168.288,276.930 179.339 C 276.622 182.684,276.739 182.788,280.800 182.786 C 285.676 182.784,289.600 179.240,289.600 174.837 C 289.600 174.131,289.806 172.308,290.057 170.785 C 291.041 164.827,286.775 161.623,280.400 163.533 M229.400 165.083 C 231.494 166.927,230.391 177.391,227.833 179.949 C 225.894 181.888,220.283 183.104,219.214 181.817 C 218.596 181.073,219.018 173.003,219.810 170.400 C 220.111 169.410,220.480 167.700,220.630 166.600 C 220.999 163.885,220.819 163.998,224.724 164.013 C 227.904 164.024,228.302 164.115,229.400 165.083 M288.238 165.003 L 289.400 166.006 289.304 170.407 C 289.171 176.434,287.199 181.135,284.780 181.187 C 284.439 181.194,283.961 181.399,283.717 181.643 C 282.640 182.720,278.063 182.590,277.783 181.475 C 277.383 179.883,279.116 166.035,279.957 164.100 C 280.271 163.375,287.231 164.134,288.238 165.003 M239.400 218.561 C 235.229 219.819,231.692 222.666,230.779 225.501 C 230.513 226.325,230.133 227.206,229.934 227.458 C 229.735 227.710,229.308 230.292,228.986 233.197 C 228.663 236.101,228.313 238.617,228.207 238.788 C 228.101 238.959,227.733 241.687,227.388 244.850 C 227.043 248.012,226.593 251.237,226.388 252.015 C 226.183 252.794,225.759 255.854,225.447 258.815 C 224.643 266.434,224.453 266.170,230.819 266.311 L 235.829 266.423 236.875 265.311 C 237.818 264.310,237.967 263.707,238.390 259.200 C 238.648 256.450,239.112 252.993,239.421 251.517 C 239.729 250.041,240.173 246.803,240.407 244.321 C 240.912 238.975,241.109 238.028,241.916 237.100 C 243.086 235.754,246.602 236.470,247.021 238.141 C 247.326 239.358,246.529 248.984,245.969 250.827 C 245.740 251.582,245.300 254.540,244.992 257.400 C 244.683 260.260,244.316 263.077,244.176 263.661 C 243.650 265.853,244.922 266.400,250.538 266.400 C 256.975 266.400,257.500 265.647,258.210 255.400 C 258.347 253.420,258.705 250.950,259.005 249.911 C 259.680 247.573,260.204 239.156,259.830 236.662 C 259.512 234.542,256.749 231.373,254.868 230.971 C 254.281 230.846,252.900 230.465,251.800 230.126 C 250.700 229.786,248.331 229.414,246.536 229.300 C 242.079 229.016,242.132 229.070,242.910 225.534 C 244.500 218.307,243.939 217.192,239.400 218.561 M242.948 219.800 C 242.920 220.240,242.590 222.296,242.215 224.368 C 241.248 229.719,241.231 229.698,246.851 230.342 C 258.412 231.667,260.634 234.199,259.012 244.200 C 258.655 246.400,258.108 250.450,257.795 253.200 C 257.232 258.156,256.666 261.393,255.923 263.900 L 255.538 265.200 250.556 265.200 C 246.438 265.200,245.534 265.093,245.338 264.583 C 245.037 263.798,245.925 254.227,246.407 253.070 C 246.606 252.592,246.954 250.026,247.181 247.370 C 247.407 244.713,247.798 241.952,248.048 241.233 C 249.441 237.239,244.539 233.799,241.356 236.536 C 240.335 237.415,240.248 237.752,239.949 242.036 C 239.773 244.546,239.434 247.230,239.195 248.000 C 238.956 248.770,238.508 251.726,238.200 254.569 C 237.645 259.675,237.000 263.232,236.415 264.400 C 236.015 265.199,227.035 265.493,226.124 264.737 C 225.446 264.175,225.662 260.401,226.613 256.160 C 226.914 254.819,227.359 251.759,227.602 249.360 C 227.845 246.962,228.212 244.280,228.417 243.400 C 228.622 242.520,229.070 239.191,229.413 236.002 C 230.237 228.339,231.166 225.320,233.412 223.009 C 236.564 219.766,243.092 217.569,242.948 219.800 M273.619 222.365 C 273.056 223.417,273.089 225.329,273.680 225.920 C 274.323 226.563,287.152 226.587,288.554 225.948 C 289.803 225.379,290.705 223.373,290.125 222.453 C 289.431 221.352,274.204 221.271,273.619 222.365 M289.500 222.460 C 290.041 223.001,289.195 224.963,288.266 225.319 C 287.807 225.495,276.279 225.760,274.500 225.635 C 273.856 225.590,273.840 223.120,274.480 222.480 C 275.138 221.822,288.843 221.803,289.500 222.460 M80.400 229.982 C 78.310 230.399,75.917 230.854,75.082 230.992 C 71.902 231.518,71.259 232.670,70.612 239.000 C 70.297 242.080,69.862 245.410,69.646 246.400 C 69.429 247.390,69.138 249.910,68.998 252.000 C 68.858 254.090,68.486 256.895,68.170 258.233 C 66.426 265.627,66.927 266.400,73.467 266.400 C 79.687 266.400,80.400 265.954,80.400 262.062 C 80.400 260.756,80.741 258.003,81.157 255.944 C 81.574 253.885,82.043 250.400,82.200 248.200 C 82.357 246.000,82.653 243.884,82.858 243.498 C 83.063 243.112,83.341 241.612,83.476 240.166 C 83.765 237.074,84.297 236.400,86.447 236.400 C 89.587 236.400,90.674 238.750,89.430 242.851 C 89.121 243.869,88.747 246.389,88.600 248.451 C 88.453 250.513,88.083 253.280,87.778 254.600 C 85.403 264.879,85.915 266.167,92.434 266.311 C 99.035 266.458,99.388 266.201,99.795 260.957 C 99.947 259.001,100.310 256.320,100.601 255.000 C 100.893 253.680,101.340 250.440,101.594 247.800 C 102.077 242.768,103.052 237.749,103.710 236.900 C 105.010 235.223,108.916 236.871,108.913 239.095 C 108.911 240.995,107.630 251.730,107.230 253.200 C 106.868 254.531,106.000 262.323,106.000 264.241 C 106.000 266.094,106.872 266.400,112.159 266.400 C 118.732 266.400,118.648 266.487,119.396 258.950 C 119.699 255.898,120.135 252.785,120.364 252.034 C 121.826 247.253,121.852 236.050,120.407 234.095 C 117.735 230.481,109.384 228.379,102.600 229.612 C 98.414 230.373,94.207 230.539,93.171 229.984 C 91.595 229.141,84.610 229.140,80.400 229.982 M131.119 230.018 C 130.022 230.597,129.532 231.182,129.231 232.273 C 128.568 234.674,128.886 234.800,135.623 234.800 C 143.704 234.800,144.939 235.506,144.120 239.659 L 143.777 241.400 139.988 241.659 C 131.670 242.228,124.000 246.238,124.000 250.017 C 124.000 250.394,123.724 251.364,123.386 252.173 C 121.754 256.077,122.844 261.212,125.839 263.727 C 128.924 266.319,139.097 267.740,145.000 266.403 C 145.880 266.203,147.500 265.835,148.600 265.584 C 149.700 265.333,150.997 265.052,151.482 264.961 C 153.485 264.582,154.307 262.610,154.799 257.000 C 155.049 254.140,155.520 250.771,155.844 249.513 C 156.169 248.255,156.543 244.810,156.677 241.857 L 156.919 236.487 155.774 234.729 C 154.378 232.586,151.936 230.932,149.341 230.373 C 144.681 229.367,143.501 229.247,138.200 229.242 C 133.406 229.236,132.387 229.348,131.119 230.018 M174.000 229.583 C 173.010 229.763,170.490 230.207,168.400 230.569 C 162.616 231.572,162.219 232.086,161.411 239.600 C 161.068 242.790,160.527 246.750,160.209 248.400 C 159.892 250.050,159.617 252.300,159.598 253.400 C 159.580 254.500,159.390 256.210,159.176 257.200 C 157.211 266.298,157.271 266.400,164.599 266.400 L 169.979 266.400 170.590 265.220 C 170.925 264.571,171.210 263.176,171.223 262.120 C 171.252 259.732,172.534 254.689,173.165 254.478 C 174.147 254.151,175.431 254.811,175.903 255.884 C 176.172 256.498,176.800 257.663,177.297 258.472 C 177.793 259.282,178.816 261.049,179.569 262.398 C 181.760 266.323,182.021 266.442,188.168 266.311 L 193.400 266.200 193.530 265.065 C 193.601 264.440,193.411 263.630,193.107 263.265 C 192.803 262.899,192.331 262.150,192.058 261.600 C 191.785 261.050,191.126 259.880,190.594 259.000 C 190.061 258.120,189.240 256.635,188.769 255.700 C 188.298 254.765,187.752 254.000,187.556 254.000 C 186.498 254.000,187.447 252.088,189.518 250.049 C 194.890 244.760,195.257 235.590,190.233 232.193 C 187.124 230.091,178.685 228.734,174.000 229.583 M211.200 229.641 C 210.430 229.867,208.719 230.280,207.399 230.559 C 201.100 231.888,197.566 236.591,197.011 244.380 C 196.862 246.481,196.483 249.216,196.170 250.458 C 193.408 261.402,198.302 266.800,210.984 266.800 C 219.276 266.800,222.553 265.339,222.324 261.742 L 222.200 259.800 220.200 259.833 C 219.100 259.852,216.752 260.099,214.983 260.384 C 211.910 260.878,211.688 260.861,210.025 260.013 L 208.284 259.124 208.527 255.062 C 208.661 252.828,208.965 250.370,209.203 249.600 C 209.441 248.830,209.793 246.216,209.985 243.791 C 210.607 235.915,212.265 234.786,221.200 236.155 C 225.292 236.782,225.823 236.576,226.175 234.226 C 226.538 231.809,226.024 231.032,223.513 230.201 C 221.015 229.374,213.304 229.023,211.200 229.641 M277.000 229.598 C 276.120 229.762,273.751 230.178,271.735 230.523 C 265.828 231.533,265.451 232.017,264.796 239.415 C 264.544 242.267,264.061 245.590,263.723 246.800 C 263.385 248.010,263.014 251.282,262.898 254.072 L 262.687 259.144 263.907 260.985 C 266.594 265.042,271.279 266.400,282.585 266.400 L 289.142 266.400 289.966 265.352 C 290.932 264.124,290.751 262.580,289.513 261.500 C 288.824 260.898,287.846 260.800,282.546 260.800 L 276.380 260.800 275.990 259.774 C 274.472 255.781,275.480 254.404,279.933 254.390 C 282.928 254.381,283.689 254.255,287.800 253.087 C 299.035 249.897,300.362 233.263,289.600 230.524 C 288.390 230.216,286.770 229.797,286.000 229.592 C 284.380 229.161,279.332 229.164,277.000 229.598 M96.200 230.896 C 97.740 230.892,101.700 230.824,105.000 230.745 C 113.567 230.538,116.146 231.072,118.850 233.610 L 120.917 235.550 120.681 241.675 C 120.543 245.248,120.187 248.717,119.827 250.000 C 119.487 251.210,119.207 253.113,119.205 254.230 C 119.198 257.297,118.002 263.706,117.287 264.512 C 116.735 265.133,116.039 265.209,111.827 265.112 L 107.000 265.000 106.869 263.200 C 106.798 262.210,107.102 259.330,107.546 256.800 C 108.321 252.387,109.467 244.007,109.870 239.799 C 110.114 237.258,109.011 236.016,106.233 235.703 C 102.695 235.304,101.952 236.616,101.197 244.600 C 100.947 247.240,100.573 250.120,100.366 251.000 C 100.159 251.880,99.714 255.114,99.377 258.187 C 98.573 265.536,98.856 265.254,92.428 265.111 L 87.400 265.000 87.493 262.400 C 87.544 260.970,87.848 258.630,88.169 257.200 C 88.491 255.770,88.863 253.028,88.997 251.106 C 89.131 249.184,89.485 246.664,89.784 245.506 C 91.594 238.491,90.567 235.600,86.264 235.600 C 83.314 235.600,82.508 237.606,81.577 247.278 C 81.316 249.985,80.932 252.650,80.723 253.200 C 80.514 253.750,80.197 256.436,80.020 259.170 C 79.616 265.390,79.820 265.200,73.573 265.200 C 68.117 265.200,67.684 264.977,68.383 262.527 C 68.622 261.687,69.088 258.210,69.418 254.800 C 69.749 251.390,70.193 248.060,70.407 247.400 C 70.620 246.740,70.978 243.860,71.202 241.000 C 71.756 233.935,71.813 233.735,73.605 232.549 C 75.717 231.151,82.089 230.353,88.600 230.669 C 91.240 230.798,94.660 230.900,96.200 230.896 M147.800 230.943 C 155.161 232.155,157.160 235.694,155.643 244.827 C 155.188 247.562,154.615 251.869,154.369 254.398 C 154.124 256.927,153.760 259.301,153.561 259.672 C 153.363 260.044,153.200 260.799,153.200 261.351 C 153.200 266.264,132.423 267.814,126.556 263.339 C 121.456 259.450,123.210 248.526,129.498 245.006 C 131.519 243.875,138.327 242.417,141.638 242.406 C 146.583 242.390,146.729 234.960,141.799 234.221 C 140.779 234.068,137.753 233.987,135.073 234.040 L 130.200 234.138 130.200 232.781 C 130.200 231.735,130.429 231.308,131.200 230.918 C 132.552 230.234,143.595 230.250,147.800 230.943 M184.400 230.939 C 191.091 231.967,193.870 235.613,192.572 241.664 C 192.273 243.059,192.022 244.686,192.014 245.280 C 192.004 246.071,191.249 247.122,189.200 249.200 C 186.199 252.243,185.855 253.180,187.130 254.846 C 187.532 255.371,188.459 256.880,189.191 258.200 C 189.923 259.520,190.871 260.989,191.298 261.465 C 191.725 261.941,192.103 262.931,192.137 263.665 L 192.200 265.000 187.457 265.113 C 182.026 265.243,182.160 265.303,180.169 261.839 C 175.512 253.736,174.949 253.118,172.828 253.791 C 171.553 254.196,171.150 255.354,170.773 259.692 C 170.251 265.704,170.791 265.201,164.873 265.194 C 158.361 265.186,158.504 265.285,159.306 261.336 C 159.657 259.611,160.043 256.556,160.164 254.546 C 160.285 252.536,160.577 250.386,160.813 249.766 C 161.048 249.147,161.497 246.201,161.810 243.220 C 162.402 237.594,163.067 234.178,163.746 233.274 C 165.422 231.043,176.745 229.764,184.400 230.939 M224.000 231.110 C 225.285 231.402,225.409 231.559,225.504 233.014 C 225.673 235.582,225.331 235.805,222.059 235.265 C 212.777 233.732,210.331 235.127,209.391 242.495 C 209.103 244.753,208.686 247.410,208.464 248.401 C 207.540 252.533,207.704 259.589,208.744 260.434 C 209.855 261.335,215.683 261.517,219.208 260.761 C 221.551 260.258,221.733 260.349,221.733 262.022 C 221.733 266.655,204.661 267.541,199.246 263.188 C 197.543 261.821,195.855 257.922,196.194 256.143 C 196.563 254.209,197.224 249.419,197.622 245.800 C 198.389 238.818,201.222 232.800,203.742 232.800 C 203.959 232.800,204.452 232.515,204.837 232.166 C 206.465 230.694,219.111 229.996,224.000 231.110 M287.842 230.943 C 292.463 231.695,294.185 232.990,295.632 236.800 L 296.467 239.000 295.674 242.901 C 294.215 250.075,289.538 253.156,279.000 253.884 C 275.224 254.145,274.919 254.331,274.582 256.580 C 273.968 260.673,275.540 261.598,283.126 261.606 C 289.065 261.613,289.351 261.684,289.735 263.254 C 290.213 265.211,289.640 265.318,279.692 265.129 L 270.589 264.956 268.252 263.778 C 263.329 261.296,262.287 257.609,264.206 249.469 C 264.526 248.111,264.792 246.190,264.796 245.200 C 264.800 244.210,265.090 241.780,265.441 239.800 C 265.792 237.820,266.171 235.609,266.285 234.886 C 266.845 231.311,277.794 229.309,287.842 230.943 M175.312 236.008 C 174.824 236.205,174.339 236.778,174.234 237.283 C 174.130 237.787,173.753 239.590,173.397 241.289 C 172.127 247.353,172.399 248.400,175.243 248.400 C 179.849 248.400,182.514 244.000,181.425 238.193 C 181.024 236.054,177.939 234.951,175.312 236.008 M278.877 235.885 C 276.924 236.258,274.929 247.614,276.697 248.293 C 280.535 249.765,284.073 246.898,284.586 241.900 C 285.133 236.579,283.615 234.980,278.877 235.885 M179.326 236.860 C 181.945 238.238,181.011 245.443,178.013 246.993 C 174.806 248.652,173.340 247.406,173.919 243.514 C 174.157 241.911,174.462 239.756,174.597 238.725 C 174.794 237.211,175.011 236.817,175.721 236.680 C 177.412 236.351,178.460 236.404,179.326 236.860 M283.462 237.251 C 285.416 238.873,283.239 246.329,280.552 247.216 C 277.190 248.325,276.709 247.487,277.426 241.769 C 277.727 239.366,277.980 237.278,277.987 237.128 C 278.026 236.306,282.443 236.406,283.462 237.251 M139.009 248.321 C 134.769 249.767,133.039 258.549,136.693 260.078 C 140.191 261.542,141.993 260.466,142.671 256.511 C 144.149 247.895,143.634 246.743,139.009 248.321 M142.112 249.300 C 142.696 249.739,142.728 250.168,142.372 252.800 C 142.150 254.450,141.875 256.559,141.761 257.486 C 141.525 259.422,140.019 260.044,137.240 259.354 L 135.800 258.996 135.839 255.798 C 135.884 252.081,136.952 249.379,138.494 249.083 C 140.287 248.739,141.459 248.809,142.112 249.300 " stroke="none" fill="#949494" fill-rule="evenodd"></path></g></svg>