<?xml version="1.0" encoding="UTF-8" standalone="no"?>
<!-- Generator: Adobe Illustrator 15.0.2, SVG Export Plug-In . SVG Version: 6.00 Build 0)  -->

<svg
   xmlns:dc="http://purl.org/dc/elements/1.1/"
   xmlns:cc="http://creativecommons.org/ns#"
   xmlns:rdf="http://www.w3.org/1999/02/22-rdf-syntax-ns#"
   xmlns:svg="http://www.w3.org/2000/svg"
   xmlns="http://www.w3.org/2000/svg"
   xmlns:sodipodi="http://sodipodi.sourceforge.net/DTD/sodipodi-0.dtd"
   xmlns:inkscape="http://www.inkscape.org/namespaces/inkscape"
   version="1.2"
   id="Calque_1"
   x="0px"
   y="0px"
   width="497"
   height="150"
   viewBox="0 58.5 497 150"
   overflow="inherit"
   xml:space="preserve"
   inkscape:version="0.91 r13725"
   sodipodi:docname="Logo_simply_market.svg"
   style="overflow:inherit"><metadata
     id="metadata135"><rdf:RDF><cc:Work
         rdf:about=""><dc:format>image/svg+xml</dc:format><dc:type
           rdf:resource="http://purl.org/dc/dcmitype/StillImage" /><dc:title></dc:title></cc:Work></rdf:RDF></metadata><defs
     id="defs133" /><sodipodi:namedview
     pagecolor="#ffffff"
     bordercolor="#666666"
     borderopacity="1"
     objecttolerance="10"
     gridtolerance="10"
     guidetolerance="10"
     inkscape:pageopacity="0"
     inkscape:pageshadow="2"
     inkscape:window-width="1280"
     inkscape:window-height="691"
     id="namedview131"
     showgrid="false"
     inkscape:zoom="2.0350878"
     inkscape:cx="140.49035"
     inkscape:cy="82"
     inkscape:window-x="0"
     inkscape:window-y="1"
     inkscape:window-maximized="1"
     inkscape:current-layer="Calque_1" /><g
     id="g4476"
     transform="matrix(2.1400445,0,0,2.1400445,-62.54066,-174.4203)"><rect
       style="fill:#6fa548;fill-opacity:1;fill-rule:evenodd"
       id="rect17"
       height="10.093"
       width="12.627"
       y="110.118"
       x="72.652" /><g
       id="g4452"><path
         d="m 69.308,122.667 -13.383,0.787 c -0.372,-2.118 -1.116,-3.637 -2.23,-4.554 -1.116,-0.962 -2.679,-1.442 -4.69,-1.442 -1.618,0 -2.865,0.35 -3.739,1.047 -0.832,0.721 -1.247,1.585 -1.247,2.591 0,0.741 0.35,1.408 1.049,1.997 0.677,0.611 2.264,1.18 4.756,1.705 6.318,1.398 10.758,2.763 13.316,4.097 2.69,1.397 4.635,3.111 5.839,5.144 1.222,2.075 1.835,4.369 1.835,6.88 0,3.016 -0.808,5.744 -2.428,8.192 -1.639,2.534 -3.914,4.433 -6.822,5.701 -2.864,1.288 -6.548,1.934 -11.053,1.934 -7.784,0 -13.185,-1.508 -16.203,-4.521 -2.997,-3.038 -4.69,-6.884 -5.084,-11.536 l 13.48,-0.852 c 0.328,2.229 0.929,3.921 1.803,5.08 1.488,1.876 3.575,2.816 6.267,2.816 2.032,0 3.595,-0.481 4.688,-1.442 1.093,-0.96 1.64,-2.075 1.64,-3.341 0,-1.202 -0.524,-2.284 -1.574,-3.244 -1.072,-0.94 -3.5,-1.835 -7.283,-2.688 -6.187,-1.397 -10.615,-3.275 -13.283,-5.635 -2.667,-2.337 -4.001,-5.319 -4.001,-8.946 0,-2.423 0.679,-4.685 2.034,-6.783 1.355,-2.096 3.411,-3.767 6.167,-5.012 2.776,-1.2 6.527,-1.803 11.249,-1.803 5.839,0 10.311,1.104 13.416,3.311 3.064,2.206 4.89,5.712 5.481,10.517 z"
         id="path9"
         inkscape:connector-curvature="0"
         style="fill:#f3152c;fill-opacity:1;fill-rule:evenodd" /><rect
         x="72.652"
         y="122.798"
         width="12.627"
         height="33.127998"
         id="rect13"
         style="fill:#f3152c;fill-opacity:1;fill-rule:evenodd" /><polygon
         points="141.071,110.15 141.071,155.927 127.789,155.927 127.789,126.632 119.72,155.927 109.256,155.927 101.122,126.011 101.122,155.927 87.839,155.927 87.839,110.15 107.322,110.15 114.539,138.625 121.753,110.15 "
         id="polygon21"
         style="fill:#f3152c;fill-opacity:1;fill-rule:evenodd" /><path
         d="m 184.137,124.798 c 0,2.38 -0.48,4.827 -1.443,7.338 -0.962,2.491 -2.143,4.414 -3.542,5.768 -2.756,2.687 -6.985,4.031 -12.693,4.031 l -8.626,0 0,13.991 -13.383,0 0,-45.776 23.518,0 c 2.491,0 4.787,0.405 6.888,1.213 1.945,0.741 3.585,1.77 4.918,3.08 2.909,2.862 4.363,6.313 4.363,10.355 z m -16.728,-2.589 -2.983,-0.295 -6.494,0 0,8.945 7.51,0.098 2.197,-0.295 c 2.1,-0.653 3.083,-2.173 2.953,-4.554 -0.133,-2.009 -1.192,-3.31 -3.183,-3.899 z"
         id="path25"
         inkscape:connector-curvature="0"
         style="fill:#f3152c;fill-opacity:1;fill-rule:evenodd" /><polygon
         points="186.006,155.927 186.006,110.15 200.176,110.15 200.176,143.965 220.283,143.965 220.283,155.927 "
         id="polygon29"
         style="fill:#f3152c;fill-opacity:1;fill-rule:evenodd" /><path
         d="m 244.159,110.118 17.057,0 -19.812,52.789 c -2.47,5.701 -4.897,9.871 -7.28,12.517 -1.617,1.79 -3.782,2.915 -6.494,3.373 l -196.96,0.134 0,-14.092 189.317,0 c 2.275,0 4.266,-1.659 5.97,-4.98 0.853,-1.659 1.477,-3.32 1.871,-4.979 l -19.354,-44.76 18.435,0 8.953,29.229 8.297,-29.231 z"
         id="path33"
         inkscape:connector-curvature="0"
         style="fill:#f3152c;fill-opacity:1;fill-rule:evenodd" /></g></g><g
     id="g4462"
     transform="matrix(2.1400445,0,0,2.1400445,-62.54066,-174.4203)"><polygon
       style="fill:#f7151b;fill-rule:evenodd"
       id="polygon37"
       points="54.776,167.951 60.058,167.951 62.091,173.098 64.124,167.951 69.438,167.951 69.438,176.406 66.125,176.406 66.125,169.951 63.566,176.406 60.582,176.406 58.056,169.951 58.056,176.406 54.776,176.406 " /><path
       style="fill:#f7151b;fill-rule:evenodd"
       inkscape:connector-curvature="0"
       id="path41"
       d="m 124.771,168.935 c 0.392,0.394 0.59,0.84 0.59,1.345 0,0.459 -0.154,0.862 -0.458,1.21 -0.307,0.351 -0.733,0.625 -1.28,0.819 l -1.411,0.36 1.017,0.295 0.656,0.462 0.557,0.521 1.969,2.459 -4.526,0 -2.197,-2.59 -0.723,-0.655 -0.952,-0.197 -0.394,0 0,3.442 -4.033,0 0,-8.455 6.723,0 2.852,0.197 c 0.68,0.131 1.216,0.394 1.61,0.787 z" /><polygon
       style="fill:#f7151b;fill-rule:evenodd"
       id="polygon45"
       points="145.434,174.341 145.434,176.406 141.4,176.406 141.4,167.951 145.434,167.951 145.434,171.131 149.697,167.951 155.012,167.951 150.255,171.131 155.241,176.406 150.289,176.406 147.533,172.934 " /><polygon
       style="fill:#f7151b;fill-rule:evenodd"
       id="polygon49"
       points="170.263,176.406 170.263,167.951 181.055,167.951 181.055,169.755 174.298,169.755 174.298,171.099 180.596,171.099 180.596,172.833 174.298,172.833 174.298,174.505 181.251,174.505 181.251,176.406 " /><polygon
       style="fill:#f7151b;fill-rule:evenodd"
       id="polygon53"
       points="196.207,170.014 196.207,167.951 208.44,167.951 208.44,170.014 204.341,170.014 204.341,176.406 200.307,176.406 200.307,170.014 " /><polygon
       style="fill:#ffffff;fill-rule:evenodd"
       id="polygon57"
       points="54.776,167.951 60.058,167.951 62.091,173.098 64.124,167.951 69.438,167.951 69.438,176.406 66.125,176.406 66.125,169.951 63.566,176.406 60.582,176.406 58.056,169.951 58.056,176.406 54.776,176.406 " /><polygon
       style="fill:#ffffff;fill-rule:evenodd"
       id="polygon61"
       points="145.434,174.341 145.434,176.406 141.4,176.406 141.4,167.951 145.434,167.951 145.434,171.131 149.697,167.951 155.012,167.951 150.255,171.131 155.241,176.406 150.289,176.406 147.533,172.934 " /><polygon
       style="fill:#ffffff;fill-rule:evenodd"
       id="polygon65"
       points="170.263,176.406 170.263,167.951 181.055,167.951 181.055,169.755 174.298,169.755 174.298,171.099 180.596,171.099 180.596,172.833 174.298,172.833 174.298,174.505 181.251,174.505 181.251,176.406 " /><polygon
       style="fill:#ffffff;fill-rule:evenodd"
       id="polygon69"
       points="196.207,170.014 196.207,167.951 208.44,167.951 208.44,170.014 204.341,170.014 204.341,176.406 200.307,176.406 200.307,170.014 " /><path
       id="polygon77"
       d="m 84.362,176.406 4.919,-8.455 4.428,0 4.888,8.455 -4.233,0 -0.655,-1.41 -4.559,0 -0.655,1.41 z"
       style="fill:#f7151b;fill-rule:evenodd"
       inkscape:connector-curvature="0" /><path
       style="fill:#ffffff;fill-rule:evenodd"
       inkscape:connector-curvature="0"
       id="path81"
       d="m 90.003,173.193 2.853,0 -1.409,-3.046 -1.444,3.046 z m -0.853,1.803 -0.655,1.41 -4.133,0 4.919,-8.455 4.428,0 4.888,8.455 -4.232,0 -0.655,-1.41 -4.56,0 z" /><path
       style="fill:#ffffff;fill-rule:evenodd"
       inkscape:connector-curvature="0"
       id="path85"
       d="m 119.425,169.656 -1.806,0 0,1.702 2.789,-0.096 0.656,-0.296 c 0.154,-0.133 0.229,-0.297 0.229,-0.491 0,-0.242 -0.131,-0.449 -0.394,-0.625 l -1.474,-0.194 z m 0.885,-1.705 2.852,0.197 c 0.68,0.131 1.215,0.394 1.609,0.786 0.392,0.394 0.59,0.84 0.59,1.345 0,0.459 -0.154,0.862 -0.458,1.21 -0.307,0.351 -0.733,0.625 -1.28,0.819 l -1.411,0.36 1.017,0.295 0.656,0.462 0.557,0.521 1.969,2.459 -4.526,0 -2.197,-2.59 -0.723,-0.655 -0.952,-0.197 -0.394,0 0,3.442 -4.033,0 0,-8.455 6.724,0 z" /></g></svg>