<svg xmlns="http://www.w3.org/2000/svg" viewBox="0 0 100 40.4">
  <g>
    <path d="M0,37.69V40.4H92.93c1.39,0,2-.43,2.17-1.48l.22-1.23Z" fill="#566648"/>
    <path d="M89,9.29H83.91a1.32,1.32,0,0,0-1.36.82l-1.22,2C79.83,9.88,77.21,8.76,74,8.76c-5.94,0-9.9,3.74-11.23,11.07l-1.18,6.73C60.25,33.89,64.86,37.05,70,37.64a9,9,0,0,0,7.81-3.32c.94,2.9,3.71,3.52,6.15,3.37ZM79.35,19.83,78.23,26A5.6,5.6,0,0,1,72.72,31c-2.2,0-4-1.23-3.53-3.85l1.39-7.81c.48-2.62,1.87-3.85,4.54-3.85s4.71,1.76,4.23,4.39" fill="#566648"/>
    <path d="M100,0H93.09c-.55,0-.92.36-1.07,1.05l-4.6,26.23c-1,6,.18,9.83,6,10.41Z" fill="#566648"/>
    <path d="M26.63,27.22c-1.05,6,.15,9.89,5.95,10.47l5-28.4H30.69a1.16,1.16,0,0,0-1.14,1.08Z" fill="#566648"/>
    <path d="M20.18,10.33,12.55,25.41,9.12,4.11A5.13,5.13,0,0,0,5,0H0L4.42,29.16c.45,2.81,2.46,7,6.48,8.3a22,22,0,0,0,2.82.25H15.4L29.52,9.31H21.71A1.46,1.46,0,0,0,20.18,10.33Z" fill="#566648"/>
    <path d="M38.45,4V1.89C38.45.43,38.07,0,36.53,0H34.47a4,4,0,1,0,4,4Z" fill="#b26b58"/>
    <path d="M57.39,10.24,48.69,27,46.33,13A4.74,4.74,0,0,0,42.45,9.3H37.8L41.1,30c.43,2.52,2.57,6.28,6.33,7.43a21.36,21.36,0,0,0,2.64.22h1.57L66.13,9.3H58.81A1.39,1.39,0,0,0,57.39,10.24Z" fill="#566648"/>
  </g>
</svg>
